<svg width="81" height="81" viewBox="0 0 81 81" fill="none" xmlns="http://www.w3.org/2000/svg">
<g clip-path="url(#clip0_52_359)">
<path fill-rule="evenodd" clip-rule="evenodd" d="M0.963867 51.9383C11.3586 36.6617 27.8563 26.6463 47.653 25.2529L47.946 29.6428C27.4049 31.0938 10.1037 43.1164 0.96388 60.0551L0.963867 51.9383Z" fill="#3C3C3B"/>
<path fill-rule="evenodd" clip-rule="evenodd" d="M47.127 9.44043C59.7691 9.44043 71.4579 13.1913 80.9637 19.5474V24.2891C71.7355 17.3588 59.9584 13.2011 47.127 13.2011C43.4284 13.2011 39.8196 13.546 36.3327 14.2033C36.3678 14.1061 36.4014 14.0062 36.4336 13.9063C36.7954 12.7705 36.944 11.4798 37.0744 10.2469C40.3383 9.7177 43.6962 9.44043 47.127 9.44043ZM1.47827 30.0977C4.39591 26.6227 7.77057 23.4897 11.5196 20.7761C11.7215 20.9352 11.9556 21.0759 12.2528 21.2307C13.0576 21.6473 14.3334 22.1568 15.7312 22.5621C10.0362 26.3623 5.18385 31.1673 1.47827 36.6958V30.0977Z" fill="#3C3C3B"/>
<path fill-rule="evenodd" clip-rule="evenodd" d="M40.7708 9.77637C38.6705 18.7644 29.999 25.5033 19.6183 25.5033C15.6926 25.5033 12.0094 24.5392 8.83521 22.8544C8.97121 22.7419 9.10721 22.6321 9.24741 22.5195C9.66662 22.1831 10.1223 21.8298 10.5499 21.5047C10.9776 21.1796 11.3786 20.8854 11.8483 20.5519C12.0067 20.4393 12.1735 20.3224 12.3544 20.1986C14.5668 21.1331 17.0273 21.6539 19.6197 21.6539C27.436 21.6539 34.0508 16.9206 36.28 10.3942C36.7189 10.3182 37.1816 10.2408 37.598 10.1761C38.2779 10.0691 38.836 9.9931 39.4249 9.91992C39.8258 9.87066 40.2422 9.82422 40.7708 9.77637Z" fill="#3C3C3B"/>
<path fill-rule="evenodd" clip-rule="evenodd" d="M50.2789 18.7018C55.172 20.1768 57.9481 25.3549 56.4802 30.2655C55.4805 33.6054 52.7774 35.9615 49.613 36.6652L49.0985 34.8693C51.6768 34.3387 53.8906 32.4386 54.701 29.7307C55.8745 25.8053 53.6565 21.6673 49.7462 20.4893C45.836 19.3112 41.7139 21.5379 40.5404 25.4633C39.7301 28.1726 40.5362 30.9819 42.3981 32.851L40.9821 34.0657C38.7262 31.7279 37.763 28.2669 38.7613 24.927C40.2278 20.0136 45.3844 17.2282 50.2789 18.7018Z" fill="#3C3C3B"/>
<path fill-rule="evenodd" clip-rule="evenodd" d="M48.8587 23.4523C51.1384 24.1392 52.4325 26.553 51.7483 28.8415C51.2688 30.446 49.9453 31.5621 48.4115 31.8521L48.1703 31.0118C49.4294 30.8063 50.5272 29.9013 50.9184 28.5924C51.4666 26.7627 50.4319 24.8345 48.6106 24.2856C46.788 23.7366 44.8671 24.7739 44.3203 26.6036C43.9291 27.914 44.3484 29.2736 45.285 30.1434L44.6232 30.712C43.5015 29.6226 43.0109 27.9576 43.489 26.3545C44.1746 24.0632 46.5776 22.7655 48.8587 23.4523Z" fill="#3C3C3B"/>
<path fill-rule="evenodd" clip-rule="evenodd" d="M48.7103 23.95C50.7194 24.5552 51.8564 26.6776 51.2535 28.6945C50.8259 30.1231 49.6384 31.1125 48.2672 31.3532L48.0555 30.6129C49.1855 30.4468 50.174 29.6446 50.5245 28.475C51.0068 26.8634 50.0955 25.166 48.4915 24.6833C46.8876 24.2005 45.1968 25.1139 44.7159 26.7241C44.3654 27.8951 44.7495 29.1111 45.6034 29.874L45.0201 30.375C44.0064 29.4165 43.5592 27.9331 43.9868 26.5045C44.5869 24.489 46.7026 23.3448 48.7103 23.95Z" fill="#3C3C3B"/>
<path fill-rule="evenodd" clip-rule="evenodd" d="M49.3434 24.1472L49.3701 24.1599L49.3728 24.1613L49.4415 24.1965C49.6533 24.3119 49.8537 24.4442 50.0374 24.5934L50.0459 24.6004L50.1061 24.6511L50.1243 24.6665L50.1719 24.7088L50.2013 24.7355L50.2309 24.7637L50.28 24.8101L50.2828 24.8129C50.6922 25.2056 51.0006 25.6771 51.1997 26.1894L51.2292 26.2668C51.4297 26.8087 51.5082 27.3984 51.4451 27.9966L51.4437 28.0093L51.4367 28.0684L51.4297 28.1233L51.4255 28.1514L51.4143 28.226L51.4128 28.2373C51.3736 28.4723 51.3133 28.7046 51.2292 28.9326L51.2011 29.0043L51.1969 29.0142L51.1941 29.024C50.9501 29.6405 50.5632 30.1627 50.0823 30.5638L50.0571 30.5849L50.0178 30.6159L49.9884 30.6384L49.987 30.6398L49.9294 30.6834L49.921 30.6905L49.872 30.7271L49.8678 30.7299C49.8299 30.7566 49.792 30.7833 49.7528 30.8101L49.6925 30.8495L49.6462 30.8791L49.628 30.8889L49.5832 30.9171L49.5579 30.9311L49.5145 30.9565L49.5073 30.9593L49.4485 30.9917L49.4457 30.9931L49.3813 31.0269L49.3673 31.0339L49.3561 31.0395L49.286 31.0733L49.279 31.0761C48.8387 31.2887 48.3549 31.4181 47.8571 31.4491V31.4477C47.0888 31.4969 46.2982 31.3154 45.5944 30.8777C45.4935 30.8157 45.3939 30.7482 45.3013 30.6764H45.3C45.1556 30.5666 45.021 30.4484 44.8948 30.3217L44.8836 30.3105L44.8625 30.2893L44.8527 30.2795C44.4811 29.8953 44.1994 29.4435 44.0171 28.9579L43.9946 28.9002C43.8264 28.4301 43.7465 27.9262 43.7717 27.4125V27.4041L43.7745 27.3604L43.7774 27.314L43.7802 27.2929C43.7914 27.138 43.8124 26.9818 43.8433 26.827H43.8445C43.8684 26.7116 43.8965 26.5962 43.9316 26.4808C44.1699 25.6841 44.641 25.0226 45.2481 24.5469L45.2467 24.5455C45.6897 24.1979 46.2 23.9572 46.737 23.8305L46.7413 23.8291L46.8072 23.8136H46.8127L46.866 23.8024L46.8898 23.7981L46.9418 23.7883L46.9712 23.7841L47.0202 23.7756L47.0917 23.7658L47.1491 23.7587L47.1745 23.7559L47.2291 23.7503L47.253 23.7489L47.3062 23.7432H47.3077L47.379 23.739L47.4268 23.7362L47.4689 23.7348H47.4955C48.1208 23.7179 48.7559 23.8488 49.3434 24.1472ZM49.8692 30.7299C49.8313 30.7566 49.7935 30.7833 49.7542 30.8101L49.8692 30.7299Z" fill="#3C3C3B"/>
<path fill-rule="evenodd" clip-rule="evenodd" d="M55.4892 32.4762C52.8043 36.8393 47.105 38.1905 42.7573 35.4952C39.8032 33.6627 38.2344 30.4312 38.3774 27.1799L40.2407 27.1461C40.0837 29.7851 41.3385 32.4227 43.7346 33.909C47.2088 36.0638 51.764 34.9829 53.9105 31.4966C56.0556 28.0089 54.9803 23.4361 51.5074 21.2827C49.11 19.795 46.1979 19.8499 43.9182 21.1715L43.1163 19.4839C45.9498 17.9005 49.5292 17.8625 52.4847 19.695C56.8282 22.3917 58.1755 28.1131 55.4892 32.4762Z" fill="#3C3C3B"/>
<path fill-rule="evenodd" clip-rule="evenodd" d="M51.2856 29.8706C50.0336 31.9029 47.3781 32.5335 45.3536 31.278C43.9333 30.3984 43.2015 28.8248 43.3207 27.2626L44.1913 27.2471C44.0637 28.5222 44.6484 29.8199 45.8079 30.5377C47.4258 31.5412 49.5485 31.0374 50.5496 29.4132C51.5493 27.789 51.0473 25.6581 49.4294 24.6545C48.2699 23.9353 46.8524 23.9888 45.7743 24.6756L45.3985 23.8861C46.7361 23.081 48.4661 23.0346 49.8836 23.9156C51.9095 25.1725 52.5362 27.8382 51.2856 29.8706Z" fill="#3C3C3B"/>
<path fill-rule="evenodd" clip-rule="evenodd" d="M48.8587 23.4523C51.1384 24.1392 52.4325 26.553 51.7483 28.8415C51.2688 30.446 49.9453 31.5621 48.4115 31.8521L48.1703 31.0118C49.4294 30.8063 50.5272 29.9013 50.9184 28.5924C51.4666 26.7627 50.4319 24.8345 48.6106 24.2856C46.788 23.7366 44.8671 24.7739 44.3203 26.6036C43.9291 27.914 44.3484 29.2736 45.285 30.1434L44.6232 30.712C43.5015 29.6226 43.0109 27.9576 43.489 26.3545C44.1746 24.0632 46.5776 22.7655 48.8587 23.4523Z" fill="#3C3C3B"/>
<path fill-rule="evenodd" clip-rule="evenodd" d="M48.7103 23.95C50.7194 24.5552 51.8564 26.6776 51.2535 28.6945C50.8259 30.1231 49.6384 31.1125 48.2672 31.3532L48.0555 30.6129C49.1855 30.4468 50.174 29.6446 50.5245 28.475C51.0068 26.8634 50.0955 25.166 48.4915 24.6833C46.8876 24.2005 45.1968 25.1139 44.7159 26.7241C44.3654 27.8951 44.7495 29.1111 45.6034 29.874L45.0201 30.375C44.0064 29.4165 43.5592 27.9331 43.9868 26.5045C44.5869 24.489 46.7026 23.3448 48.7103 23.95Z" fill="#3C3C3B"/>
<path fill-rule="evenodd" clip-rule="evenodd" d="M51.8361 28.3789C51.344 30.718 49.0588 32.2128 46.7285 31.7201C45.0965 31.3739 43.8768 30.1438 43.4604 28.635L44.275 28.324C44.5848 29.5667 45.5733 30.5886 46.9066 30.8715C48.7685 31.2655 50.5954 30.0692 50.9879 28.2015C51.3805 26.3338 50.1901 24.4985 48.3282 24.1044C46.9949 23.8215 45.6798 24.3549 44.8975 25.3669L44.2778 24.7518C45.2648 23.5386 46.8772 22.9081 48.5091 23.2529C50.8365 23.7455 52.3268 26.0411 51.8361 28.3789Z" fill="#3C3C3B"/>
<path d="M17.5823 65.9482H20.0942C20.6093 65.9482 21.0518 66.0256 21.4219 66.1804C21.7951 66.3352 22.0819 66.5643 22.2823 66.8677C22.4828 67.1711 22.583 67.5441 22.583 67.9868C22.583 68.3491 22.5214 68.6602 22.398 68.9203C22.2777 69.1772 22.1066 69.3924 21.8845 69.5658C21.6655 69.7361 21.408 69.8723 21.112 69.9744L20.6725 70.2066H18.489L18.4798 69.12H20.1035C20.3471 69.12 20.5491 69.0766 20.7095 68.9899C20.8699 68.9032 20.9901 68.7825 21.0703 68.6277C21.1536 68.4729 21.1952 68.2933 21.1952 68.089C21.1952 67.8723 21.1551 67.685 21.075 67.5271C20.9948 67.3692 20.873 67.2485 20.7095 67.1649C20.546 67.0813 20.341 67.0395 20.0942 67.0395H18.9701V72.7097H17.5823V65.9482ZM21.3479 72.7097L19.8121 69.6958L21.2785 69.6865L22.8328 72.6447V72.7097H21.3479Z" fill="#3C3C3B"/>
<path d="M24.9746 67.6852V72.7098H23.6377V67.6852H24.9746ZM23.5544 66.3755C23.5544 66.1805 23.6223 66.0195 23.7579 65.8925C23.8936 65.7656 24.0756 65.7021 24.3038 65.7021C24.529 65.7021 24.7094 65.7656 24.8451 65.8925C24.9838 66.0195 25.0532 66.1805 25.0532 66.3755C25.0532 66.5705 24.9838 66.7316 24.8451 66.8586C24.7094 66.9855 24.529 67.049 24.3038 67.049C24.0756 67.049 23.8936 66.9855 23.7579 66.8586C23.6223 66.7316 23.5544 66.5705 23.5544 66.3755Z" fill="#3C3C3B"/>
<path d="M27.4079 68.7249V72.7094H26.071V67.6847H27.3246L27.4079 68.7249ZM27.2228 70.0206H26.8528C26.8528 69.6707 26.8944 69.3488 26.9777 69.0546C27.064 68.7574 27.1889 68.5005 27.3524 68.2838C27.5189 68.0639 27.724 67.8937 27.9676 67.7729C28.2113 67.6522 28.4935 67.5918 28.8142 67.5918C29.0362 67.5918 29.2398 67.6259 29.4248 67.694C29.6099 67.759 29.7687 67.8627 29.9013 68.0051C30.037 68.1444 30.1419 68.3271 30.2159 68.5531C30.2899 68.776 30.3269 69.0438 30.3269 69.3565V72.7094H28.9946V69.5051C28.9946 69.276 28.9638 69.0995 28.9021 68.9757C28.8404 68.8519 28.7525 68.7652 28.6384 68.7156C28.5274 68.6661 28.3932 68.6413 28.2359 68.6413C28.0632 68.6413 27.9121 68.6769 27.7826 68.7481C27.6561 68.8194 27.5513 68.9184 27.468 69.0454C27.3848 69.1692 27.3231 69.3147 27.283 69.4819C27.2429 69.6491 27.2228 69.8286 27.2228 70.0206ZM30.202 69.8673L29.7255 69.9277C29.7255 69.5995 29.7656 69.2946 29.8458 69.0129C29.9291 68.7311 30.0509 68.4834 30.2113 68.2698C30.3747 68.0562 30.5767 67.8906 30.8173 67.7729C31.0578 67.6522 31.3354 67.5918 31.6499 67.5918C31.8905 67.5918 32.1095 67.6274 32.3068 67.6986C32.5042 67.7667 32.6723 67.8766 32.8111 68.0283C32.9529 68.1769 33.0609 68.372 33.1349 68.6135C33.212 68.855 33.2505 69.1506 33.2505 69.5005V72.7094H31.9136V69.5005C31.9136 69.2683 31.8828 69.0918 31.8211 68.9711C31.7625 68.8472 31.6762 68.7621 31.5621 68.7156C31.451 68.6661 31.3184 68.6413 31.1642 68.6413C31.0038 68.6413 30.8635 68.6738 30.7432 68.7389C30.623 68.8008 30.5227 68.8875 30.4426 68.9989C30.3624 69.1104 30.3022 69.2404 30.2621 69.389C30.222 69.5345 30.202 69.694 30.202 69.8673Z" fill="#3C3C3B"/>
<path d="M34.3655 65.9482H36.8775C37.3925 65.9482 37.835 66.0256 38.2051 66.1804C38.5783 66.3352 38.8651 66.5643 39.0656 66.8677C39.266 67.1711 39.3663 67.5441 39.3663 67.9868C39.3663 68.3491 39.3046 68.6602 39.1812 68.9203C39.0609 69.1772 38.8898 69.3924 38.6677 69.5658C38.4488 69.7361 38.1912 69.8723 37.8952 69.9744L37.4557 70.2066H35.2722L35.263 69.12H36.8867C37.1303 69.12 37.3323 69.0766 37.4927 68.9899C37.6531 68.9032 37.7734 68.7825 37.8535 68.6277C37.9368 68.4729 37.9784 68.2933 37.9784 68.089C37.9784 67.8723 37.9384 67.685 37.8582 67.5271C37.778 67.3692 37.6562 67.2485 37.4927 67.1649C37.3293 67.0813 37.1242 67.0395 36.8775 67.0395H35.7533V72.7097H34.3655V65.9482ZM38.1311 72.7097L36.5953 69.6958L38.0617 69.6865L39.6161 72.6447V72.7097H38.1311Z" fill="#3C3C3B"/>
<path d="M43.3122 71.5074V67.6855H44.6444V72.7102H43.3908L43.3122 71.5074ZM43.4602 70.4765L43.8534 70.4672C43.8534 70.8016 43.8148 71.1127 43.7377 71.4006C43.6606 71.6855 43.545 71.9331 43.3908 72.1437C43.2366 72.3511 43.0423 72.5136 42.8079 72.6313C42.5735 72.7458 42.2975 72.8031 41.9799 72.8031C41.7362 72.8031 41.5111 72.769 41.3045 72.7009C41.1009 72.6297 40.9251 72.5198 40.7771 72.3712C40.6321 72.2195 40.518 72.026 40.4348 71.7907C40.3546 71.5523 40.3145 71.266 40.3145 70.9316V67.6855H41.6468V70.9409C41.6468 71.0895 41.6637 71.2149 41.6977 71.317C41.7347 71.4192 41.7856 71.5028 41.8503 71.5678C41.9151 71.6328 41.9907 71.6793 42.077 71.7071C42.1664 71.735 42.2651 71.7489 42.3731 71.7489C42.6475 71.7489 42.8634 71.6932 43.0207 71.5817C43.1811 71.4703 43.2936 71.3186 43.3584 71.1266C43.4263 70.9316 43.4602 70.7149 43.4602 70.4765Z" fill="#3C3C3B"/>
<path d="M46.9668 68.7574V72.7094H45.6345V67.6847H46.8835L46.9668 68.7574ZM46.7725 70.0206H46.4117C46.4117 69.6491 46.4595 69.3147 46.5551 69.0175C46.6507 68.7172 46.7849 68.4618 46.9576 68.2512C47.1303 68.0376 47.3354 67.8751 47.5728 67.7636C47.8134 67.6491 48.0817 67.5918 48.3777 67.5918C48.6121 67.5918 48.8265 67.6259 49.0208 67.694C49.2151 67.7621 49.3816 67.8704 49.5204 68.0191C49.6622 68.1677 49.7702 68.3642 49.8442 68.6088C49.9213 68.8534 49.9598 69.1522 49.9598 69.5051V72.7094H48.6183V69.5005C48.6183 69.2776 48.5875 69.1042 48.5258 68.9803C48.4641 68.8565 48.3731 68.7698 48.2528 68.7203C48.1357 68.6677 47.9907 68.6413 47.818 68.6413C47.6391 68.6413 47.4834 68.6769 47.3508 68.7481C47.2212 68.8194 47.1133 68.9184 47.0269 69.0454C46.9437 69.1692 46.8805 69.3147 46.8373 69.4819C46.7941 69.6491 46.7725 69.8286 46.7725 70.0206Z" fill="#3C3C3B"/>
<path d="M50.76 70.2481V70.1506C50.76 69.7822 50.8125 69.4432 50.9173 69.1336C51.0222 68.8209 51.1748 68.55 51.3753 68.3209C51.5758 68.0918 51.8225 67.9138 52.1155 67.7869C52.4085 67.6568 52.7446 67.5918 53.1239 67.5918C53.5033 67.5918 53.841 67.6568 54.137 67.7869C54.4331 67.9138 54.6814 68.0918 54.8818 68.3209C55.0854 68.55 55.2396 68.8209 55.3444 69.1336C55.4493 69.4432 55.5017 69.7822 55.5017 70.1506V70.2481C55.5017 70.6135 55.4493 70.9525 55.3444 71.2652C55.2396 71.5747 55.0854 71.8456 54.8818 72.0778C54.6814 72.3069 54.4347 72.485 54.1417 72.6119C53.8487 72.7388 53.5125 72.8023 53.1332 72.8023C52.7539 72.8023 52.4162 72.7388 52.1201 72.6119C51.8271 72.485 51.5789 72.3069 51.3753 72.0778C51.1748 71.8456 51.0222 71.5747 50.9173 71.2652C50.8125 70.9525 50.76 70.6135 50.76 70.2481ZM52.0923 70.1506V70.2481C52.0923 70.4587 52.1108 70.6553 52.1479 70.8379C52.1849 71.0206 52.2435 71.1816 52.3236 71.3209C52.4069 71.4571 52.5149 71.5639 52.6475 71.6413C52.7801 71.7187 52.942 71.7574 53.1332 71.7574C53.3182 71.7574 53.4771 71.7187 53.6097 71.6413C53.7423 71.5639 53.8487 71.4571 53.9289 71.3209C54.0091 71.1816 54.0677 71.0206 54.1047 70.8379C54.1448 70.6553 54.1648 70.4587 54.1648 70.2481V70.1506C54.1648 69.9463 54.1448 69.7543 54.1047 69.5748C54.0677 69.3921 54.0075 69.2311 53.9242 69.0918C53.8441 68.9494 53.7377 68.8379 53.6051 68.7574C53.4724 68.6769 53.3121 68.6367 53.1239 68.6367C52.9358 68.6367 52.7755 68.6769 52.6428 68.7574C52.5133 68.8379 52.4069 68.9494 52.3236 69.0918C52.2435 69.2311 52.1849 69.3921 52.1479 69.5748C52.1108 69.7543 52.0923 69.9463 52.0923 70.1506Z" fill="#3C3C3B"/>
<path d="M59.2812 71.5074V67.6855H60.6134V72.7102H59.3597L59.2812 71.5074ZM59.4291 70.4765L59.8223 70.4672C59.8223 70.8016 59.7838 71.1127 59.7067 71.4006C59.6296 71.6855 59.5139 71.9331 59.3597 72.1437C59.2055 72.3511 59.0112 72.5136 58.7768 72.6313C58.5425 72.7458 58.2664 72.8031 57.9488 72.8031C57.7052 72.8031 57.48 72.769 57.2734 72.7009C57.0698 72.6297 56.8941 72.5198 56.746 72.3712C56.6011 72.2195 56.487 72.026 56.4037 71.7907C56.3235 71.5523 56.2834 71.266 56.2834 70.9316V67.6855H57.6157V70.9409C57.6157 71.0895 57.6327 71.2149 57.6666 71.317C57.7036 71.4192 57.7545 71.5028 57.8193 71.5678C57.884 71.6328 57.9596 71.6793 58.0459 71.7071C58.1354 71.735 58.2341 71.7489 58.342 71.7489C58.6165 71.7489 58.8325 71.6932 58.9897 71.5817C59.1501 71.4703 59.2627 71.3186 59.3274 71.1266C59.3953 70.9316 59.4291 70.7149 59.4291 70.4765Z" fill="#3C3C3B"/>
<path d="M64.0831 67.6852V68.6325H61.1687V67.6852H64.0831ZM61.8904 66.4453H63.2227V71.196C63.2227 71.3415 63.2412 71.453 63.2782 71.5304C63.3183 71.6078 63.3769 71.6619 63.454 71.6929C63.5311 71.7208 63.6282 71.7347 63.7454 71.7347C63.8287 71.7347 63.9027 71.7316 63.9674 71.7254C64.0353 71.7161 64.0923 71.7068 64.1386 71.6975L64.1432 72.6821C64.0291 72.7192 63.9058 72.7486 63.7732 72.7703C63.6405 72.792 63.494 72.8028 63.3337 72.8028C63.0407 72.8028 62.7847 72.7548 62.5658 72.6588C62.3499 72.5598 62.1833 72.4019 62.0662 72.1852C61.949 71.9684 61.8904 71.6836 61.8904 71.3307V66.4453Z" fill="#3C3C3B"/>
<path fill-rule="evenodd" clip-rule="evenodd" d="M55.4892 32.4762C52.8043 36.8393 47.105 38.1905 42.7573 35.4952C39.8032 33.6627 38.2344 30.4312 38.3774 27.1799L40.2407 27.1461C40.0837 29.7851 41.3385 32.4227 43.7346 33.909C47.2088 36.0638 51.764 34.9829 53.9105 31.4966C56.0556 28.0089 54.9803 23.4361 51.5074 21.2827C49.11 19.795 46.1979 19.8499 43.9182 21.1715L43.1163 19.4839C45.9498 17.9005 49.5292 17.8625 52.4847 19.695C56.8282 22.3917 58.1755 28.1131 55.4892 32.4762Z" fill="#3C3C3B"/>
<path fill-rule="evenodd" clip-rule="evenodd" d="M50.3714 18.3955C55.4341 19.9211 58.3069 25.2793 56.7871 30.3631C55.7538 33.8184 52.9568 36.2575 49.6802 36.9852L49.1474 35.1259C51.8169 34.577 54.1078 32.6108 54.9462 29.8085C56.1618 25.7466 53.8653 21.4651 49.819 20.2448C45.7728 19.0246 41.5063 21.33 40.2921 25.3919C39.4537 28.1956 40.288 31.1034 42.2144 33.0373L40.7492 34.2941C38.4134 31.8747 37.4166 28.2927 38.4499 24.8374C39.9697 19.7536 45.3073 16.8698 50.3714 18.3955Z" fill="#3C3C3B"/>
<path fill-rule="evenodd" clip-rule="evenodd" d="M55.7621 32.6512C52.9847 37.1663 47.085 38.5653 42.5873 35.7743C39.5295 33.8785 37.9087 30.5344 38.0545 27.1692L39.9823 27.1326C39.8196 29.863 41.1194 32.5935 43.5982 34.1318C47.193 36.3613 51.908 35.2438 54.1288 31.635C56.3496 28.0263 55.2364 23.2944 51.6416 21.065C49.1614 19.5267 46.1484 19.5829 43.7888 20.9496L42.9574 19.2044C45.889 17.5661 49.5932 17.5267 52.651 19.4225C57.1488 22.2135 58.541 28.1347 55.7621 32.6512Z" fill="#3C3C3B"/>
<path fill-rule="evenodd" clip-rule="evenodd" d="M50.2789 18.7018C55.172 20.1768 57.9481 25.3549 56.4802 30.2655C55.4805 33.6054 52.7774 35.9615 49.613 36.6652L49.0985 34.8693C51.6768 34.3387 53.8906 32.4386 54.701 29.7307C55.8745 25.8053 53.6565 21.6673 49.7462 20.4893C45.836 19.3112 41.7139 21.5379 40.5404 25.4633C39.7301 28.1726 40.5362 30.9819 42.3981 32.851L40.9821 34.0657C38.7262 31.7279 37.763 28.2669 38.7613 24.927C40.2278 20.0136 45.3844 17.2282 50.2789 18.7018Z" fill="#3C3C3B"/>
<path fill-rule="evenodd" clip-rule="evenodd" d="M55.4892 32.4762C52.8043 36.8393 47.105 38.1905 42.7573 35.4952C39.8032 33.6627 38.2344 30.4312 38.3774 27.1799L40.2407 27.1461C40.0837 29.7851 41.3385 32.4227 43.7346 33.909C47.2088 36.0638 51.764 34.9829 53.9105 31.4966C56.0556 28.0089 54.9803 23.4361 51.5074 21.2827C49.11 19.795 46.1979 19.8499 43.9182 21.1715L43.1163 19.4839C45.9498 17.9005 49.5292 17.8625 52.4847 19.695C56.8282 22.3917 58.1755 28.1131 55.4892 32.4762Z" fill="#3C3C3B"/>
<path fill-rule="evenodd" clip-rule="evenodd" d="M50.3714 18.3955C55.4341 19.9211 58.3069 25.2793 56.7871 30.3631C55.7538 33.8184 52.9568 36.2575 49.6802 36.9852L49.1474 35.1259C51.8169 34.577 54.1078 32.6108 54.9462 29.8085C56.1618 25.7466 53.8653 21.4651 49.819 20.2448C45.7728 19.0246 41.5063 21.33 40.2921 25.3919C39.4537 28.1956 40.288 31.1034 42.2144 33.0373L40.7492 34.2941C38.4134 31.8747 37.4166 28.2927 38.4499 24.8374C39.9697 19.7536 45.3073 16.8698 50.3714 18.3955Z" fill="#3C3C3B"/>
<path fill-rule="evenodd" clip-rule="evenodd" d="M50.3714 18.3955C55.4341 19.9211 58.3069 25.2793 56.7871 30.3631C55.7538 33.8184 52.9568 36.2575 49.6802 36.9852L49.1474 35.1259C51.8169 34.577 54.1078 32.6108 54.9462 29.8085C56.1618 25.7466 53.8653 21.4651 49.819 20.2448C45.7728 19.0246 41.5063 21.33 40.2921 25.3919C39.4537 28.1956 40.288 31.1034 42.2144 33.0373L40.7492 34.2941C38.4134 31.8747 37.4166 28.2927 38.4499 24.8374C39.9697 19.7536 45.3073 16.8698 50.3714 18.3955Z" fill="#3C3C3B"/>
<path fill-rule="evenodd" clip-rule="evenodd" d="M54.9676 32.1542C52.4608 36.2302 47.1358 37.4913 43.0783 34.9734C40.3191 33.2619 38.8554 30.2443 38.9872 27.207L40.7271 27.1746C40.5799 29.6377 41.752 32.1021 43.991 33.4913C47.2339 35.5026 51.4891 34.4948 53.4926 31.238C55.4976 27.9825 54.4923 23.7109 51.248 21.6996C49.0089 20.3119 46.2904 20.3611 44.1607 21.5955L43.4106 20.0191C46.0576 18.5413 49.4 18.5047 52.1592 20.2161C56.2195 22.7355 57.4772 28.0796 54.9676 32.1542Z" fill="#3C3C3B"/>
<path fill-rule="evenodd" clip-rule="evenodd" d="M50.1891 19.0011C54.9182 20.4269 57.6017 25.4304 56.1814 30.1778C55.2168 33.4051 52.602 35.6823 49.5442 36.3621L49.0465 34.6267C51.5393 34.1144 53.6802 32.2777 54.4625 29.6598C55.5967 25.8653 53.4517 21.8667 49.6732 20.7281C45.8933 19.588 41.9101 21.7415 40.7759 25.536C39.9922 28.1538 40.7717 30.8702 42.5719 32.676L41.2021 33.8498C39.0219 31.5908 38.091 28.2453 39.0556 25.018C40.4759 20.2692 45.4601 17.5768 50.1891 19.0011Z" fill="#3C3C3B"/>
<path fill-rule="evenodd" clip-rule="evenodd" d="M55.2238 32.3133C52.6286 36.53 47.12 37.8361 42.9195 35.2309C40.0636 33.4604 38.5494 30.3372 38.6854 27.1944L40.4856 27.1606C40.3341 29.7109 41.5469 32.2612 43.8631 33.6982C47.2195 35.7799 51.622 34.737 53.697 31.3661C55.772 27.9952 54.7302 23.5758 51.3737 21.4942C49.0576 20.0572 46.2438 20.1092 44.0398 21.3872L43.2644 19.7559C46.0026 18.2274 49.4628 18.1894 52.3187 19.9614C56.5192 22.5652 57.8203 28.0965 55.2238 32.3133Z" fill="#3C3C3B"/>
<path fill-rule="evenodd" clip-rule="evenodd" d="M50.1039 19.2897C54.6745 20.6676 57.2654 25.5022 55.8943 30.0892C54.9619 33.2081 52.4369 35.408 49.48 36.0666L48.9991 34.3889C51.4078 33.8935 53.4758 32.1201 54.2315 29.5895C55.3279 25.9231 53.257 22.0582 49.6033 20.959C45.9524 19.8583 42.1025 21.9371 41.0061 25.6036C40.249 28.1342 41.0019 30.7577 42.7404 32.5029L41.4183 33.6373C39.3111 31.4544 38.411 28.2215 39.3447 25.1025C40.7159 20.5142 45.5332 17.9118 50.1039 19.2897Z" fill="#3C3C3B"/>
<path fill-rule="evenodd" clip-rule="evenodd" d="M54.9676 32.1542C52.4608 36.2302 47.1358 37.4913 43.0783 34.9734C40.3191 33.2619 38.8554 30.2443 38.9872 27.207L40.7271 27.1746C40.5799 29.6377 41.752 32.1021 43.991 33.4913C47.2339 35.5026 51.4891 34.4948 53.4926 31.238C55.4976 27.9825 54.4923 23.7109 51.248 21.6996C49.0089 20.3119 46.2904 20.3611 44.1607 21.5955L43.4106 20.0191C46.0576 18.5413 49.4 18.5047 52.1592 20.2161C56.2195 22.7355 57.4772 28.0796 54.9676 32.1542Z" fill="#3C3C3B"/>
<path fill-rule="evenodd" clip-rule="evenodd" d="M50.1891 19.0011C54.9182 20.4269 57.6017 25.4304 56.1814 30.1778C55.2168 33.4051 52.602 35.6823 49.5442 36.3621L49.0465 34.6267C51.5393 34.1144 53.6802 32.2777 54.4625 29.6598C55.5967 25.8653 53.4517 21.8667 49.6732 20.7281C45.8933 19.588 41.9101 21.7415 40.7759 25.536C39.9922 28.1538 40.7717 30.8702 42.5719 32.676L41.2021 33.8498C39.0219 31.5908 38.091 28.2453 39.0556 25.018C40.4759 20.2692 45.4601 17.5768 50.1891 19.0011Z" fill="#3C3C3B"/>
<path fill-rule="evenodd" clip-rule="evenodd" d="M50.1891 19.0011C54.9182 20.4269 57.6017 25.4304 56.1814 30.1778C55.2168 33.4051 52.602 35.6823 49.5442 36.3621L49.0465 34.6267C51.5393 34.1144 53.6802 32.2777 54.4625 29.6598C55.5967 25.8653 53.4517 21.8667 49.6732 20.7281C45.8933 19.588 41.9101 21.7415 40.7759 25.536C39.9922 28.1538 40.7717 30.8702 42.5719 32.676L41.2021 33.8498C39.0219 31.5908 38.091 28.2453 39.0556 25.018C40.4759 20.2692 45.4601 17.5768 50.1891 19.0011Z" fill="#3C3C3B"/>
</g>
<defs>
<clipPath id="clip0_52_359">
<rect width="80" height="80" fill="white" transform="translate(0.963867 0.495117)"/>
</clipPath>
</defs>
</svg>
