<svg width="49" height="63" viewBox="0 0 49 63" fill="none" xmlns="http://www.w3.org/2000/svg">
<g clip-path="url(#clip0_52_249)">
<path fill-rule="evenodd" clip-rule="evenodd" d="M26.2807 0.958854C27.9713 1.04352 29.6152 1.30884 31.1915 1.73501C31.0038 2.35308 31.3439 3.01066 31.962 3.21104C32.58 3.41142 33.2418 3.08123 33.4549 2.47162C35.0241 3.07418 36.5129 3.84041 37.8972 4.75059C37.5289 5.27976 37.6503 6.00931 38.1724 6.39173C38.6945 6.77415 39.4255 6.66691 39.8178 6.15608C41.0765 7.17915 42.2252 8.33062 43.2468 9.59077C42.7374 9.98165 42.6287 10.7126 43.0097 11.2361C43.3921 11.7611 44.1202 11.881 44.6494 11.5127C45.5709 12.921 46.3442 14.4338 46.9482 16.0298C46.3358 16.24 46.0028 16.9004 46.2017 17.5185C46.4007 18.1366 47.0541 18.4809 47.675 18.296C48.0912 19.8666 48.348 21.5035 48.4257 23.187C47.7822 23.2011 47.2629 23.7247 47.2601 24.3724C47.2572 25.0201 47.7723 25.5479 48.4157 25.5662C48.324 27.2793 48.046 28.9431 47.6043 30.5362C46.9863 30.3443 46.3287 30.6816 46.1227 31.2968C45.9166 31.9121 46.2426 32.5767 46.8522 32.794C46.2497 34.3335 45.4891 35.7927 44.5902 37.1516C44.0624 36.7819 43.3329 36.9004 42.9504 37.4211C42.5666 37.9433 42.671 38.6728 43.179 39.0665C42.1574 40.3154 41.0102 41.4541 39.7557 42.4673C39.3648 41.9579 38.6352 41.8493 38.1116 42.2288C37.5881 42.6084 37.4654 43.338 37.8309 43.8686C36.4705 44.7562 35.0114 45.5055 33.4733 46.0968C33.2616 45.4857 32.5969 45.157 31.9789 45.3588C31.3622 45.5606 31.0222 46.2167 31.2113 46.8362C29.628 47.2652 27.9769 47.5319 26.2793 47.618C26.2638 46.9745 25.7375 46.458 25.0898 46.458C24.442 46.458 23.9157 46.9745 23.9001 47.618C22.2096 47.5319 20.5671 47.268 18.9894 46.8419C19.1757 46.2238 18.837 45.5662 18.2189 45.3644C17.6008 45.1626 16.939 45.4942 16.726 46.1038C15.1554 45.5027 13.6681 44.735 12.2823 43.8249C12.6506 43.2957 12.5307 42.5661 12.0071 42.1851C11.4836 41.8041 10.7541 41.9099 10.3618 42.4194C9.10306 41.3963 7.9544 40.2448 6.93274 38.9847C7.44357 38.5938 7.55078 37.8628 7.16976 37.3393C6.78735 36.8157 6.05926 36.6944 5.52868 37.0627C4.60721 35.6558 3.83392 34.1431 3.23136 32.5471C3.84238 32.3382 4.1754 31.675 3.97784 31.0569C3.77887 30.4388 3.1241 30.0945 2.50461 30.2794C2.08832 28.7074 1.83152 27.0719 1.75391 25.3884C2.39739 25.3757 2.91667 24.8508 2.91949 24.203C2.92231 23.5553 2.40726 23.0276 1.76519 23.0078C1.85691 21.2961 2.13484 19.6324 2.57653 18.0378C3.19319 18.2283 3.85221 17.8924 4.05682 17.2772C4.26285 16.6619 3.93689 15.9973 3.32869 15.78C3.93124 14.2419 4.69187 12.7827 5.59076 11.4238C6.11854 11.7921 6.84666 11.675 7.23048 11.1529C7.61291 10.6322 7.50991 9.90264 7.0019 9.50752C8.02356 8.26008 9.1708 7.11987 10.4239 6.10526C10.8148 6.6161 11.5442 6.72476 12.0678 6.34376C12.5927 5.96275 12.7141 5.23459 12.3486 4.70541C13.709 3.81781 15.1694 3.06852 16.7062 2.47584C16.9178 3.08545 17.5825 3.41567 18.1992 3.21388C18.8173 3.01209 19.156 2.35446 18.9669 1.73638C20.5502 1.3074 22.2012 1.04073 23.8988 0.956055C23.9143 1.59953 24.4406 2.11742 25.0883 2.11742C25.736 2.11742 26.2652 1.60233 26.2807 0.958854ZM25.0911 7.82405C34.1845 7.82405 41.5548 15.1958 41.5548 24.2877C41.5548 33.3811 34.1831 40.7528 25.0911 40.7528C15.9992 40.7528 8.6275 33.3811 8.6275 24.2877C8.6275 15.1958 15.9978 7.82405 25.0911 7.82405Z" fill="#3C3C3B"/>
<path fill-rule="evenodd" clip-rule="evenodd" d="M25.0908 9.66309C33.1681 9.66309 39.7158 16.2107 39.7158 24.2867C39.7158 32.364 33.1681 38.9116 25.0908 38.9116C17.0149 38.9116 10.4673 32.3626 10.4673 24.2867C10.4659 16.2107 17.0135 9.66309 25.0908 9.66309ZM25.0908 11.9773C31.8896 11.9773 37.4015 17.4892 37.4015 24.2867C37.4015 31.0855 31.8896 36.5988 25.0908 36.5988C18.2934 36.5988 12.7801 31.0869 12.7801 24.2867C12.7801 17.4892 18.2919 11.9773 25.0908 11.9773Z" fill="#3C3C3B"/>
<path fill-rule="evenodd" clip-rule="evenodd" d="M31.5449 13.5264C33.8761 13.5264 35.7656 15.416 35.7656 17.7486C35.7656 20.0798 33.8761 21.9693 31.5449 21.9693C29.2137 21.9693 27.3228 20.0798 27.3228 17.7486C27.3228 15.4174 29.2137 13.5264 31.5449 13.5264ZM31.5449 14.9192C33.1056 14.9192 34.3728 16.185 34.3728 17.7471C34.3728 19.3079 33.107 20.5751 31.5449 20.5751C29.9828 20.5751 28.7156 19.3093 28.7156 17.7471C28.7156 16.1864 29.9828 14.9192 31.5449 14.9192Z" fill="#424956"/>
<path fill-rule="evenodd" clip-rule="evenodd" d="M31.5444 15.749C32.6479 15.749 33.544 16.6451 33.544 17.7486C33.544 18.8521 32.6479 19.7481 31.5444 19.7481C30.4395 19.7481 29.5435 18.8521 29.5435 17.7486C29.5435 16.6451 30.4395 15.749 31.5444 15.749Z" fill="#424956"/>
<path fill-rule="evenodd" clip-rule="evenodd" d="M25.0198 17.0186H27.9635V18.4749H25.0198V17.0186Z" fill="#424956"/>
<path fill-rule="evenodd" clip-rule="evenodd" d="M35.1245 17.0186H38.0682V18.4749H35.1245V17.0186Z" fill="#424956"/>
<path fill-rule="evenodd" clip-rule="evenodd" d="M32.2728 11.2217V14.1653H30.8179V11.2217H32.2728Z" fill="#424956"/>
<path fill-rule="evenodd" clip-rule="evenodd" d="M32.2728 21.3271V24.2708H30.8179V21.3271H32.2728Z" fill="#424956"/>
<path d="M8.75527 62.3892H7.27917L7.28849 61.2996H8.75527C9.12158 61.2996 9.43046 61.2173 9.68191 61.0528C9.93336 60.8852 10.1227 60.6415 10.25 60.3217C10.3804 60.002 10.4456 59.6155 10.4456 59.1623V58.8317C10.4456 58.484 10.4083 58.1782 10.3338 57.9143C10.2624 57.6505 10.1553 57.4285 10.0125 57.2485C9.86972 57.0684 9.69433 56.9334 9.48634 56.8433C9.27835 56.7502 9.03932 56.7036 8.76924 56.7036H7.25123V55.6094H8.76924C9.22247 55.6094 9.6369 55.687 10.0125 55.8422C10.3912 55.9943 10.7187 56.2132 10.995 56.4988C11.2713 56.7844 11.4839 57.1258 11.6329 57.5232C11.785 57.9174 11.8611 58.3567 11.8611 58.841V59.1623C11.8611 59.6434 11.785 60.0827 11.6329 60.48C11.4839 60.8774 11.2713 61.2189 10.995 61.5045C10.7218 61.787 10.3943 62.0058 10.0125 62.161C9.63379 62.3131 9.21471 62.3892 8.75527 62.3892ZM8.07077 55.6094V62.3892H6.67383V55.6094H8.07077Z" fill="#3C3C3B"/>
<path d="M14.2081 57.3506V62.3889H12.8624V57.3506H14.2081ZM12.7786 56.0375C12.7786 55.8419 12.8469 55.6805 12.9835 55.5532C13.1201 55.4259 13.3032 55.3623 13.533 55.3623C13.7596 55.3623 13.9412 55.4259 14.0778 55.5532C14.2175 55.6805 14.2873 55.8419 14.2873 56.0375C14.2873 56.233 14.2175 56.3945 14.0778 56.5217C13.9412 56.649 13.7596 56.7127 13.533 56.7127C13.3032 56.7127 13.1201 56.649 12.9835 56.5217C12.8469 56.3945 12.7786 56.233 12.7786 56.0375Z" fill="#3C3C3B"/>
<path d="M17.2136 58.4489V62.3882H15.8726V57.3499H17.1345L17.2136 58.4489ZM18.7316 57.3174L18.7084 58.5606C18.6432 58.5513 18.564 58.5436 18.4709 58.5373C18.3809 58.528 18.2986 58.5234 18.2241 58.5234C18.0347 58.5234 17.8702 58.5482 17.7305 58.5979C17.5939 58.6444 17.479 58.7143 17.3859 58.8074C17.2959 58.9006 17.2276 59.0139 17.181 59.1473C17.1376 59.2808 17.1127 59.4329 17.1065 59.6037L16.8365 59.5199C16.8365 59.1939 16.8691 58.8943 16.9342 58.6212C16.9994 58.3449 17.0941 58.1043 17.2183 57.8994C17.3456 57.6945 17.5008 57.5362 17.6839 57.4245C17.8671 57.3127 18.0766 57.2568 18.3126 57.2568C18.3871 57.2568 18.4631 57.263 18.5407 57.2754C18.6183 57.2848 18.682 57.2987 18.7316 57.3174Z" fill="#3C3C3B"/>
<path d="M21.5906 62.4814C21.1995 62.4814 20.8487 62.4193 20.5382 62.2951C20.2278 62.1678 19.9639 61.9924 19.7466 61.7689C19.5325 61.5454 19.3679 61.2862 19.2531 60.9913C19.1382 60.6933 19.0808 60.3767 19.0808 60.0414V59.8551C19.0808 59.4733 19.1351 59.1241 19.2438 58.8074C19.3524 58.4908 19.5076 58.2161 19.7094 57.9832C19.9143 57.7504 20.1626 57.5719 20.4544 57.4477C20.7462 57.3205 21.0753 57.2568 21.4416 57.2568C21.7986 57.2568 22.1152 57.3158 22.3915 57.4338C22.6678 57.5517 22.8991 57.7194 23.0853 57.9367C23.2747 58.154 23.4175 58.4147 23.5137 58.7189C23.61 59.0201 23.6581 59.3553 23.6581 59.7247V60.2835H19.6535V59.3895H22.3403V59.287C22.3403 59.1008 22.3062 58.9347 22.2379 58.7888C22.1727 58.6398 22.0733 58.5218 21.9398 58.4349C21.8064 58.348 21.6356 58.3045 21.4276 58.3045C21.2507 58.3045 21.0986 58.3433 20.9713 58.4209C20.844 58.4985 20.74 58.6072 20.6593 58.7469C20.5817 58.8866 20.5227 59.0511 20.4824 59.2405C20.4451 59.4267 20.4265 59.6316 20.4265 59.8551V60.0414C20.4265 60.2432 20.4544 60.4294 20.5103 60.6002C20.5693 60.7709 20.6516 60.9184 20.7571 61.0425C20.8658 61.1667 20.9961 61.2629 21.1482 61.3312C21.3035 61.3995 21.4789 61.4337 21.6744 61.4337C21.9166 61.4337 22.1416 61.3871 22.3496 61.294C22.5607 61.1977 22.7423 61.0534 22.8944 60.8609L23.5463 61.5687C23.4408 61.7208 23.2964 61.8667 23.1133 62.0064C22.9332 62.1461 22.7159 62.261 22.4614 62.351C22.2068 62.4379 21.9166 62.4814 21.5906 62.4814Z" fill="#3C3C3B"/>
<path d="M26.5032 61.4337C26.6677 61.4337 26.8136 61.4026 26.9409 61.3405C27.0682 61.2754 27.1675 61.1853 27.2389 61.0705C27.3134 60.9525 27.3522 60.8144 27.3553 60.656H28.6172C28.6141 61.0099 28.5194 61.325 28.3332 61.6013C28.1469 61.8745 27.897 62.0902 27.5835 62.2486C27.2699 62.4038 26.9192 62.4814 26.5311 62.4814C26.14 62.4814 25.7985 62.4162 25.5067 62.2858C25.218 62.1554 24.9774 61.9754 24.7849 61.7457C24.5925 61.5128 24.4481 61.2428 24.3519 60.9354C24.2557 60.625 24.2075 60.2928 24.2075 59.9389V59.8039C24.2075 59.4469 24.2557 59.1147 24.3519 58.8074C24.4481 58.497 24.5925 58.2269 24.7849 57.9972C24.9774 57.7644 25.218 57.5828 25.5067 57.4524C25.7954 57.322 26.1338 57.2568 26.5218 57.2568C26.9347 57.2568 27.2963 57.336 27.6068 57.4943C27.9203 57.6526 28.1655 57.8792 28.3425 58.1741C28.5225 58.4659 28.6141 58.8121 28.6172 59.2125H27.3553C27.3522 59.0449 27.3165 58.8928 27.2482 58.7562C27.183 58.6196 27.0868 58.511 26.9595 58.4302C26.8353 58.3464 26.6817 58.3045 26.4985 58.3045C26.303 58.3045 26.1431 58.3464 26.0189 58.4302C25.8947 58.511 25.7985 58.6227 25.7302 58.7655C25.6619 58.9052 25.6138 59.0651 25.5859 59.2451C25.561 59.4221 25.5486 59.6083 25.5486 59.8039V59.9389C25.5486 60.1345 25.561 60.3223 25.5859 60.5024C25.6107 60.6824 25.6573 60.8423 25.7255 60.982C25.7969 61.1217 25.8947 61.2319 26.0189 61.3126C26.1431 61.3933 26.3045 61.4337 26.5032 61.4337Z" fill="#3C3C3B"/>
<path d="M31.3817 57.3496V58.2995H28.4482V57.3496H31.3817ZM29.1746 56.1064H30.5156V60.8699C30.5156 61.0158 30.5342 61.1276 30.5715 61.2052C30.6119 61.2828 30.6708 61.3371 30.7484 61.3682C30.8261 61.3961 30.9238 61.4101 31.0418 61.4101C31.1256 61.4101 31.2001 61.407 31.2653 61.4008C31.3336 61.3914 31.391 61.3821 31.4376 61.3728L31.4423 62.36C31.3274 62.3972 31.2032 62.4267 31.0697 62.4485C30.9363 62.4702 30.7888 62.4811 30.6274 62.4811C30.3325 62.4811 30.0748 62.4329 29.8544 62.3367C29.6371 62.2374 29.4695 62.079 29.3515 61.8617C29.2335 61.6444 29.1746 61.3588 29.1746 61.005V56.1064Z" fill="#3C3C3B"/>
<path d="M33.4632 58.4164H34.1803C34.41 58.4164 34.5993 58.3776 34.7483 58.2999C34.8974 58.2192 35.0076 58.1075 35.079 57.9647C35.1535 57.8188 35.1907 57.6496 35.1907 57.4571C35.1907 57.2833 35.1566 57.1296 35.0883 56.9961C35.0231 56.8595 34.9222 56.754 34.7856 56.6795C34.649 56.6019 34.4767 56.5631 34.2687 56.5631C34.1042 56.5631 33.9521 56.5957 33.8124 56.6609C33.6727 56.7261 33.561 56.8176 33.4771 56.9356C33.3933 57.0536 33.3514 57.1964 33.3514 57.364H32.0057C32.0057 56.9915 32.105 56.6671 32.3037 56.3908C32.5055 56.1145 32.7756 55.8988 33.1139 55.7435C33.4523 55.5883 33.8248 55.5107 34.2315 55.5107C34.6909 55.5107 35.0929 55.5852 35.4375 55.7342C35.7821 55.8801 36.0506 56.0959 36.2431 56.3815C36.4355 56.6671 36.5318 57.021 36.5318 57.4432C36.5318 57.6574 36.4821 57.8653 36.3828 58.0671C36.2834 58.2658 36.1406 58.4458 35.9544 58.6073C35.7712 58.7656 35.5477 58.8929 35.2838 58.9891C35.02 59.0822 34.7235 59.1288 34.3945 59.1288H33.4632V58.4164ZM33.4632 59.4361V58.7423H34.3945C34.7639 58.7423 35.0883 58.7842 35.3677 58.868C35.647 58.9519 35.8814 59.0729 36.0708 59.2312C36.2601 59.3865 36.4029 59.5712 36.4992 59.7854C36.5954 59.9965 36.6435 60.2308 36.6435 60.4885C36.6435 60.8051 36.583 61.0876 36.4619 61.336C36.3409 61.5812 36.1701 61.7892 35.9497 61.9599C35.7324 62.1307 35.4779 62.261 35.1861 62.3511C34.8943 62.438 34.5761 62.4815 34.2315 62.4815C33.9459 62.4815 33.6649 62.4426 33.3887 62.365C33.1155 62.2843 32.8671 62.1648 32.6436 62.0065C32.4232 61.8451 32.2463 61.6433 32.1128 61.4012C31.9824 61.1559 31.9172 60.8657 31.9172 60.5304H33.2629C33.2629 60.7042 33.3064 60.8594 33.3933 60.996C33.4802 61.1326 33.5998 61.2397 33.7519 61.3173C33.9071 61.3949 34.0794 61.4337 34.2687 61.4337C34.4829 61.4337 34.6661 61.3949 34.8182 61.3173C34.9734 61.2366 35.0914 61.1249 35.1721 60.9821C35.2559 60.8362 35.2978 60.667 35.2978 60.4745C35.2978 60.2262 35.2528 60.0275 35.1628 59.8785C35.0727 59.7264 34.9439 59.6146 34.7763 59.5432C34.6087 59.4718 34.41 59.4361 34.1803 59.4361H33.4632Z" fill="#3C3C3B"/>
<path d="M39.7865 62.3882H38.3104L38.3198 61.2986H39.7865C40.1529 61.2986 40.4617 61.2163 40.7132 61.0518C40.9646 60.8842 41.154 60.6405 41.2813 60.3208C41.4116 60.001 41.4768 59.6145 41.4768 59.1613V58.8307C41.4768 58.483 41.4396 58.1772 41.3651 57.9134C41.2937 57.6495 41.1866 57.4275 41.0438 57.2475C40.901 57.0674 40.7256 56.9324 40.5176 56.8424C40.3096 56.7492 40.0706 56.7027 39.8005 56.7027H38.2825V55.6084H39.8005C40.2537 55.6084 40.6682 55.686 41.0438 55.8412C41.4225 55.9933 41.75 56.2122 42.0263 56.4978C42.3026 56.7834 42.5152 57.1249 42.6642 57.5222C42.8163 57.9165 42.8924 58.3557 42.8924 58.84V59.1613C42.8924 59.6425 42.8163 60.0817 42.6642 60.4791C42.5152 60.8764 42.3026 61.2179 42.0263 61.5035C41.7531 61.786 41.4256 62.0048 41.0438 62.1601C40.6651 62.3122 40.246 62.3882 39.7865 62.3882ZM39.102 55.6084V62.3882H37.7051V55.6084H39.102Z" fill="#3C3C3B"/>
</g>
<defs>
<clipPath id="clip0_52_249">
<rect width="48" height="63" fill="white" transform="translate(0.963867 -0.00488281)"/>
</clipPath>
</defs>
</svg>
