<svg width="81" height="81" viewBox="0 0 81 81" fill="none" xmlns="http://www.w3.org/2000/svg">
<g clip-path="url(#clip0_52_419)">
<path fill-rule="evenodd" clip-rule="evenodd" d="M21.764 0.495117H60.1638C71.6039 0.495117 80.9639 9.83082 80.9639 21.2411V59.7491C80.9639 71.1594 71.6039 80.4951 60.1638 80.4951H21.764C10.3239 80.4951 0.963867 71.1594 0.963867 59.7491V21.2411C0.963867 9.83082 10.3239 0.495117 21.764 0.495117Z" fill="white"/>
<mask id="mask0_52_419" style="mask-type:alpha" maskUnits="userSpaceOnUse" x="0" y="0" width="81" height="81">
<path fill-rule="evenodd" clip-rule="evenodd" d="M21.764 0.495117H60.1638C71.6039 0.495117 80.9639 9.83082 80.9639 21.2411V59.7491C80.9639 71.1594 71.6039 80.4951 60.1638 80.4951H21.764C10.3239 80.4951 0.963867 71.1594 0.963867 59.7491V21.2411C0.963867 9.83082 10.3239 0.495117 21.764 0.495117Z" fill="white"/>
</mask>
<g mask="url(#mask0_52_419)">
<path d="M15.6839 38.4336L-5.68971 17.0582M15.9379 38.1005L-5.68971 16.4717M15.3409 38.6707L-5.7019 17.6297" stroke="#0749CA" stroke-width="0.5669" stroke-miterlimit="22.9256"/>
<path d="M41.3497 30.457L9.97606 -0.918303M41.6037 30.124L9.97606 -1.50488M41.0067 30.6941L9.96387 -0.346882" stroke="#0749CA" stroke-width="0.5669" stroke-miterlimit="22.9256"/>
<path fill-rule="evenodd" clip-rule="evenodd" d="M10.9452 46.7705L14.7298 42.9858C14.9499 42.7177 15.2844 42.5441 15.6584 42.5441H28.5872L35.9392 35.1907C36.1311 35.0002 36.371 34.8873 36.6207 34.8534L36.6448 34.8506L36.6504 34.8492L36.6729 34.8478C36.7167 34.8436 36.7604 34.8407 36.8042 34.8407H47.0179V29.6125C47.0179 29.2456 47.1845 28.9154 47.4469 28.6952L53.2439 22.8983V20.3385C53.2439 19.6781 53.7843 19.1377 54.4447 19.1377H55.6442C56.3047 19.1377 56.8451 19.6823 56.8451 20.3385V23.8819V23.8889L56.8437 23.9129V23.9186L56.8423 23.9439V23.9482C56.8282 24.2361 56.7124 24.5197 56.4951 24.7384L50.6178 30.6158V34.8407H52.1531C52.2053 34.8407 52.2561 34.8435 52.3055 34.8492L52.3111 34.8506L52.3351 34.8534H52.3408C52.5877 34.8887 52.8276 35.0016 53.0167 35.1907L60.3701 42.5441H66.2532C66.3435 42.5441 66.431 42.554 66.5171 42.5737L66.524 42.5751H66.5255C66.7414 42.6217 66.9474 42.729 67.1153 42.8983L70.9889 46.7705C71.4545 47.2376 71.4546 48.0009 70.9875 48.468L70.1408 49.3161C69.6737 49.7818 68.9089 49.7818 68.4432 49.3161L65.271 46.1439H59.3753C59.0563 46.1439 58.7657 46.0169 58.5512 45.8137L58.5483 45.8123L58.5271 45.7925V45.7911L58.5046 45.77L51.1737 38.4391H37.7849L30.4541 45.77C30.3652 45.8589 30.2635 45.9322 30.1577 45.9873C29.9827 46.086 29.7824 46.1425 29.5679 46.1425H16.6659L13.4937 49.3147C13.028 49.7804 12.2632 49.7804 11.7961 49.3147L10.9494 48.4666C10.4795 48.001 10.4795 47.2376 10.9452 46.7705Z" fill="#3C3C3B"/>
<path fill-rule="evenodd" clip-rule="evenodd" d="M15.5317 36.2432C16.6422 36.2432 17.5425 37.1436 17.5425 38.2541C17.5425 39.3647 16.6422 40.265 15.5317 40.265C14.4211 40.265 13.5208 39.3647 13.5208 38.2541C13.5208 37.145 14.4211 36.2432 15.5317 36.2432Z" fill="#0749CA"/>
<path fill-rule="evenodd" clip-rule="evenodd" d="M41.1973 28.2666C42.3079 28.2666 43.2082 29.1669 43.2082 30.2775C43.2082 31.388 42.3079 32.2883 41.1973 32.2883C40.0868 32.2883 39.1865 31.388 39.1865 30.2775C39.1865 29.1683 40.0868 28.2666 41.1973 28.2666Z" fill="#0749CA"/>
<path d="M14.6921 72.4946V65.75H16.0651V71.3488H19.4792V72.4946H14.6921ZM21.4274 69.0713L20.2446 68.8579C20.3775 68.3816 20.6064 68.0291 20.9311 67.8003C21.2558 67.5714 21.7382 67.457 22.3784 67.457C22.9597 67.457 23.3927 67.5266 23.6772 67.6657C23.9617 67.8018 24.1611 67.9765 24.2756 68.1899C24.3931 68.4002 24.4518 68.7883 24.4518 69.3542L24.4379 70.8757C24.4379 71.3086 24.458 71.6287 24.4982 71.8359C24.5415 72.04 24.6204 72.2596 24.7348 72.4946H23.4452C23.4112 72.408 23.3695 72.2797 23.32 72.1096C23.2984 72.0323 23.2829 71.9813 23.2736 71.9565C23.051 72.173 22.8128 72.3353 22.5593 72.4436C22.3057 72.5518 22.0351 72.6059 21.7475 72.6059C21.2403 72.6059 20.8399 72.4683 20.5461 72.1931C20.2554 71.9179 20.11 71.57 20.11 71.1494C20.11 70.8711 20.1765 70.6237 20.3095 70.4072C20.4425 70.1876 20.628 70.0206 20.8661 69.9062C21.1074 69.7887 21.4537 69.6867 21.9052 69.6001C22.5144 69.4856 22.9365 69.379 23.1716 69.28V69.1501C23.1716 68.8996 23.1097 68.7218 22.986 68.6167C22.8623 68.5084 22.6288 68.4543 22.2856 68.4543C22.0536 68.4543 21.8727 68.5007 21.7429 68.5935C21.613 68.6832 21.5078 68.8424 21.4274 69.0713ZM23.1716 70.1289C23.0046 70.1845 22.7402 70.251 22.3784 70.3283C22.0165 70.4057 21.78 70.4814 21.6686 70.5556C21.4985 70.6762 21.4135 70.8293 21.4135 71.0149C21.4135 71.1973 21.4815 71.355 21.6176 71.488C21.7537 71.621 21.9269 71.6875 22.1371 71.6875C22.3722 71.6875 22.5964 71.6102 22.8097 71.4555C22.9675 71.338 23.0711 71.1942 23.1205 71.0241C23.1546 70.9128 23.1716 70.701 23.1716 70.3886V70.1289ZM25.2822 71.0891L26.5903 70.8896C26.6459 71.1432 26.7588 71.3365 26.9289 71.4695C27.099 71.5993 27.3371 71.6643 27.6432 71.6643C27.9803 71.6643 28.2339 71.6024 28.404 71.4787C28.5184 71.3921 28.5756 71.2762 28.5756 71.1308C28.5756 71.0319 28.5447 70.9499 28.4828 70.885C28.4179 70.8231 28.2726 70.7659 28.0468 70.7134C26.9954 70.4814 26.329 70.2696 26.0475 70.0779C25.6579 69.8119 25.4631 69.4424 25.4631 68.9692C25.4631 68.5425 25.6316 68.1837 25.9687 67.893C26.3058 67.6023 26.8284 67.457 27.5366 67.457C28.2107 67.457 28.7117 67.5668 29.0395 67.7863C29.3673 68.0059 29.593 68.3306 29.7167 68.7605L28.4875 68.9878C28.4349 68.796 28.3344 68.6491 28.186 68.5471C28.0406 68.445 27.8319 68.394 27.5597 68.394C27.2165 68.394 26.9706 68.4419 26.8222 68.5378C26.7232 68.6058 26.6738 68.694 26.6738 68.8022C26.6738 68.895 26.7171 68.9738 26.8036 69.0388C26.9212 69.1254 27.3263 69.2475 28.019 69.4052C28.7148 69.563 29.2003 69.7562 29.4755 69.9851C29.7477 70.217 29.8837 70.5402 29.8837 70.9546C29.8837 71.4061 29.6951 71.7942 29.3178 72.1189C28.9405 72.4436 28.3823 72.6059 27.6432 72.6059C26.9722 72.6059 26.4403 72.4699 26.0475 72.1977C25.6579 71.9256 25.4028 71.556 25.2822 71.0891ZM33.8823 70.9267L35.1811 71.1447C35.0141 71.621 34.7497 71.9843 34.3879 72.2348C34.0291 72.4822 33.5792 72.6059 33.038 72.6059C32.1814 72.6059 31.5475 72.3261 31.1362 71.7663C30.8115 71.3179 30.6491 70.752 30.6491 70.0686C30.6491 69.2522 30.8625 68.6136 31.2892 68.1528C31.716 67.6889 32.2556 67.457 32.9081 67.457C33.641 67.457 34.2193 67.6998 34.643 68.1853C35.0667 68.6677 35.2692 69.4083 35.2507 70.4072H31.985C31.9943 70.7938 32.0995 71.0953 32.3005 71.3117C32.5015 71.5251 32.752 71.6318 33.0519 71.6318C33.256 71.6318 33.4277 71.5761 33.5668 71.4648C33.706 71.3535 33.8111 71.1741 33.8823 70.9267ZM33.9565 69.6093C33.9472 69.2321 33.8498 68.946 33.6642 68.7512C33.4787 68.5533 33.2529 68.4543 32.987 68.4543C32.7025 68.4543 32.4675 68.5579 32.2819 68.7651C32.0964 68.9723 32.0051 69.2537 32.0082 69.6093H33.9565ZM37.5654 72.4946H36.2619V67.5683H37.4726V68.2688C37.6798 67.9379 37.8653 67.7199 38.0292 67.6147C38.1962 67.5096 38.3849 67.457 38.5951 67.457C38.892 67.457 39.1781 67.539 39.4533 67.7029L39.0497 68.8393C38.8302 68.6971 38.6261 68.6259 38.4374 68.6259C38.255 68.6259 38.1004 68.677 37.9736 68.779C37.8468 68.878 37.7463 69.0589 37.6721 69.3217C37.6009 69.5846 37.5654 70.1351 37.5654 70.9731V72.4946ZM41.7634 72.4946L39.3327 65.6943H40.8217L42.5427 70.7273L44.2079 65.6943H45.6645L43.2292 72.4946H41.7634ZM46.1794 66.9004V65.6943H47.4828V66.9004H46.1794ZM46.1794 72.4946V67.5683H47.4828V72.4946H46.1794ZM48.3642 71.0891L49.6723 70.8896C49.728 71.1432 49.8408 71.3365 50.0109 71.4695C50.181 71.5993 50.4191 71.6643 50.7253 71.6643C51.0624 71.6643 51.3159 71.6024 51.486 71.4787C51.6004 71.3921 51.6576 71.2762 51.6576 71.1308C51.6576 71.0319 51.6267 70.9499 51.5649 70.885C51.4999 70.8231 51.3546 70.7659 51.1288 70.7134C50.0774 70.4814 49.411 70.2696 49.1296 70.0779C48.7399 69.8119 48.5451 69.4424 48.5451 68.9692C48.5451 68.5425 48.7136 68.1837 49.0507 67.893C49.3878 67.6023 49.9104 67.457 50.6186 67.457C51.2927 67.457 51.7937 67.5668 52.1215 67.7863C52.4493 68.0059 52.6751 68.3306 52.7988 68.7605L51.5695 68.9878C51.5169 68.796 51.4164 68.6491 51.268 68.5471C51.1227 68.445 50.9139 68.394 50.6418 68.394C50.2985 68.394 50.0527 68.4419 49.9042 68.5378C49.8053 68.6058 49.7558 68.694 49.7558 68.8022C49.7558 68.895 49.7991 68.9738 49.8857 69.0388C50.0032 69.1254 50.4083 69.2475 51.101 69.4052C51.7968 69.563 52.2823 69.7562 52.5576 69.9851C52.8297 70.217 52.9658 70.5402 52.9658 70.9546C52.9658 71.4061 52.7771 71.7942 52.3998 72.1189C52.0226 72.4436 51.4644 72.6059 50.7253 72.6059C50.0542 72.6059 49.5223 72.4699 49.1296 72.1977C48.7399 71.9256 48.4848 71.556 48.3642 71.0891ZM54.1115 66.9004V65.6943H55.415V66.9004H54.1115ZM54.1115 72.4946V67.5683H55.415V72.4946H54.1115ZM56.454 69.9619C56.454 69.5289 56.5607 69.1099 56.7741 68.7048C56.9875 68.2997 57.289 67.9904 57.6786 67.7771C58.0714 67.5637 58.509 67.457 58.9914 67.457C59.7367 67.457 60.3474 67.6998 60.8237 68.1853C61.2999 68.6677 61.538 69.2785 61.538 70.0175C61.538 70.7628 61.2968 71.3813 60.8144 71.873C60.3351 72.3616 59.7305 72.6059 59.0007 72.6059C58.5492 72.6059 58.1178 72.5039 57.7065 72.2998C57.2983 72.0957 56.9875 71.7973 56.7741 71.4045C56.5607 71.0087 56.454 70.5278 56.454 69.9619ZM57.79 70.0315C57.79 70.5201 57.9059 70.8943 58.1379 71.154C58.3698 71.4138 58.6559 71.5437 58.996 71.5437C59.3362 71.5437 59.6207 71.4138 59.8495 71.154C60.0815 70.8943 60.1974 70.517 60.1974 70.0222C60.1974 69.5398 60.0815 69.1687 59.8495 68.9089C59.6207 68.6491 59.3362 68.5193 58.996 68.5193C58.6559 68.5193 58.3698 68.6491 58.1379 68.9089C57.9059 69.1687 57.79 69.5429 57.79 70.0315ZM67.0441 72.4946H65.7407V69.9804C65.7407 69.4485 65.7128 69.1053 65.6572 68.9507C65.6015 68.7929 65.5103 68.6708 65.3835 68.5842C65.2598 68.4976 65.1098 68.4543 64.9335 68.4543C64.7078 68.4543 64.5052 68.5162 64.3259 68.6399C64.1465 68.7636 64.0228 68.9275 63.9548 69.1316C63.8898 69.3357 63.8574 69.7129 63.8574 70.2634V72.4946H62.5539V67.5683H63.7646V68.292C64.1944 67.7353 64.7356 67.457 65.3881 67.457C65.6757 67.457 65.9386 67.5096 66.1767 67.6147C66.4148 67.7168 66.5942 67.8482 66.7148 68.009C66.8385 68.1698 66.9235 68.3523 66.9699 68.5564C67.0194 68.7605 67.0441 69.0527 67.0441 69.4331V72.4946Z" fill="#3C3C3B"/>
<path d="M0.463867 18.9951L21.9639 39.9951" stroke="#0749CA" stroke-width="0.5"/>
<path d="M0.963867 14.9951L25.9639 39.9951" stroke="#0749CA" stroke-width="0.5"/>
<path d="M1.46387 11.4951L27.9639 37.9951" stroke="#0749CA" stroke-width="0.5"/>
<path d="M3.46387 9.49512L29.9639 35.9951" stroke="#0749CA" stroke-width="0.5"/>
<path d="M6.46387 8.49512L31.9639 33.9951" stroke="#0749CA" stroke-width="0.5"/>
<path d="M5.96387 3.99512L33.9639 31.9951" stroke="#0749CA" stroke-width="0.5"/>
<path d="M9.96387 3.99512L37.9639 31.9951" stroke="#0749CA" stroke-width="0.5"/>
</g>
</g>
<defs>
<clipPath id="clip0_52_419">
<rect width="80" height="80" fill="white" transform="translate(0.963867 0.495117)"/>
</clipPath>
</defs>
</svg>
