<svg width="81" height="81" viewBox="0 0 81 81" fill="none" xmlns="http://www.w3.org/2000/svg">
<path fill-rule="evenodd" clip-rule="evenodd" d="M10.1118 73.5623H11.5526V71.2636C11.6866 71.2833 11.8574 71.2932 12.0493 71.2932C12.9072 71.2932 13.641 71.0844 14.1363 70.6173C14.5187 70.2546 14.7276 69.7198 14.7276 69.0919C14.7276 68.4625 14.451 67.9277 14.0418 67.6031C13.6128 67.2602 12.9736 67.0895 12.0775 67.0895C11.1914 67.0895 10.5605 67.1459 10.1132 67.2221V73.5623H10.1118ZM11.5511 68.241C11.6555 68.2114 11.856 68.1831 12.1523 68.1831C12.8776 68.1831 13.2868 68.5359 13.2868 69.1272C13.2868 69.7861 12.8099 70.1756 12.038 70.1756C11.8277 70.1756 11.6753 70.1657 11.5511 70.1389V68.241ZM50.0363 72.2457C49.7513 72.36 49.2644 72.4546 48.827 72.4546C47.5302 72.4546 46.7668 71.6446 46.7668 70.3577C46.7668 68.9268 47.6628 68.2311 48.8171 68.2311C49.3307 68.2311 49.7414 68.3454 50.0363 68.4696L50.3327 67.3167C50.0744 67.1827 49.5029 67.0303 48.7494 67.0303C46.8049 67.0303 45.2414 68.2508 45.2414 70.4437C45.2414 72.2753 46.3858 73.6568 48.6069 73.6568C49.39 73.6568 49.9898 73.5129 50.2565 73.3816L50.0363 72.2457Z" fill="#3C3C3B"/>
<path fill-rule="evenodd" clip-rule="evenodd" d="M15.6039 73.5625H17.0532V70.8743C17.0532 70.7403 17.0729 70.5977 17.111 70.5116C17.2055 70.2449 17.444 69.967 17.8448 69.967C18.3697 69.967 18.58 70.3776 18.58 70.9788V73.5625H20.0291V70.7967C20.0291 69.4237 19.3137 68.7943 18.3598 68.7943C17.5879 68.7943 17.111 69.2416 16.9205 69.538H16.8908L16.8245 68.8988H15.5659C15.5856 69.3094 15.6039 69.8061 15.6039 70.3875V73.5625ZM25.311 71.6927C25.3307 71.5869 25.359 71.3682 25.359 71.1212C25.359 69.967 24.786 68.7943 23.2804 68.7943C21.659 68.7943 20.9252 70.101 20.9252 71.2835C20.9252 72.7426 21.8312 73.6584 23.4145 73.6584C24.0438 73.6584 24.6252 73.5639 25.1021 73.3734L24.9116 72.3912C24.5207 72.5154 24.12 72.5818 23.6247 72.5818C22.9474 72.5818 22.3561 72.2953 22.3082 71.6956H25.311V71.6927ZM22.2982 70.7007C22.3363 70.3099 22.5847 69.7567 23.1943 69.7567C23.8618 69.7567 24.0142 70.348 24.0142 70.7007H22.2982ZM30.6224 68.8988H29.1633V71.6744C29.1633 71.7887 29.1534 71.903 29.1153 71.9891C29.0193 72.2177 28.7908 72.4942 28.39 72.4942C27.8848 72.4942 27.6647 72.0836 27.6647 71.4063V68.8988H26.2056V71.6349C26.2056 73.0757 26.9027 73.6655 27.8467 73.6655C28.6863 73.6655 29.1238 73.1885 29.3058 72.9035H29.3354L29.4018 73.5611H30.6605C30.6408 73.1702 30.6224 72.6735 30.6224 72.0624V68.8988ZM31.7865 73.5625H33.1977V70.8447C33.1977 70.7304 33.2076 70.5963 33.2555 70.482C33.3416 70.2435 33.5603 69.9571 33.9328 69.9571C34.39 69.9571 34.6003 70.3578 34.6003 70.9491V73.5625H36.0114V70.8348C36.0114 70.7205 36.0297 70.5681 36.0678 70.4622C36.1638 70.1857 36.4023 69.9571 36.7353 69.9571C37.2024 69.9571 37.4225 70.348 37.4225 71.0253V73.5625H38.8336V70.8164C38.8336 69.4251 38.1562 68.7943 37.2602 68.7943C36.9159 68.7943 36.6308 68.8705 36.374 69.0229C36.1539 69.157 35.9437 69.3461 35.7729 69.5846H35.7531C35.5528 69.0991 35.0758 68.7929 34.4761 68.7929C33.6746 68.7929 33.2654 69.2318 33.065 69.5281H33.0368L32.9704 68.8988H31.7499C31.7696 69.3094 31.7879 69.8061 31.7879 70.3875V73.5625H31.7865ZM42.2076 68.7943C40.7104 68.7943 39.7198 69.7581 39.7198 71.2638C39.7198 72.7694 40.7682 73.6669 42.1314 73.6669C43.3816 73.6669 44.5909 72.8851 44.5909 71.1777C44.5909 69.7765 43.6385 68.7943 42.2076 68.7943ZM42.1709 69.8231C42.8285 69.8231 43.0951 70.5286 43.0951 71.2257C43.0951 72.0639 42.7325 72.6269 42.1709 72.6269C41.5514 72.6269 41.217 72.0258 41.217 71.2257C41.2155 70.5385 41.4738 69.8231 42.1709 69.8231ZM51.1625 73.5625H52.6117V66.792H51.1625V73.5625ZM57.7411 73.5625C57.6945 73.3042 57.6748 72.8767 57.6748 72.4279V70.8066C57.6748 69.7102 57.178 68.7943 55.6244 68.7943C54.7749 68.7943 54.1371 69.0229 53.8139 69.205L54.0792 70.1391C54.3854 69.9472 54.8892 69.7864 55.3662 69.7864C56.0816 69.7864 56.2157 70.1391 56.2157 70.3875V70.4538C54.5661 70.4439 53.4795 71.0253 53.4795 72.2375C53.4795 72.9811 54.0425 73.6683 54.9866 73.6683C55.5397 73.6683 56.0153 73.4679 56.3201 73.0968H56.3497L56.4358 73.5639H57.7411V73.5625ZM56.2636 71.8649C56.2636 71.9524 56.2538 72.0371 56.234 72.1133C56.1395 72.4096 55.8446 72.6466 55.4805 72.6466C55.1574 72.6466 54.909 72.466 54.909 72.0935C54.909 71.5319 55.5002 71.3498 56.2636 71.3583V71.8649ZM58.8178 73.5625H60.2289V70.8447C60.2289 70.7304 60.2402 70.5963 60.2867 70.482C60.3728 70.2435 60.593 69.9571 60.9627 69.9571C61.4213 69.9571 61.6315 70.3578 61.6315 70.9491V73.5625H63.0426V70.8348C63.0426 70.7205 63.0623 70.5681 63.1004 70.4622C63.195 70.1857 63.4335 69.9571 63.7679 69.9571C64.235 69.9571 64.4537 70.348 64.4537 71.0253V73.5625H65.8649V70.8164C65.8649 69.4251 65.1889 68.7943 64.2914 68.7943C63.9485 68.7943 63.6635 68.8705 63.4052 69.0229C63.1865 69.157 62.9749 69.3461 62.8042 69.5846H62.7843C62.584 69.0991 62.1085 68.7929 61.5073 68.7929C60.7058 68.7929 60.2966 69.2318 60.0962 69.5281H60.0666L59.9988 68.8988H58.7796C58.7979 69.3094 58.8163 69.8061 58.8163 70.3875V73.5625H58.8178ZM67.0191 75.4505H68.4683V73.1335H68.488C68.6969 73.4383 69.1358 73.6669 69.6988 73.6669C70.7374 73.6669 71.8155 72.8668 71.8155 71.1678C71.8155 69.6805 70.9011 68.7929 69.8794 68.7929C69.2035 68.7929 68.6687 69.0512 68.3244 69.5465H68.3046L68.2383 68.8974H66.9796C66.9979 69.3277 67.0163 69.8513 67.0163 70.4609V75.4505H67.0191ZM68.4683 70.9209C68.4683 70.8348 68.4782 70.7403 68.4979 70.6627C68.5925 70.2337 68.9552 69.9289 69.3644 69.9289C70.0135 69.9289 70.3465 70.4905 70.3465 71.2342C70.3465 72.0272 69.974 72.5521 69.346 72.5521C68.9255 72.5521 68.5925 72.2558 68.4966 71.8649C68.4768 71.7788 68.4669 71.6744 68.4669 71.5601V70.9209H68.4683Z" fill="#3C3C3B"/>
<path fill-rule="evenodd" clip-rule="evenodd" d="M30.2039 39.8385H63.801V34.3662H30.2039V39.8385Z" fill="#3C3C3B"/>
<path fill-rule="evenodd" clip-rule="evenodd" d="M40.2212 28.7295H48.1361C48.7894 28.7295 49.3242 29.2629 49.3242 29.9162V31.5587H50.4362C50.7551 31.5587 51.0162 31.8184 51.0162 32.1345V34.2314H63.1207V34.213C63.1207 33.9759 63.3168 33.7812 63.5567 33.7812H65.847C66.0854 33.7812 66.2816 33.9745 66.2816 34.213V39.9943C66.2816 40.2314 66.0854 40.4247 65.847 40.4247H63.5567C63.3168 40.4247 63.1207 40.2314 63.1207 39.9943V39.9746H51.0162V42.0701C51.0162 42.3876 50.7537 42.6472 50.4362 42.6472H49.3242V44.2869C49.3242 44.9403 48.7894 45.4751 48.1361 45.4751H40.2212C40.2127 45.8744 39.8839 46.199 39.4818 46.199H38.5307C38.1243 46.199 37.7913 45.8659 37.7913 45.4595V28.7464C37.7913 28.34 38.1243 28.0069 38.5307 28.0069H39.4818C39.8839 28.0041 40.2127 28.3273 40.2212 28.7295Z" fill="#6E6E6E"/>
<path d="M23.691 25.3701H29.8971V48.8312H23.691C21.5094 48.8312 19.7244 47.3989 19.7244 45.6477V28.5535C19.7244 26.8023 21.5094 25.3701 23.691 25.3701Z" stroke="#3C3C3B" stroke-width="2.3998" stroke-miterlimit="22.9256"/>
<path d="M30.3074 51.7958C30.3074 42.0013 30.3074 32.2012 30.3074 22.4053" stroke="#3C3C3B" stroke-width="1.9199" stroke-miterlimit="22.9256"/>
</svg>
