<svg width="58" height="63" viewBox="0 0 58 63" fill="none" xmlns="http://www.w3.org/2000/svg">
<g clip-path="url(#clip0_52_280)">
<path d="M6.84 56.6807V59.3675C6.73446 59.4947 6.57148 59.6329 6.35107 59.7819C6.13067 59.9278 5.84662 60.0535 5.49894 60.1591C5.15126 60.2646 4.73063 60.3174 4.23704 60.3174C3.79933 60.3174 3.40043 60.246 3.04033 60.1032C2.68023 59.9573 2.3698 59.7446 2.10904 59.4653C1.85138 59.1859 1.6527 58.8444 1.51301 58.4408C1.37331 58.0342 1.30347 57.5701 1.30347 57.0486V56.6248C1.30347 56.1033 1.37021 55.6392 1.5037 55.2325C1.64029 54.8259 1.8343 54.4828 2.08575 54.2035C2.3372 53.9241 2.63677 53.7114 2.98445 53.5655C3.33213 53.4196 3.71862 53.3467 4.14391 53.3467C4.73373 53.3467 5.218 53.4429 5.59673 53.6354C5.97545 53.8247 6.26415 54.0886 6.46283 54.427C6.66461 54.7622 6.78878 55.1472 6.83535 55.5818H5.48032C5.44617 55.352 5.38098 55.1518 5.28474 54.9811C5.18851 54.8103 5.05037 54.6769 4.87032 54.5806C4.69337 54.4844 4.46366 54.4363 4.18116 54.4363C3.94834 54.4363 3.74035 54.4844 3.5572 54.5806C3.37715 54.6738 3.22504 54.8119 3.10086 54.9951C2.97669 55.1782 2.88201 55.4048 2.81682 55.6749C2.75163 55.945 2.71903 56.2585 2.71903 56.6155V57.0486C2.71903 57.4024 2.75318 57.716 2.82147 57.9892C2.88977 58.2592 2.99066 58.4874 3.12415 58.6737C3.26073 58.8568 3.42837 58.995 3.62704 59.0881C3.82572 59.1812 4.05699 59.2278 4.32086 59.2278C4.54126 59.2278 4.72442 59.2091 4.87032 59.1719C5.01933 59.1346 5.13884 59.0896 5.22887 59.0369C5.322 58.981 5.3934 58.9282 5.44306 58.8785V57.6772H4.16719V56.6807H6.84Z" fill="#3C3C3B"/>
<path d="M9.22387 56.2849V60.2243H7.88281V55.186H9.14471L9.22387 56.2849ZM10.7419 55.1534L10.7186 56.3966C10.6535 56.3873 10.5743 56.3796 10.4812 56.3734C10.3911 56.3641 10.3088 56.3594 10.2343 56.3594C10.045 56.3594 9.88044 56.3842 9.74074 56.4339C9.60415 56.4805 9.48929 56.5503 9.39616 56.6434C9.30614 56.7366 9.23784 56.8499 9.19128 56.9834C9.14782 57.1168 9.12298 57.269 9.11678 57.4397L8.8467 57.3559C8.8467 57.0299 8.8793 56.7304 8.94449 56.4572C9.00968 56.1809 9.10436 55.9403 9.22853 55.7354C9.35581 55.5305 9.51102 55.3722 9.69418 55.2605C9.87733 55.1487 10.0869 55.0928 10.3228 55.0928C10.3973 55.0928 10.4734 55.099 10.551 55.1115C10.6286 55.1208 10.6923 55.1347 10.7419 55.1534Z" fill="#3C3C3B"/>
<path d="M13.778 60.3174C13.3868 60.3174 13.036 60.2553 12.7256 60.1311C12.4152 60.0038 12.1513 59.8284 11.934 59.6049C11.7198 59.3814 11.5553 59.1222 11.4404 58.8273C11.3256 58.5293 11.2681 58.2126 11.2681 57.8774V57.6911C11.2681 57.3093 11.3224 56.96 11.4311 56.6434C11.5397 56.3268 11.695 56.052 11.8967 55.8192C12.1016 55.5864 12.35 55.4079 12.6418 55.2837C12.9336 55.1564 13.2626 55.0928 13.6289 55.0928C13.9859 55.0928 14.3026 55.1518 14.5789 55.2698C14.8552 55.3877 15.0864 55.5553 15.2727 55.7727C15.462 55.99 15.6048 56.2507 15.7011 56.5549C15.7973 56.8561 15.8454 57.1913 15.8454 57.5607V58.1195H11.8409V57.2255H14.5276V57.123C14.5276 56.9368 14.4935 56.7707 14.4252 56.6248C14.36 56.4758 14.2607 56.3578 14.1272 56.2709C13.9937 56.184 13.823 56.1405 13.615 56.1405C13.438 56.1405 13.2859 56.1793 13.1586 56.2569C13.0314 56.3345 12.9274 56.4432 12.8467 56.5829C12.7691 56.7226 12.7101 56.8871 12.6697 57.0765C12.6325 57.2627 12.6138 57.4676 12.6138 57.6911V57.8774C12.6138 58.0792 12.6418 58.2654 12.6977 58.4361C12.7566 58.6069 12.8389 58.7543 12.9444 58.8785C13.0531 59.0027 13.1835 59.0989 13.3356 59.1672C13.4908 59.2355 13.6662 59.2697 13.8618 59.2697C14.1039 59.2697 14.329 59.2231 14.537 59.13C14.7481 59.0337 14.9297 58.8894 15.0818 58.6969L15.7337 59.4047C15.6281 59.5568 15.4838 59.7027 15.3006 59.8424C15.1206 59.9821 14.9033 60.097 14.6487 60.187C14.3942 60.2739 14.1039 60.3174 13.778 60.3174Z" fill="#3C3C3B"/>
<path d="M18.928 60.3174C18.5369 60.3174 18.1861 60.2553 17.8756 60.1311C17.5652 60.0038 17.3013 59.8284 17.084 59.6049C16.8698 59.3814 16.7053 59.1222 16.5905 58.8273C16.4756 58.5293 16.4182 58.2126 16.4182 57.8774V57.6911C16.4182 57.3093 16.4725 56.96 16.5811 56.6434C16.6898 56.3268 16.845 56.052 17.0468 55.8192C17.2517 55.5864 17.5 55.4079 17.7918 55.2837C18.0836 55.1564 18.4127 55.0928 18.779 55.0928C19.136 55.0928 19.4526 55.1518 19.7289 55.2698C20.0052 55.3877 20.2365 55.5553 20.4227 55.7727C20.6121 55.99 20.7549 56.2507 20.8511 56.5549C20.9474 56.8561 20.9955 57.1913 20.9955 57.5607V58.1195H16.9909V57.2255H19.6777V57.123C19.6777 56.9368 19.6435 56.7707 19.5753 56.6248C19.5101 56.4758 19.4107 56.3578 19.2772 56.2709C19.1438 56.184 18.973 56.1405 18.765 56.1405C18.5881 56.1405 18.436 56.1793 18.3087 56.2569C18.1814 56.3345 18.0774 56.4432 17.9967 56.5829C17.9191 56.7226 17.8601 56.8871 17.8198 57.0765C17.7825 57.2627 17.7639 57.4676 17.7639 57.6911V57.8774C17.7639 58.0792 17.7918 58.2654 17.8477 58.4361C17.9067 58.6069 17.989 58.7543 18.0945 58.8785C18.2031 59.0027 18.3335 59.0989 18.4856 59.1672C18.6409 59.2355 18.8163 59.2697 19.0118 59.2697C19.254 59.2697 19.479 59.2231 19.687 59.13C19.8981 59.0337 20.0797 58.8894 20.2318 58.6969L20.8837 59.4047C20.7782 59.5568 20.6338 59.7027 20.4507 59.8424C20.2706 59.9821 20.0533 60.097 19.7988 60.187C19.5442 60.2739 19.254 60.3174 18.928 60.3174Z" fill="#3C3C3B"/>
<path d="M23.0723 56.2616V60.2242H21.7312V55.1859H22.9884L23.0723 56.2616ZM22.8767 57.5281H22.5135C22.5135 57.1556 22.5616 56.8204 22.6578 56.5223C22.7541 56.2212 22.8891 55.9651 23.0629 55.754C23.2368 55.5398 23.4432 55.3769 23.6823 55.2651C23.9244 55.1502 24.1945 55.0928 24.4925 55.0928C24.7284 55.0928 24.9442 55.127 25.1397 55.1952C25.3353 55.2635 25.5029 55.3722 25.6426 55.5212C25.7854 55.6702 25.8941 55.8673 25.9686 56.1126C26.0462 56.3578 26.085 56.6574 26.085 57.0113V60.2242H24.7346V57.0066C24.7346 56.7831 24.7036 56.6093 24.6415 56.4851C24.5794 56.3609 24.4878 56.274 24.3668 56.2243C24.2488 56.1716 24.1029 56.1452 23.929 56.1452C23.749 56.1452 23.5922 56.1809 23.4587 56.2523C23.3284 56.3237 23.2197 56.423 23.1328 56.5503C23.049 56.6745 22.9853 56.8204 22.9419 56.988C22.8984 57.1556 22.8767 57.3357 22.8767 57.5281Z" fill="#3C3C3B"/>
<path d="M28.8231 59.1485L30.1735 53.4443H30.9278L31.1001 54.3942L29.6613 60.2241H28.851L28.8231 59.1485ZM28.1293 53.4443L29.2468 59.1485L29.1537 60.2241H28.2503L26.7463 53.4443H28.1293ZM32.2875 59.1252L33.3911 53.4443H34.7741L33.2747 60.2241H32.3713L32.2875 59.1252ZM31.3516 53.4443L32.7112 59.1718L32.674 60.2241H31.8638L30.4156 54.3896L30.6019 53.4443H31.3516Z" fill="#3C3C3B"/>
<path d="M37.5025 60.3184C37.1114 60.3184 36.7606 60.2562 36.4502 60.132C36.1397 60.0048 35.8759 59.8295 35.6586 59.6059C35.4444 59.3824 35.2798 59.1232 35.165 58.8283C35.0501 58.5303 34.9927 58.2136 34.9927 57.8783V57.6921C34.9927 57.3103 35.047 56.9611 35.1557 56.6444C35.2643 56.3278 35.4195 56.0531 35.6213 55.8202C35.8262 55.5874 36.0745 55.4089 36.3663 55.2847C36.6581 55.1575 36.9872 55.0938 37.3535 55.0938C37.7105 55.0938 38.0271 55.1528 38.3034 55.2708C38.5797 55.3887 38.811 55.5564 38.9972 55.7737C39.1866 55.991 39.3294 56.2517 39.4256 56.556C39.5219 56.8571 39.57 57.1923 39.57 57.5618V58.1205H35.5654V57.2265H38.2522V57.1241C38.2522 56.9378 38.2181 56.7717 38.1498 56.6258C38.0846 56.4768 37.9852 56.3588 37.8518 56.2719C37.7183 56.185 37.5475 56.1415 37.3395 56.1415C37.1626 56.1415 37.0105 56.1803 36.8832 56.2579C36.7559 56.3356 36.6519 56.4442 36.5712 56.5839C36.4936 56.7236 36.4346 56.888 36.3943 57.0774C36.357 57.2636 36.3384 57.4686 36.3384 57.6921V57.8783C36.3384 58.0801 36.3663 58.2664 36.4222 58.4372C36.4812 58.6079 36.5635 58.7554 36.669 58.8795C36.7777 59.0037 36.908 59.0999 37.0602 59.1682C37.2154 59.2365 37.3908 59.2707 37.5863 59.2707C37.8285 59.2707 38.0535 59.2241 38.2615 59.131C38.4726 59.0348 38.6542 58.8903 38.8063 58.6978L39.4582 59.4057C39.3527 59.5578 39.2083 59.7036 39.0252 59.8433C38.8451 59.983 38.6278 60.0979 38.3733 60.188C38.1187 60.2749 37.8285 60.3184 37.5025 60.3184Z" fill="#3C3C3B"/>
<path d="M41.7491 55.1876V60.2259H40.4034V55.1876H41.7491ZM40.3196 53.8744C40.3196 53.6789 40.3879 53.5174 40.5245 53.3902C40.6611 53.2629 40.8442 53.1992 41.0739 53.1992C41.3005 53.1992 41.4821 53.2629 41.6187 53.3902C41.7584 53.5174 41.8283 53.6789 41.8283 53.8744C41.8283 54.07 41.7584 54.2314 41.6187 54.3587C41.4821 54.486 41.3005 54.5496 41.0739 54.5496C40.8442 54.5496 40.6611 54.486 40.5245 54.3587C40.3879 54.2314 40.3196 54.07 40.3196 53.8744Z" fill="#3C3C3B"/>
<path d="M46.0469 55.187H47.2623V60.0576C47.2623 60.5171 47.1598 60.9067 46.9549 61.2264C46.7532 61.5492 46.4707 61.7929 46.1075 61.9575C45.7443 62.1251 45.3221 62.2089 44.8409 62.2089C44.6298 62.2089 44.4063 62.1809 44.1704 62.125C43.9376 62.0691 43.714 61.9823 43.4998 61.8643C43.2888 61.7464 43.1118 61.5974 42.969 61.4173L43.5604 60.6257C43.7156 60.8058 43.8956 60.9455 44.1005 61.0448C44.3054 61.1472 44.532 61.1985 44.7804 61.1985C45.0225 61.1985 45.2274 61.1534 45.395 61.0634C45.5627 60.9765 45.6915 60.8476 45.7815 60.6768C45.8715 60.5092 45.9165 60.306 45.9165 60.0669V56.3511L46.0469 55.187ZM42.657 57.7666V57.6688C42.657 57.2838 42.7036 56.9347 42.7967 56.6212C42.893 56.3045 43.028 56.0329 43.2018 55.8063C43.3788 55.5797 43.593 55.4043 43.8444 55.2801C44.0959 55.1559 44.3799 55.0938 44.6966 55.0938C45.0318 55.0938 45.3128 55.1559 45.5394 55.2801C45.766 55.4043 45.9522 55.5812 46.0982 55.8109C46.2441 56.0375 46.3574 56.3061 46.4381 56.6165C46.5219 56.9238 46.5871 57.2606 46.6336 57.6269V57.841C46.5871 58.1918 46.5172 58.5179 46.4241 58.819C46.331 59.1201 46.2084 59.3839 46.0562 59.6105C45.9041 59.834 45.7148 60.0079 45.4882 60.132C45.2646 60.2562 44.9977 60.3184 44.6872 60.3184C44.3768 60.3184 44.0959 60.2547 43.8444 60.1275C43.5961 60.0002 43.3834 59.8216 43.2065 59.5919C43.0295 59.3622 42.893 59.0921 42.7967 58.7817C42.7036 58.4712 42.657 58.133 42.657 57.7666ZM43.9981 57.6688V57.7666C43.9981 57.9746 44.0183 58.1687 44.0586 58.3487C44.099 58.5288 44.1611 58.6886 44.2449 58.8283C44.3318 58.9649 44.4389 59.072 44.5662 59.1496C44.6966 59.2241 44.8502 59.2614 45.0272 59.2614C45.2724 59.2614 45.4726 59.2101 45.6278 59.1077C45.7831 59.0022 45.8995 58.8578 45.9771 58.6747C46.0547 58.4915 46.0997 58.2804 46.1121 58.0414V57.4314C46.1059 57.2358 46.0795 57.0604 46.033 56.9052C45.9864 56.7469 45.9212 56.6117 45.8374 56.5C45.7536 56.3882 45.6449 56.3014 45.5114 56.2393C45.378 56.1772 45.2196 56.1462 45.0365 56.1462C44.8595 56.1462 44.7059 56.1865 44.5755 56.2673C44.4482 56.3449 44.3411 56.452 44.2542 56.5886C44.1704 56.7251 44.1067 56.8866 44.0633 57.0728C44.0198 57.2559 43.9981 57.4546 43.9981 57.6688Z" fill="#3C3C3B"/>
<path d="M49.6138 53.0732V60.2256H48.2727V53.0732H49.6138ZM49.4229 57.5295H49.055C49.0581 57.1787 49.1047 56.8558 49.1947 56.5609C49.2847 56.2629 49.4136 56.0052 49.5812 55.7879C49.7488 55.5675 49.949 55.3968 50.1819 55.2757C50.4178 55.1547 50.6786 55.0941 50.9642 55.0941C51.2125 55.0941 51.4376 55.1298 51.6393 55.2012C51.8442 55.2695 52.0196 55.3813 52.1655 55.5365C52.3145 55.6886 52.4294 55.8888 52.5101 56.1372C52.5908 56.3855 52.6312 56.6866 52.6312 57.0405V60.2256H51.2808V57.0312C51.2808 56.8077 51.2482 56.6323 51.183 56.505C51.1209 56.3747 51.0293 56.2831 50.9083 56.2303C50.7903 56.1744 50.6444 56.1465 50.4706 56.1465C50.2781 56.1465 50.1136 56.1822 49.977 56.2536C49.8435 56.325 49.7364 56.4243 49.6557 56.5516C49.575 56.6758 49.516 56.8217 49.4787 56.9893C49.4415 57.1569 49.4229 57.337 49.4229 57.5295Z" fill="#3C3C3B"/>
<path d="M56.4153 55.1876V56.1375H53.4817V55.1876H56.4153ZM54.2081 53.9443H55.5492V58.7079C55.5492 58.8538 55.5678 58.9655 55.6051 59.0431C55.6454 59.1208 55.7044 59.1751 55.782 59.2061C55.8596 59.2341 55.9574 59.248 56.0754 59.248C56.1592 59.248 56.2337 59.2449 56.2989 59.2387C56.3672 59.2294 56.4246 59.2201 56.4712 59.2108L56.4758 60.1979C56.361 60.2352 56.2368 60.2647 56.1033 60.2864C55.9698 60.3081 55.8224 60.319 55.6609 60.319C55.366 60.319 55.1084 60.2709 54.888 60.1747C54.6707 60.0753 54.503 59.917 54.3851 59.6997C54.2671 59.4824 54.2081 59.1968 54.2081 58.8429V53.9443Z" fill="#3C3C3B"/>
<path fill-rule="evenodd" clip-rule="evenodd" d="M47.2923 0.65918V3.05244V12.8006V15.1938H44.899H37.5653H35.1734H27.2429H24.8496H16.9176H14.5243H7.19209H4.79883V12.8006V3.05244V0.65918H7.19209H14.5243H16.9176H24.8496H27.2429H35.1734H37.5653H44.899H47.2923ZM37.5639 3.05106V12.7991H44.8975V3.05106H37.5639ZM35.1721 12.8006V3.05244H27.2415V12.8006H35.1721ZM24.8482 12.8006V3.05244H16.9162V12.8006H24.8482ZM14.5243 12.8006V3.05244H7.19209V12.8006H14.5243Z" fill="#3C3C3B"/>
<path fill-rule="evenodd" clip-rule="evenodd" d="M50.4817 4.91309V7.30497V17.0545V19.4463H48.0885H40.7548H38.3629H30.431H28.0376H20.1071H17.7138H10.3815H7.98828V17.0545V12.8013H10.3815V17.0545H17.7138V12.8013H20.1071V17.0545H28.0376V12.8013H30.431V17.0545H38.3629V12.8013H40.7548V17.0545H48.0885V7.30497H44.8993V4.91309H48.0885H50.4817Z" fill="#3C3C3B"/>
<path fill-rule="evenodd" clip-rule="evenodd" d="M43.4159 46.7745H41.024H33.0921H30.7002H22.7683H20.3749H13.0427H10.6494V44.3826V34.6331V32.2412H13.0427H20.3749H22.7683H30.7002H33.0921H41.024H43.4159V34.6331V44.3826V46.7745ZM24.233 34.6317V44.3812H29.8309V34.6317H24.233ZM21.8397 44.3812V34.6317H20.3736H19.0414H13.0413V44.3812H19.0414H20.3736H21.8397ZM32.2228 34.6317V44.3812H33.0906H35.4458H41.0227V34.6317H35.4458H33.0906H32.2228Z" fill="#4A8E3A"/>
<path fill-rule="evenodd" clip-rule="evenodd" d="M52.5572 32.2061C51.3338 33.4677 50.1117 34.7278 49.3073 35.8864C48.5058 37.0449 48.1234 38.1018 47.9837 39.2237C47.844 40.3441 47.9456 41.5295 48.4931 42.5102C49.0407 43.491 50.0341 44.2685 50.6705 44.6749C51.1601 44.9882 51.4382 45.0827 51.6047 45.1194V46.3881V46.8072H53.5125V46.3881V45.1194C53.6791 45.0827 53.957 44.9868 54.4467 44.6749C55.0831 44.2685 56.0751 43.491 56.624 42.5102C57.173 41.5295 57.2732 40.3441 57.1335 39.2237C56.9924 38.1018 56.6114 37.0449 55.8099 35.8864C55.0069 34.7278 53.7835 33.4663 52.5601 32.2061L52.5586 32.209L52.5572 32.2061ZM52.6658 43.5178H52.6574H52.6518H52.6475H52.639H52.6306H52.6264H52.6207H52.6151H52.6108H52.6023H52.5995H52.5897H52.5784H52.567H52.5557H52.5445H52.5332H52.5219H52.512H52.5092H52.5007H52.4965H52.4909H52.4852H52.4824H52.4725H52.464H52.4598H52.4542H52.4471C52.2849 43.5149 52.2849 43.4698 52.2849 42.7402C52.2849 41.9641 52.2849 40.4105 52.2778 39.6329C52.2722 38.9401 52.2609 38.8653 52.3667 38.8568H52.3723L52.3738 38.8554H52.3794H52.3837H52.4852H52.4936H52.4951H52.505H52.5148H52.5234H52.5261H52.5346H52.536H52.5445H52.5473H52.5544H52.5572H52.5643H52.567H52.5756H52.5769H52.5868H52.5882H52.5967H52.608H52.6165H52.6178H52.6264H52.7279H52.7321H52.7378L52.7392 38.8568H52.7449C52.8493 38.8653 52.838 38.9401 52.8338 39.6329C52.8267 40.4105 52.8267 41.9641 52.8267 42.7402C52.8281 43.4698 52.8281 43.5149 52.6658 43.5178Z" fill="#4A8E3A"/>
<path fill-rule="evenodd" clip-rule="evenodd" d="M25.8354 21.2256H28.2273V28.7384H25.8354V21.2256Z" fill="#3C3C3B"/>
<path fill-rule="evenodd" clip-rule="evenodd" d="M30.168 27.3232L27.0311 30.4602L23.8955 27.3232H30.168Z" fill="#3C3C3B"/>
</g>
<defs>
<clipPath id="clip0_52_280">
<rect width="57" height="63" fill="white" transform="translate(0.463867 -0.00488281)"/>
</clipPath>
</defs>
</svg>
