<svg width="81" height="81" viewBox="0 0 81 81" fill="none" xmlns="http://www.w3.org/2000/svg">
<path fill-rule="evenodd" clip-rule="evenodd" d="M40.9843 59.7876C27.1086 51.8683 17.7542 36.9329 17.7542 19.813C17.7542 19.6423 17.7556 19.4729 17.7584 19.3022C18.8633 18.7307 19.7706 18.2565 20.6173 17.8389L20.6159 18.0307C20.6159 35.176 29.9986 50.1298 43.9096 58.0406C43.3226 58.4371 42.7962 58.7758 42.3729 59.0397C41.9241 59.3177 41.5911 59.5167 40.9843 59.7876Z" fill="#3C3C3B" stroke="#3C3C3B" stroke-width="0.216" stroke-miterlimit="22.9256"/>
<path fill-rule="evenodd" clip-rule="evenodd" d="M64.3645 19.6067C64.3645 19.6758 64.3673 19.7449 64.3673 19.8141C64.3673 36.9494 54.9945 51.8962 41.0963 59.8098C40.4923 59.4613 39.8333 59.0662 39.1828 58.6555C38.8271 58.4298 38.4744 58.1983 38.1414 57.9782C51.9888 50.0518 61.3192 35.1319 61.3192 18.0332V17.9951C62.1998 18.4227 63.0084 18.8559 64.3645 19.6067Z" fill="#3C3C3B" stroke="#3C3C3B" stroke-width="0.216" stroke-miterlimit="22.9256"/>
<path fill-rule="evenodd" clip-rule="evenodd" d="M40.8283 13.1201C49.4122 13.1201 57.4458 15.4739 64.3222 19.569C64.325 20.2379 64.3152 20.9223 64.2912 21.5883C64.2771 21.9792 64.2588 22.3658 64.2348 22.7525C57.3781 18.6912 49.3769 16.36 40.8283 16.36C35.0878 16.36 29.5942 17.4128 24.5269 19.3347C24.5353 18.9396 24.5495 18.56 24.5664 18.2002C24.596 17.5849 24.6383 17.0317 24.7117 16.0242C29.7269 14.1474 35.1569 13.1201 40.8283 13.1201Z" fill="#3C3C3B" stroke="#3C3C3B" stroke-width="0.216" stroke-miterlimit="22.9256"/>
<path fill-rule="evenodd" clip-rule="evenodd" d="M40.8279 20.1514C45.8064 20.1514 50.6001 20.9431 55.0889 22.4064V25.4418C50.5987 23.9784 45.8064 23.1868 40.8279 23.1868C38.4657 23.1868 36.143 23.366 33.8767 23.7103V20.675C36.143 20.3307 38.4657 20.1514 40.8279 20.1514Z" fill="#3C3C3B" stroke="#3C3C3B" stroke-width="0.216" stroke-miterlimit="22.9256"/>
<path fill-rule="evenodd" clip-rule="evenodd" d="M40.8278 26.6904C43.9295 26.6904 46.9606 26.998 49.8901 27.5837L49.8436 27.8066C49.7194 28.3696 49.5923 28.8692 49.4427 29.4012C49.3397 29.761 49.2269 30.135 49.1056 30.5104C46.4216 30.0221 43.6558 29.7667 40.8293 29.7667C40.6105 29.7667 40.3917 29.7681 40.1744 29.7709C39.8513 28.7803 39.4717 27.6443 39.157 26.7186C39.7102 26.7003 40.269 26.6904 40.8278 26.6904Z" fill="#3C3C3B" stroke="#3C3C3B" stroke-width="0.216" stroke-miterlimit="22.9256"/>
<path fill-rule="evenodd" clip-rule="evenodd" d="M28.1654 14.9287C27.9466 16.519 27.8324 18.1447 27.8324 19.7957C27.8324 32.2348 34.2291 43.1796 43.9123 49.5212L43.8304 49.5904C43.5072 49.8599 43.0952 50.1957 42.7001 50.5034C42.305 50.8124 41.9268 51.0961 41.4935 51.3882C41.3341 51.4954 41.1662 51.6041 40.9531 51.7339C35.6345 48.0184 31.2981 42.9933 28.4151 37.123C28.3051 36.8619 28.1795 36.5981 28.0568 36.3328C27.7788 35.733 27.5191 35.1305 27.2877 34.5618C27.0563 33.9917 26.8545 33.4541 26.6343 32.8078C26.4142 32.1615 26.1757 31.4065 25.9358 30.5245C25.6974 29.6426 25.4561 28.6364 25.2782 27.7869C25.1004 26.9374 24.9847 26.2474 24.8873 25.5475C24.7899 24.8475 24.7109 24.1391 24.6517 23.4181C24.5924 22.6956 24.5515 21.9618 24.536 21.1447C24.5303 20.8258 24.5275 20.497 24.4978 20.1852C24.4978 18.7938 24.5755 17.4193 24.7208 16.0661C25.6493 15.7218 26.6301 15.3901 27.5727 15.1037C27.7717 15.0444 27.9692 14.9866 28.1654 14.9287Z" fill="#3C3C3B" stroke="#3C3C3B" stroke-width="0.216" stroke-miterlimit="22.9256"/>
<path fill-rule="evenodd" clip-rule="evenodd" d="M57.3957 23.1247C56.5236 34.7538 50.4755 44.9366 41.5501 51.384V49.2744H38.5994C47.4599 43.3067 53.484 33.4528 54.2234 22.1553C55.0941 22.4078 56.1807 22.7352 57.3957 23.1247Z" fill="#3C3C3B" stroke="#3C3C3B" stroke-width="0.216" stroke-miterlimit="22.9256"/>
<path fill-rule="evenodd" clip-rule="evenodd" d="M45.9061 46.8985C45.7805 46.8194 45.6549 46.7404 45.5293 46.66C45.6563 46.5809 45.7833 46.4949 45.9061 46.3989V46.8985ZM41.0785 43.1787C35.2449 37.6668 31.6028 29.859 31.6028 21.1989V20.9957L31.6607 20.9872C32.6034 20.8461 33.6024 20.7064 34.2388 20.6203L34.5182 20.5836C34.8033 28.4775 38.1166 35.5995 43.3322 40.825C43.1445 41.0437 42.9597 41.254 42.755 41.4769C42.422 41.8438 42.0354 42.2474 41.7292 42.5564C41.4907 42.7977 41.2987 42.9812 41.0785 43.1787ZM47.4739 44.2949C47.6587 44.4233 47.845 44.5518 48.0327 44.6759H47.3031C47.3652 44.5518 47.4217 44.4247 47.4739 44.2949ZM32.1334 15.5318C32.2364 14.9843 32.355 14.4438 32.4876 13.9076C32.9434 13.8229 33.3964 13.7467 33.8437 13.679C34.2586 13.6155 34.6692 13.5576 35.0841 13.5068C34.9712 14.0684 34.8753 14.6357 34.7949 15.2072C33.848 15.2919 32.8686 15.3963 32.1334 15.5318Z" fill="#3C3C3B" stroke="#3C3C3B" stroke-width="0.216" stroke-miterlimit="22.9256"/>
<path fill-rule="evenodd" clip-rule="evenodd" d="M49.8754 27.7356C48.5871 33.5763 45.611 38.7833 41.4835 42.8178V40.1564H39.4839C42.8932 36.5269 45.4135 32.0536 46.7019 27.085C46.8698 27.1104 47.0447 27.1387 47.2324 27.1726C47.9055 27.2911 48.7381 27.4618 49.8754 27.7356Z" fill="#3C3C3B" stroke="#3C3C3B" stroke-width="0.216" stroke-miterlimit="22.9256"/>
<path d="M18.4188 70.5535H16.6913V69.4639H18.4188C18.6858 69.4639 18.9031 69.4204 19.0707 69.3335C19.2384 69.2435 19.361 69.1193 19.4386 68.961C19.5162 68.8027 19.555 68.6242 19.555 68.4255C19.555 68.2237 19.5162 68.0359 19.4386 67.8621C19.361 67.6882 19.2384 67.5485 19.0707 67.443C18.9031 67.3375 18.6858 67.2847 18.4188 67.2847H17.1756V72.9702H15.7786V66.1904H18.4188C18.9497 66.1904 19.4045 66.2866 19.7832 66.4791C20.165 66.6685 20.4568 66.9308 20.6586 67.2661C20.8604 67.6013 20.9613 67.9847 20.9613 68.4162C20.9613 68.8539 20.8604 69.2326 20.6586 69.5524C20.4568 69.8721 20.165 70.1189 19.7832 70.2928C19.4045 70.4666 18.9497 70.5535 18.4188 70.5535Z" fill="#3C3C3B"/>
<path d="M21.562 70.5024V70.4046C21.562 70.0352 21.6148 69.6953 21.7204 69.3848C21.8259 69.0713 21.9796 68.7997 22.1814 68.57C22.3831 68.3402 22.6315 68.1617 22.9264 68.0345C23.2213 67.9041 23.5597 67.8389 23.9415 67.8389C24.3233 67.8389 24.6633 67.9041 24.9613 68.0345C25.2593 68.1617 25.5092 68.3402 25.711 68.57C25.9158 68.7997 26.0711 69.0713 26.1766 69.3848C26.2822 69.6953 26.3349 70.0352 26.3349 70.4046V70.5024C26.3349 70.8687 26.2822 71.2086 26.1766 71.5222C26.0711 71.8326 25.9158 72.1042 25.711 72.337C25.5092 72.5668 25.2608 72.7453 24.9659 72.8725C24.671 72.9998 24.3326 73.0635 23.9508 73.0635C23.569 73.0635 23.2291 72.9998 22.931 72.8725C22.6361 72.7453 22.3862 72.5668 22.1814 72.337C21.9796 72.1042 21.8259 71.8326 21.7204 71.5222C21.6148 71.2086 21.562 70.8687 21.562 70.5024ZM22.9031 70.4046V70.5024C22.9031 70.7135 22.9217 70.9106 22.959 71.0938C22.9962 71.2769 23.0552 71.4383 23.1359 71.578C23.2198 71.7146 23.3284 71.8217 23.4619 71.8993C23.5954 71.9769 23.7583 72.0157 23.9508 72.0157C24.1371 72.0157 24.2969 71.9769 24.4304 71.8993C24.5639 71.8217 24.671 71.7146 24.7517 71.578C24.8324 71.4383 24.8914 71.2769 24.9287 71.0938C24.969 70.9106 24.9892 70.7135 24.9892 70.5024V70.4046C24.9892 70.1997 24.969 70.0073 24.9287 69.8272C24.8914 69.6441 24.8309 69.4826 24.7471 69.3429C24.6664 69.2001 24.5593 69.0884 24.4258 69.0077C24.2923 68.927 24.1309 68.8866 23.9415 68.8866C23.7521 68.8866 23.5907 68.927 23.4572 69.0077C23.3268 69.0884 23.2198 69.2001 23.1359 69.3429C23.0552 69.4826 22.9962 69.6441 22.959 69.8272C22.9217 70.0073 22.9031 70.1997 22.9031 70.4046Z" fill="#3C3C3B"/>
<path d="M27.8601 71.6671L28.9078 67.9326H29.7599L29.4852 69.3994L28.4375 72.9709H27.725L27.8601 71.6671ZM27.3292 67.9326L28.0789 71.6624L28.1488 72.9709H27.3106L26.0347 67.9326H27.3292ZM30.7191 71.6019L31.4502 67.9326H32.7493L31.4735 72.9709H30.64L30.7191 71.6019ZM29.8763 67.9326L30.9194 71.6391L31.0637 72.9709H30.3466L29.2989 69.404L29.0335 67.9326H29.8763Z" fill="#3C3C3B"/>
<path d="M35.829 73.0635C35.4378 73.0635 35.0871 73.0014 34.7766 72.8772C34.4662 72.75 34.2023 72.5746 33.985 72.351C33.7708 72.1275 33.6063 71.8683 33.4914 71.5734C33.3766 71.2754 33.3191 70.9588 33.3191 70.6235V70.4372C33.3191 70.0554 33.3735 69.7062 33.4821 69.3895C33.5908 69.0729 33.746 68.7982 33.9478 68.5653C34.1527 68.3325 34.401 68.154 34.6928 68.0298C34.9846 67.9026 35.3137 67.8389 35.68 67.8389C36.037 67.8389 36.3536 67.8979 36.6299 68.0159C36.9062 68.1338 37.1374 68.3015 37.3237 68.5188C37.5131 68.7361 37.6559 68.9968 37.7521 69.3011C37.8483 69.6022 37.8965 69.9374 37.8965 70.3069V70.8656H33.8919V69.9716H36.5787V69.8692C36.5787 69.6829 36.5445 69.5168 36.4762 69.3709C36.411 69.2219 36.3117 69.1039 36.1782 69.017C36.0447 68.9301 35.874 68.8866 35.666 68.8866C35.4891 68.8866 35.3369 68.9254 35.2097 69.003C35.0824 69.0807 34.9784 69.1893 34.8977 69.329C34.8201 69.4687 34.7611 69.6332 34.7207 69.8226C34.6835 70.0088 34.6649 70.2137 34.6649 70.4372V70.6235C34.6649 70.8253 34.6928 71.0115 34.7487 71.1823C34.8077 71.353 34.8899 71.5005 34.9955 71.6246C35.1041 71.7488 35.2345 71.845 35.3866 71.9133C35.5418 71.9816 35.7172 72.0158 35.9128 72.0158C36.1549 72.0158 36.38 71.9692 36.588 71.8761C36.7991 71.7799 36.9807 71.6355 37.1328 71.443L37.7847 72.1508C37.6792 72.3029 37.5348 72.4488 37.3516 72.5885C37.1716 72.7282 36.9543 72.8431 36.6997 72.9331C36.4452 73.02 36.1549 73.0635 35.829 73.0635Z" fill="#3C3C3B"/>
<path d="M40.0013 69.031V72.9704H38.6602V67.9321H39.9221L40.0013 69.031ZM41.5193 67.8995L41.496 69.1427C41.4308 69.1334 41.3516 69.1257 41.2585 69.1195C41.1685 69.1101 41.0862 69.1055 41.0117 69.1055C40.8224 69.1055 40.6578 69.1303 40.5181 69.18C40.3816 69.2266 40.2667 69.2964 40.1736 69.3895C40.0835 69.4827 40.0152 69.596 39.9687 69.7295C39.9252 69.8629 39.9004 70.0151 39.8942 70.1858L39.6241 70.102C39.6241 69.776 39.6567 69.4765 39.7219 69.2033C39.7871 68.927 39.8818 68.6864 40.0059 68.4815C40.1332 68.2766 40.2884 68.1183 40.4716 68.0066C40.6547 67.8948 40.8643 67.8389 41.1002 67.8389C41.1747 67.8389 41.2508 67.8451 41.3284 67.8576C41.406 67.8669 41.4696 67.8808 41.5193 67.8995Z" fill="#3C3C3B"/>
<path d="M47.61 69.4268V72.1136C47.5045 72.2408 47.3415 72.379 47.1211 72.528C46.9007 72.6739 46.6167 72.7996 46.269 72.9052C45.9213 73.0107 45.5007 73.0635 45.0071 73.0635C44.5694 73.0635 44.1705 72.9921 43.8104 72.8493C43.4503 72.7034 43.1398 72.4907 42.8791 72.2114C42.6214 71.932 42.4227 71.5905 42.283 71.1869C42.1433 70.7803 42.0735 70.3162 42.0735 69.7946V69.3709C42.0735 68.8494 42.1402 68.3853 42.2737 67.9786C42.4103 67.572 42.6043 67.2289 42.8558 66.9495C43.1072 66.6702 43.4068 66.4575 43.7545 66.3116C44.1022 66.1657 44.4887 66.0928 44.9139 66.0928C45.5038 66.0928 45.988 66.189 46.3668 66.3815C46.7455 66.5708 47.0342 66.8347 47.2329 67.1731C47.4346 67.5083 47.5588 67.8933 47.6054 68.3279H46.2503C46.2162 68.0981 46.151 67.8979 46.0548 67.7272C45.9585 67.5564 45.8204 67.423 45.6404 67.3267C45.4634 67.2305 45.2337 67.1824 44.9512 67.1824C44.7184 67.1824 44.5104 67.2305 44.3272 67.3267C44.1472 67.4198 43.9951 67.558 43.8709 67.7411C43.7467 67.9243 43.652 68.1509 43.5869 68.421C43.5217 68.6911 43.4891 69.0046 43.4891 69.3616V69.7946C43.4891 70.1485 43.5232 70.4621 43.5915 70.7353C43.6598 71.0053 43.7607 71.2335 43.8942 71.4198C44.0308 71.6029 44.1984 71.7411 44.3971 71.8342C44.5958 71.9273 44.827 71.9739 45.0909 71.9739C45.3113 71.9739 45.4945 71.9553 45.6404 71.918C45.7894 71.8807 45.9089 71.8357 45.9989 71.783C46.092 71.7271 46.1634 71.6743 46.2131 71.6246V70.4233H44.9372V69.4268H47.61Z" fill="#3C3C3B"/>
<path d="M51.6331 71.7638V67.9316H52.9742V72.9699H51.7123L51.6331 71.7638ZM51.7821 70.7301L52.1779 70.7208C52.1779 71.0561 52.1391 71.368 52.0615 71.6567C51.9839 71.9423 51.8675 72.1907 51.7123 72.4018C51.5571 72.6098 51.3615 72.7727 51.1256 72.8907C50.8896 73.0056 50.6118 73.063 50.2921 73.063C50.0468 73.063 49.8202 73.0288 49.6122 72.9605C49.4073 72.8891 49.2304 72.7789 49.0814 72.6299C48.9355 72.4778 48.8206 72.2838 48.7368 72.0479C48.6561 71.8088 48.6157 71.5217 48.6157 71.1864V67.9316H49.9568V71.1957C49.9568 71.3448 49.9739 71.4705 50.008 71.5729C50.0453 71.6754 50.0965 71.7592 50.1617 71.8244C50.2269 71.8896 50.3029 71.9361 50.3898 71.9641C50.4799 71.992 50.5792 72.006 50.6879 72.006C50.9641 72.006 51.1814 71.9501 51.3398 71.8383C51.5012 71.7266 51.6145 71.5745 51.6797 71.382C51.748 71.1864 51.7821 70.9691 51.7821 70.7301Z" fill="#3C3C3B"/>
<path d="M56.718 71.8342V69.5898C56.718 69.4283 56.6916 69.2902 56.6388 69.1753C56.5861 69.0574 56.5038 68.9658 56.392 68.9006C56.2834 68.8354 56.1421 68.8028 55.9683 68.8028C55.8193 68.8028 55.6905 68.8292 55.5818 68.882C55.4732 68.9316 55.3893 69.0046 55.3304 69.1008C55.2714 69.194 55.2419 69.3042 55.2419 69.4314H53.9008C53.9008 69.2172 53.9505 69.0139 54.0498 68.8214C54.1492 68.629 54.2935 68.4598 54.4829 68.3139C54.6722 68.1649 54.8973 68.0485 55.1581 67.9647C55.4219 67.8808 55.7168 67.8389 56.0428 67.8389C56.4339 67.8389 56.7816 67.9041 57.0858 68.0345C57.3901 68.1649 57.6291 68.3605 57.8029 68.6212C57.9799 68.882 58.0684 69.2079 58.0684 69.5991V71.755C58.0684 72.0313 58.0854 72.2579 58.1196 72.4349C58.1537 72.6087 58.2034 72.7608 58.2686 72.8912V72.9704H56.9136C56.8484 72.8338 56.7987 72.663 56.7645 72.4581C56.7335 72.2502 56.718 72.0422 56.718 71.8342ZM56.8949 69.9017L56.9042 70.6608H56.1546C55.9776 70.6608 55.8239 70.6809 55.6936 70.7213C55.5632 70.7616 55.4561 70.8191 55.3723 70.8936C55.2884 70.965 55.2264 71.0488 55.186 71.145C55.1488 71.2413 55.1301 71.3468 55.1301 71.4617C55.1301 71.5765 55.1565 71.6805 55.2093 71.7736C55.2621 71.8637 55.3381 71.9351 55.4375 71.9878C55.5368 72.0375 55.6532 72.0623 55.7867 72.0623C55.9885 72.0623 56.1639 72.022 56.3129 71.9413C56.4619 71.8606 56.5767 71.7612 56.6575 71.6433C56.7413 71.5253 56.7847 71.4135 56.7878 71.308L57.1417 71.8761C57.0921 72.0034 57.0238 72.1353 56.9368 72.2719C56.853 72.4085 56.7459 72.5373 56.6155 72.6584C56.4852 72.7763 56.3284 72.8741 56.1452 72.9517C55.9621 73.0262 55.7448 73.0635 55.4933 73.0635C55.1736 73.0635 54.8833 72.9999 54.6226 72.8726C54.3649 72.7422 54.16 72.5637 54.0079 72.3371C53.8589 72.1074 53.7844 71.8466 53.7844 71.5548C53.7844 71.2909 53.8341 71.0566 53.9334 70.8517C54.0328 70.6468 54.1787 70.4745 54.3711 70.3348C54.5667 70.192 54.8104 70.0849 55.1022 70.0135C55.394 69.939 55.7324 69.9017 56.1173 69.9017H56.8949Z" fill="#3C3C3B"/>
<path d="M60.4432 69.031V72.9704H59.1021V67.9321H60.364L60.4432 69.031ZM61.9612 67.8995L61.9379 69.1427C61.8727 69.1334 61.7935 69.1257 61.7004 69.1195C61.6104 69.1101 61.5281 69.1055 61.4536 69.1055C61.2642 69.1055 61.0997 69.1303 60.96 69.18C60.8234 69.2266 60.7086 69.2964 60.6154 69.3895C60.5254 69.4827 60.4571 69.596 60.4106 69.7295C60.3671 69.8629 60.3423 70.0151 60.3361 70.1858L60.066 70.102C60.066 69.776 60.0986 69.4765 60.1638 69.2033C60.229 68.927 60.3236 68.6864 60.4478 68.4815C60.5751 68.2766 60.7303 68.1183 60.9135 68.0066C61.0966 67.8948 61.3062 67.8389 61.5421 67.8389C61.6166 67.8389 61.6926 67.8451 61.7702 67.8576C61.8479 67.8669 61.9115 67.8808 61.9612 67.8995Z" fill="#3C3C3B"/>
<path d="M65.8325 71.8727V65.8193H67.1829V72.9716H65.9676L65.8325 71.8727ZM62.6475 70.513V70.4153C62.6475 70.0303 62.691 69.6811 62.7779 69.3675C62.8648 69.0509 62.9921 68.7793 63.1597 68.5527C63.3273 68.326 63.5338 68.1507 63.779 68.0265C64.0243 67.9023 64.3036 67.8402 64.6172 67.8402C64.9121 67.8402 65.1697 67.9023 65.3902 68.0265C65.6137 68.1507 65.803 68.3276 65.9582 68.5573C66.1166 68.7839 66.2438 69.0525 66.3401 69.3629C66.4363 69.6702 66.5062 70.007 66.5496 70.3733V70.5875C66.5062 70.9383 66.4363 71.2643 66.3401 71.5654C66.2438 71.8665 66.1166 72.1304 65.9582 72.357C65.803 72.5805 65.6137 72.7543 65.3902 72.8785C65.1666 73.0027 64.9059 73.0648 64.6079 73.0648C64.2943 73.0648 64.0149 73.0011 63.7697 72.8739C63.5276 72.7466 63.3227 72.5681 63.155 72.3384C62.9905 72.1087 62.8648 71.8386 62.7779 71.5281C62.691 71.2177 62.6475 70.8793 62.6475 70.513ZM63.9886 70.4153V70.513C63.9886 70.721 64.0041 70.915 64.0351 71.0951C64.0693 71.2751 64.1236 71.435 64.1981 71.5747C64.2757 71.7113 64.375 71.8184 64.4961 71.896C64.6203 71.9705 64.7708 72.0078 64.9478 72.0078C65.1775 72.0078 65.3669 71.9565 65.5159 71.8541C65.6649 71.7486 65.7782 71.6042 65.8558 71.421C65.9365 71.2379 65.9831 71.0268 65.9955 70.7878V70.1778C65.9862 69.9822 65.9582 69.8068 65.9117 69.6516C65.8682 69.4933 65.803 69.3582 65.7161 69.2465C65.6323 69.1347 65.5267 69.0478 65.3995 68.9857C65.2753 68.9236 65.1278 68.8926 64.9571 68.8926C64.7833 68.8926 64.6343 68.9329 64.5101 69.0137C64.3859 69.0913 64.285 69.1984 64.2074 69.335C64.1329 69.4715 64.077 69.633 64.0398 69.8192C64.0056 70.0024 63.9886 70.2011 63.9886 70.4153Z" fill="#3C3C3B"/>
</svg>
