<svg width="81" height="81" viewBox="0 0 81 81" fill="none" xmlns="http://www.w3.org/2000/svg">
<g clip-path="url(#clip0_52_474)">
<path fill-rule="evenodd" clip-rule="evenodd" d="M21.764 -0.00488281H60.1638C71.6039 -0.00488281 80.9639 9.3552 80.9639 20.7952V59.4038C80.9639 70.8439 71.6039 80.204 60.1638 80.204H21.764C10.3239 80.204 0.963867 70.8439 0.963867 59.4038V20.7952C0.963867 9.3552 10.3239 -0.00488281 21.764 -0.00488281Z" fill="white"/>
<path d="M22.4319 71.6652V65.2341H23.8918V70.4439H26.449V71.6652H22.4319ZM31.1315 67.7627V68.9458H28.7651V70.4725H31.4082V71.6652H27.3053V65.2341H31.2746V66.4268H28.7651V67.7627H31.1315ZM32.4022 71.6366V65.32C32.9366 65.2341 33.6331 65.1864 34.3678 65.1864C35.5892 65.1864 36.3811 65.4059 37.0013 65.8734C37.6693 66.3696 38.0891 67.1615 38.0891 68.297C38.0891 69.5279 37.6406 70.3771 37.0204 70.9019C36.343 71.4648 35.3125 71.732 34.053 71.732C33.2992 71.732 32.7648 71.6843 32.4022 71.6366ZM33.8621 66.36V70.5679C33.9862 70.5966 34.1865 70.5966 34.3678 70.5966C35.6846 70.6061 36.5433 69.8809 36.5433 68.3447C36.5529 67.0089 35.7705 66.3028 34.5205 66.3028C34.1961 66.3028 33.9862 66.3314 33.8621 66.36ZM39.046 71.6652V65.2341H40.5059V70.4439H43.0631V71.6652H39.046ZM45.322 71.6652H43.8716V66.9993H45.322V71.6652ZM44.5968 64.967C45.0644 64.967 45.3601 65.2818 45.3697 65.7017C45.3697 66.1024 45.0644 66.4268 44.5873 66.4268C44.1293 66.4268 43.8239 66.1024 43.8335 65.7017C43.8239 65.2818 44.1293 64.967 44.5968 64.967ZM49.6865 66.9993H50.946C50.9269 67.2951 50.9078 67.6863 50.9078 68.3829V70.9878C50.9078 71.8847 50.7265 72.6194 50.2017 73.0869C49.6865 73.5258 48.9899 73.6594 48.3029 73.6594C47.6923 73.6594 47.0434 73.5354 46.6236 73.2968L46.9098 72.1996C47.2056 72.3713 47.7209 72.5526 48.2648 72.5526C48.9518 72.5526 49.4766 72.1805 49.4766 71.3217V71.0164H49.4575C49.1808 71.4076 48.7323 71.6271 48.198 71.6271C47.0434 71.6271 46.2228 70.692 46.2228 69.3466C46.2228 67.8485 47.1961 66.8944 48.3411 66.8944C48.9804 66.8944 49.3811 67.1711 49.6197 67.5528H49.6388L49.6865 66.9993ZM49.4575 69.5851V68.8981C49.4575 68.8027 49.4479 68.7073 49.4289 68.631C49.3239 68.2493 49.0472 67.9917 48.6464 67.9917C48.1216 67.9917 47.6923 68.4688 47.6923 69.318C47.6923 70.0145 48.0358 70.5584 48.6464 70.5584C49.0186 70.5584 49.3144 70.3103 49.4098 69.9668C49.4479 69.8618 49.4575 69.7092 49.4575 69.5851ZM52.0715 71.6652V64.8906H53.5219V67.5528H53.5409C53.6936 67.3524 53.8844 67.1997 54.1134 67.0757C54.3234 66.9612 54.6001 66.8944 54.8672 66.8944C55.7928 66.8944 56.4989 67.5337 56.4989 68.9363V71.6652H55.0485V69.0985C55.0485 68.4878 54.8386 68.068 54.2947 68.068C53.9131 68.068 53.6745 68.3161 53.5696 68.5737C53.5314 68.6691 53.5219 68.7932 53.5219 68.8981V71.6652H52.0715ZM57.8068 65.9879L59.2285 65.6635V66.9993H60.2686V68.068H59.2285V69.7569C59.2285 70.3198 59.3621 70.5775 59.801 70.5775C59.9823 70.5775 60.1255 70.5584 60.2304 70.5393L60.24 71.6366C60.0491 71.7129 59.7056 71.7606 59.2953 71.7606C58.8278 71.7606 58.4366 71.5984 58.2076 71.3599C57.9404 71.0832 57.8068 70.6347 57.8068 69.9763V68.068H57.1866V66.9993H57.8068V65.9879Z" fill="#414042"/>
<path d="M26.2543 34.6911L32.4224 28.5315L38.589 22.3719L28.014 12.7593C28.014 12.7593 27.2703 11.7432 25.1014 11.7432C22.9339 11.7418 20.9682 12.6252 18.867 14.7236L18.5975 14.9931C16.4977 17.09 15.613 19.0529 15.613 21.2204C15.6158 23.3851 16.6303 24.1302 16.6303 24.1302L26.2543 34.6911Z" stroke="#343738" stroke-width="2.82227" stroke-miterlimit="10"/>
<path d="M43.281 39.3794L56.5089 26.1642C56.5089 26.1642 45.0689 20.8894 38.3335 22.5333C38.3335 22.5333 36.4285 23.0117 31.6617 27.7729C26.8935 32.5355 26.4151 34.4377 26.4151 34.4377C24.7697 41.1659 30.0516 52.5919 30.0516 52.5919L43.281 39.3794Z" fill="white" stroke="#343738" stroke-width="2.82227" stroke-miterlimit="10"/>
<path d="M42.5228 38.5976C34.9622 46.1497 29.6314 53.071 30.6162 54.0569C31.6009 55.0428 38.5283 49.7198 46.089 42.1677C53.6496 34.6157 58.9804 27.6942 57.9957 26.7084C57.0109 25.7225 50.0835 31.0455 42.5228 38.5976Z" fill="white" stroke="#343738" stroke-width="2.82227" stroke-miterlimit="10"/>
<path d="M40.4827 35.6963C38.5043 33.7235 36.5302 31.7493 34.5532 29.7723C34.096 29.3165 33.2111 30.2013 33.6669 30.6571C35.6453 32.6327 37.6196 34.6069 39.5994 36.5796C40.0538 37.0383 40.9385 36.1535 40.4827 35.6963Z" fill="#343738"/>
<path d="M35.6342 40.264C34.1567 38.1995 32.6764 36.1378 31.1975 34.0705C30.7798 33.4891 29.7117 34.1255 30.1322 34.7154C31.6096 36.7799 33.0913 38.8444 34.5716 40.9061C34.9879 41.4917 36.0575 40.8524 35.6342 40.264Z" fill="#343738"/>
<path d="M31.0604 44.8865C30.0416 42.8163 29.02 40.7462 28.0011 38.6775C27.6441 37.9522 26.5561 38.5759 26.9103 39.2956C27.9306 41.3657 28.9522 43.4358 29.9725 45.5074C30.3281 46.2285 31.4132 45.609 31.0604 44.8865Z" fill="#343738"/>
<path d="M45.028 30.8952C42.8915 29.3472 40.7565 27.802 38.6228 26.254C38.0175 25.8166 37.3838 26.8919 37.9878 27.3279C40.1214 28.8745 42.2579 30.4211 44.3916 31.9677C44.9969 32.4052 45.6305 31.3299 45.028 30.8952Z" fill="#343738"/>
<path d="M49.4139 26.0829C47.3381 25.0627 45.2666 24.0439 43.1951 23.0236C42.474 22.6708 41.8489 23.7574 42.577 24.113C44.65 25.1319 46.7215 26.1521 48.7945 27.1709C49.5156 27.5265 50.1406 26.44 49.4139 26.0829Z" fill="#343738"/>
<path d="M27.7107 13.3251C27.7107 13.3251 25.3202 12.9681 21.187 17.0985C17.0538 21.2261 17.1991 23.8268 17.1991 23.8268" stroke="#343738" stroke-width="1.41113" stroke-miterlimit="10"/>
<path d="M49.6028 47.1865C49.2443 46.8281 49.3727 46.1197 49.8864 45.6074C50.4 45.0923 51.1098 44.9654 51.4669 45.3238L55.555 49.409C55.9148 49.7646 55.7878 50.473 55.2727 50.9881C54.7577 51.5032 54.0492 51.6273 53.6908 51.2717L49.6028 47.1865Z" fill="#0749CA"/>
<path d="M41.6382 52.8893C41.4152 52.4349 41.7595 51.8056 42.4128 51.481C43.0662 51.1579 43.7788 51.2637 44.0032 51.7181L46.5715 56.8913C46.7973 57.3457 46.4515 57.9779 45.7996 58.2996C45.1448 58.6228 44.4336 58.517 44.2079 58.0626L41.6382 52.8893Z" fill="#0749CA"/>
<path d="M56.9898 37.5551C56.5354 37.3322 55.9047 37.6765 55.5829 38.327C55.2584 38.9804 55.3642 39.6916 55.8186 39.9146L60.9989 42.4828C61.4532 42.7058 62.084 42.3615 62.4058 41.7081C62.7303 41.0576 62.6245 40.3464 62.1701 40.1206L56.9898 37.5551Z" fill="#0749CA"/>
</g>
<defs>
<clipPath id="clip0_52_474">
<rect width="80" height="81" fill="white" transform="translate(0.963867 -0.00488281)"/>
</clipPath>
</defs>
</svg>
