<svg width="81" height="81" viewBox="0 0 81 81" fill="none" xmlns="http://www.w3.org/2000/svg">
<g clip-path="url(#clip0_52_443)">
<path fill-rule="evenodd" clip-rule="evenodd" d="M21.764 0.495117H60.1638C71.6039 0.495117 80.9639 9.83082 80.9639 21.2411V59.7491C80.9639 71.1594 71.6039 80.4951 60.1638 80.4951H21.764C10.3239 80.4951 0.963867 71.1594 0.963867 59.7491V21.2411C0.963867 9.83082 10.3239 0.495117 21.764 0.495117Z" fill="white"/>
<path d="M18.8872 72.797C18.8872 72.6759 18.8686 72.5673 18.8313 72.471C18.7972 72.3717 18.732 72.2817 18.6357 72.201C18.5395 72.1172 18.4045 72.0349 18.2306 71.9542C18.0568 71.8735 17.8317 71.7896 17.5554 71.7027C17.2481 71.6034 16.9563 71.4916 16.68 71.3675C16.4068 71.2433 16.1647 71.0989 15.9536 70.9344C15.7456 70.7668 15.5811 70.5728 15.46 70.3524C15.3421 70.1319 15.2831 69.8758 15.2831 69.584C15.2831 69.3015 15.3452 69.0454 15.4693 68.8157C15.5935 68.5829 15.7674 68.3842 15.9909 68.2197C16.2144 68.0521 16.4782 67.9232 16.7825 67.8332C17.0898 67.7432 17.4266 67.6982 17.7929 67.6982C18.2927 67.6982 18.7289 67.7882 19.1014 67.9682C19.4739 68.1483 19.7626 68.3951 19.9675 68.7086C20.1755 69.0222 20.2795 69.3807 20.2795 69.7843H18.8918C18.8918 69.5856 18.8499 69.4117 18.7661 69.2627C18.6854 69.1106 18.5612 68.9911 18.3936 68.9042C18.2291 68.8173 18.0211 68.7738 17.7696 68.7738C17.5275 68.7738 17.3257 68.8111 17.1643 68.8856C17.0029 68.957 16.8818 69.0548 16.8011 69.1789C16.7204 69.3 16.68 69.4366 16.68 69.5887C16.68 69.7036 16.708 69.8075 16.7638 69.9007C16.8228 69.9938 16.9097 70.0807 17.0246 70.1614C17.1395 70.2422 17.2807 70.3182 17.4483 70.3896C17.616 70.461 17.81 70.5309 18.0304 70.5991C18.3998 70.7109 18.7242 70.8366 19.0036 70.9763C19.2861 71.116 19.522 71.2728 19.7114 71.4466C19.9007 71.6205 20.0435 71.8176 20.1398 72.038C20.236 72.2584 20.2841 72.5083 20.2841 72.7877C20.2841 73.0826 20.2267 73.3465 20.1118 73.5793C19.997 73.8121 19.8309 74.0092 19.6136 74.1707C19.3963 74.3321 19.1371 74.4547 18.836 74.5385C18.5348 74.6223 18.198 74.6642 17.8255 74.6642C17.4902 74.6642 17.1596 74.6208 16.8337 74.5339C16.5077 74.4438 16.2113 74.3088 15.9443 74.1287C15.6804 73.9487 15.4693 73.719 15.311 73.4396C15.1527 73.1602 15.0735 72.8296 15.0735 72.4478H16.4751C16.4751 72.6589 16.5077 72.8374 16.5729 72.9833C16.6381 73.1292 16.7297 73.2471 16.8477 73.3371C16.9687 73.4272 17.1115 73.4924 17.276 73.5327C17.4437 73.5731 17.6268 73.5933 17.8255 73.5933C18.0676 73.5933 18.2663 73.5591 18.4215 73.4908C18.5799 73.4225 18.6963 73.3278 18.7708 73.2068C18.8484 73.0857 18.8872 72.9491 18.8872 72.797Z" fill="#3C3C3B"/>
<path d="M20.936 72.1039V72.0061C20.936 71.6367 20.9888 71.2968 21.0944 70.9863C21.1999 70.6728 21.3536 70.4012 21.5553 70.1715C21.7571 69.9417 22.0055 69.7632 22.3004 69.636C22.5953 69.5056 22.9337 69.4404 23.3155 69.4404C23.6973 69.4404 24.0372 69.5056 24.3353 69.636C24.6333 69.7632 24.8832 69.9417 25.0849 70.1715C25.2898 70.4012 25.445 70.6728 25.5506 70.9863C25.6561 71.2968 25.7089 71.6367 25.7089 72.0061V72.1039C25.7089 72.4702 25.6561 72.8101 25.5506 73.1236C25.445 73.4341 25.2898 73.7057 25.0849 73.9385C24.8832 74.1683 24.6348 74.3467 24.3399 74.474C24.045 74.6013 23.7066 74.6649 23.3248 74.6649C22.943 74.6649 22.603 74.6013 22.305 74.474C22.0101 74.3467 21.7602 74.1683 21.5553 73.9385C21.3536 73.7057 21.1999 73.4341 21.0944 73.1236C20.9888 72.8101 20.936 72.4702 20.936 72.1039ZM22.2771 72.0061V72.1039C22.2771 72.315 22.2957 72.5121 22.333 72.6953C22.3702 72.8784 22.4292 73.0398 22.5099 73.1795C22.5937 73.3161 22.7024 73.4232 22.8359 73.5008C22.9694 73.5784 23.1323 73.6172 23.3248 73.6172C23.5111 73.6172 23.6709 73.5784 23.8044 73.5008C23.9379 73.4232 24.045 73.3161 24.1257 73.1795C24.2064 73.0398 24.2654 72.8784 24.3027 72.6953C24.343 72.5121 24.3632 72.315 24.3632 72.1039V72.0061C24.3632 71.8012 24.343 71.6087 24.3027 71.4287C24.2654 71.2455 24.2049 71.0841 24.1211 70.9444C24.0403 70.8016 23.9332 70.6899 23.7998 70.6092C23.6663 70.5284 23.5048 70.4881 23.3155 70.4881C23.1261 70.4881 22.9647 70.5284 22.8312 70.6092C22.7008 70.6899 22.5937 70.8016 22.5099 70.9444C22.4292 71.0841 22.3702 71.2455 22.333 71.4287C22.2957 71.6087 22.2771 71.8012 22.2771 72.0061Z" fill="#3C3C3B"/>
<path d="M27.8464 70.6092V74.5718H26.5054V69.5335H27.7626L27.8464 70.6092ZM27.6509 71.8757H27.2876C27.2876 71.5032 27.3358 71.1679 27.432 70.8699C27.5282 70.5688 27.6633 70.3127 27.8371 70.1016C28.011 69.8874 28.2174 69.7244 28.4564 69.6127C28.6986 69.4978 28.9686 69.4404 29.2666 69.4404C29.5026 69.4404 29.7183 69.4745 29.9139 69.5428C30.1095 69.6111 30.2771 69.7198 30.4168 69.8688C30.5596 70.0178 30.6682 70.2149 30.7427 70.4602C30.8204 70.7054 30.8592 71.005 30.8592 71.3588V74.5718H29.5088V71.3542C29.5088 71.1307 29.4777 70.9568 29.4157 70.8327C29.3536 70.7085 29.262 70.6216 29.1409 70.5719C29.023 70.5191 28.8771 70.4927 28.7032 70.4927C28.5232 70.4927 28.3664 70.5284 28.2329 70.5998C28.1025 70.6712 27.9939 70.7706 27.907 70.8979C27.8231 71.022 27.7595 71.1679 27.716 71.3356C27.6726 71.5032 27.6509 71.6833 27.6509 71.8757Z" fill="#3C3C3B"/>
<path d="M33.2942 69.5332V74.5715H31.9485V69.5332H33.2942ZM31.8647 68.2201C31.8647 68.0245 31.9329 67.8631 32.0695 67.7358C32.2061 67.6085 32.3893 67.5449 32.619 67.5449C32.8456 67.5449 33.0272 67.6085 33.1638 67.7358C33.3035 67.8631 33.3733 68.0245 33.3733 68.2201C33.3733 68.4157 33.3035 68.5771 33.1638 68.7044C33.0272 68.8316 32.8456 68.8953 32.619 68.8953C32.3893 68.8953 32.2061 68.8316 32.0695 68.7044C31.9329 68.5771 31.8647 68.4157 31.8647 68.2201Z" fill="#3C3C3B"/>
<path d="M36.4842 73.6172C36.6487 73.6172 36.7946 73.5862 36.9219 73.5241C37.0492 73.4589 37.1485 73.3689 37.2199 73.254C37.2944 73.1361 37.3332 72.9979 37.3363 72.8396H38.5982C38.5951 73.1935 38.5004 73.5086 38.3142 73.7849C38.1279 74.058 37.878 74.2738 37.5645 74.4321C37.2509 74.5873 36.9001 74.6649 36.5121 74.6649C36.121 74.6649 35.7795 74.5998 35.4877 74.4694C35.199 74.339 34.9584 74.1589 34.7659 73.9292C34.5735 73.6964 34.4291 73.4263 34.3329 73.119C34.2366 72.8086 34.1885 72.4764 34.1885 72.1225V71.9875C34.1885 71.6305 34.2366 71.2983 34.3329 70.991C34.4291 70.6806 34.5735 70.4105 34.7659 70.1808C34.9584 69.9479 35.199 69.7663 35.4877 69.636C35.7764 69.5056 36.1148 69.4404 36.5028 69.4404C36.9157 69.4404 37.2773 69.5195 37.5877 69.6779C37.9013 69.8362 38.1465 70.0628 38.3235 70.3577C38.5035 70.6495 38.5951 70.9956 38.5982 71.3961H37.3363C37.3332 71.2285 37.2975 71.0764 37.2292 70.9398C37.164 70.8032 37.0678 70.6945 36.9405 70.6138C36.8163 70.53 36.6627 70.4881 36.4795 70.4881C36.2839 70.4881 36.1241 70.53 35.9999 70.6138C35.8757 70.6945 35.7795 70.8063 35.7112 70.9491C35.6429 71.0888 35.5948 71.2486 35.5668 71.4287C35.542 71.6056 35.5296 71.7919 35.5296 71.9875V72.1225C35.5296 72.3181 35.542 72.5059 35.5668 72.6859C35.5917 72.866 35.6382 73.0259 35.7065 73.1656C35.7779 73.3053 35.8757 73.4155 35.9999 73.4962C36.1241 73.5769 36.2855 73.6172 36.4842 73.6172Z" fill="#3C3C3B"/>
<path d="M42.9891 72.797C42.9891 72.6759 42.9705 72.5673 42.9333 72.471C42.8991 72.3717 42.8339 72.2817 42.7377 72.201C42.6415 72.1172 42.5064 72.0349 42.3326 71.9542C42.1587 71.8735 41.9337 71.7896 41.6574 71.7027C41.3501 71.6034 41.0583 71.4916 40.782 71.3675C40.5088 71.2433 40.2667 71.0989 40.0556 70.9344C39.8476 70.7668 39.6831 70.5728 39.562 70.3524C39.444 70.1319 39.385 69.8758 39.385 69.584C39.385 69.3015 39.4471 69.0454 39.5713 68.8157C39.6955 68.5829 39.8693 68.3842 40.0928 68.2197C40.3163 68.0521 40.5802 67.9232 40.8844 67.8332C41.1918 67.7432 41.5286 67.6982 41.8949 67.6982C42.3947 67.6982 42.8308 67.7882 43.2033 67.9682C43.5759 68.1483 43.8646 68.3951 44.0694 68.7086C44.2774 69.0222 44.3814 69.3807 44.3814 69.7843H42.9938C42.9938 69.5856 42.9519 69.4117 42.8681 69.2627C42.7874 69.1106 42.6632 68.9911 42.4956 68.9042C42.331 68.8173 42.123 68.7738 41.8716 68.7738C41.6295 68.7738 41.4277 68.8111 41.2663 68.8856C41.1048 68.957 40.9838 69.0548 40.9031 69.1789C40.8223 69.3 40.782 69.4366 40.782 69.5887C40.782 69.7036 40.8099 69.8075 40.8658 69.9007C40.9248 69.9938 41.0117 70.0807 41.1266 70.1614C41.2414 70.2422 41.3827 70.3182 41.5503 70.3896C41.7179 70.461 41.912 70.5309 42.1324 70.5991C42.5018 70.7109 42.8262 70.8366 43.1056 70.9763C43.3881 71.116 43.624 71.2728 43.8133 71.4466C44.0027 71.6205 44.1455 71.8176 44.2417 72.038C44.338 72.2584 44.3861 72.5083 44.3861 72.7877C44.3861 73.0826 44.3287 73.3465 44.2138 73.5793C44.0989 73.8121 43.9329 74.0092 43.7156 74.1707C43.4983 74.3321 43.239 74.4547 42.9379 74.5385C42.6368 74.6223 42.3 74.6642 41.9275 74.6642C41.5922 74.6642 41.2616 74.6208 40.9356 74.5339C40.6097 74.4438 40.3132 74.3088 40.0463 74.1287C39.7824 73.9487 39.5713 73.719 39.413 73.4396C39.2547 73.1602 39.1755 72.8296 39.1755 72.4478H40.5771C40.5771 72.6589 40.6097 72.8374 40.6749 72.9833C40.7401 73.1292 40.8317 73.2471 40.9496 73.3371C41.0707 73.4272 41.2135 73.4924 41.378 73.5327C41.5456 73.5731 41.7288 73.5933 41.9275 73.5933C42.1696 73.5933 42.3683 73.5591 42.5235 73.4908C42.6818 73.4225 42.7982 73.3278 42.8727 73.2068C42.9503 73.0857 42.9891 72.9491 42.9891 72.797Z" fill="#3C3C3B"/>
<path d="M47.5711 74.6649C47.18 74.6649 46.8292 74.6029 46.5187 74.4787C46.2083 74.3514 45.9445 74.176 45.7272 73.9525C45.513 73.729 45.3484 73.4698 45.2336 73.1749C45.1187 72.8769 45.0613 72.5602 45.0613 72.225V72.0387C45.0613 71.6569 45.1156 71.3076 45.2243 70.991C45.3329 70.6743 45.4881 70.3996 45.6899 70.1668C45.8948 69.934 46.1431 69.7555 46.4349 69.6313C46.7267 69.504 47.0558 69.4404 47.4221 69.4404C47.7791 69.4404 48.0957 69.4994 48.372 69.6173C48.6483 69.7353 48.8796 69.9029 49.0658 70.1202C49.2552 70.3375 49.398 70.5983 49.4942 70.9025C49.5905 71.2036 49.6386 71.5389 49.6386 71.9083V72.4671H45.634V71.573H48.3208V71.4706C48.3208 71.2843 48.2867 71.1183 48.2184 70.9724C48.1532 70.8234 48.0538 70.7054 47.9203 70.6185C47.7869 70.5316 47.6161 70.4881 47.4081 70.4881C47.2312 70.4881 47.0791 70.5269 46.9518 70.6045C46.8245 70.6821 46.7205 70.7908 46.6398 70.9305C46.5622 71.0701 46.5032 71.2347 46.4629 71.424C46.4256 71.6103 46.407 71.8152 46.407 72.0387V72.225C46.407 72.4267 46.4349 72.613 46.4908 72.7837C46.5498 72.9545 46.6321 73.1019 46.7376 73.2261C46.8463 73.3503 46.9766 73.4465 47.1287 73.5148C47.284 73.5831 47.4594 73.6172 47.6549 73.6172C47.8971 73.6172 48.1221 73.5707 48.3301 73.4775C48.5412 73.3813 48.7228 73.237 48.8749 73.0445L49.5268 73.7523C49.4213 73.9044 49.2769 74.0503 49.0938 74.19C48.9137 74.3297 48.6964 74.4445 48.4419 74.5346C48.1873 74.6215 47.8971 74.6649 47.5711 74.6649Z" fill="#3C3C3B"/>
<path d="M51.7154 70.6092V74.5718H50.3743V69.5335H51.6315L51.7154 70.6092ZM51.5198 71.8757H51.1566C51.1566 71.5032 51.2047 71.1679 51.3009 70.8699C51.3972 70.5688 51.5322 70.3127 51.7061 70.1016C51.8799 69.8874 52.0863 69.7244 52.3254 69.6127C52.5675 69.4978 52.8376 69.4404 53.1356 69.4404C53.3715 69.4404 53.5873 69.4745 53.7828 69.5428C53.9784 69.6111 54.146 69.7198 54.2857 69.8688C54.4285 70.0178 54.5372 70.2149 54.6117 70.4602C54.6893 70.7054 54.7281 71.005 54.7281 71.3588V74.5718H53.3777V71.3542C53.3777 71.1307 53.3467 70.9568 53.2846 70.8327C53.2225 70.7085 53.1309 70.6216 53.0099 70.5719C52.8919 70.5191 52.746 70.4927 52.5722 70.4927C52.3921 70.4927 52.2353 70.5284 52.1019 70.5998C51.9715 70.6712 51.8628 70.7706 51.7759 70.8979C51.6921 71.022 51.6284 71.1679 51.585 71.3356C51.5415 71.5032 51.5198 71.6833 51.5198 71.8757Z" fill="#3C3C3B"/>
<path d="M58.4719 73.1795C58.4719 73.0833 58.444 72.9964 58.3881 72.9188C58.3322 72.8412 58.2282 72.7698 58.0761 72.7046C57.9271 72.6363 57.7113 72.5742 57.4288 72.5183C57.1743 72.4624 56.9368 72.3926 56.7164 72.3088C56.4991 72.2218 56.3097 72.1179 56.1483 71.9968C55.99 71.8757 55.8658 71.7329 55.7758 71.5684C55.6858 71.4008 55.6408 71.2098 55.6408 70.9956C55.6408 70.7846 55.6858 70.5859 55.7758 70.3996C55.8689 70.2134 56.0009 70.0488 56.1716 69.906C56.3454 69.7601 56.5565 69.6468 56.8049 69.5661C57.0563 69.4823 57.3388 69.4404 57.6524 69.4404C58.0901 69.4404 58.4657 69.5102 58.7792 69.6499C59.0959 69.7896 59.338 69.9821 59.5056 70.2273C59.6764 70.4695 59.7617 70.7457 59.7617 71.0562H58.4207C58.4207 70.9258 58.3927 70.8094 58.3369 70.7069C58.2841 70.6014 58.2003 70.5191 58.0854 70.4602C57.9737 70.3981 57.8278 70.367 57.6477 70.367C57.4987 70.367 57.3699 70.3934 57.2612 70.4462C57.1526 70.4959 57.0687 70.5641 57.0098 70.6511C56.9539 70.7349 56.926 70.828 56.926 70.9305C56.926 71.0081 56.9415 71.0779 56.9725 71.14C57.0067 71.199 57.061 71.2533 57.1355 71.303C57.21 71.3526 57.3062 71.3992 57.4242 71.4427C57.5453 71.483 57.6943 71.5203 57.8712 71.5544C58.2344 71.6289 58.5588 71.7267 58.8444 71.8478C59.13 71.9657 59.3566 72.1272 59.5243 72.3321C59.6919 72.5338 59.7757 72.7993 59.7757 73.1283C59.7757 73.3518 59.726 73.5567 59.6267 73.743C59.5274 73.9292 59.3846 74.0922 59.1983 74.2319C59.012 74.3685 58.7885 74.4756 58.5278 74.5532C58.2701 74.6277 57.9799 74.6649 57.657 74.6649C57.1883 74.6649 56.7909 74.5811 56.465 74.4135C56.1421 74.2459 55.8969 74.0332 55.7292 73.7756C55.5647 73.5148 55.4824 73.2478 55.4824 72.9746H56.7537C56.7599 73.1578 56.8064 73.3053 56.8934 73.417C56.9834 73.5288 57.0967 73.6095 57.2333 73.6591C57.373 73.7088 57.5235 73.7336 57.685 73.7336C57.8588 73.7336 58.0031 73.7104 58.118 73.6638C58.2329 73.6141 58.3198 73.5489 58.3788 73.4682C58.4409 73.3844 58.4719 73.2882 58.4719 73.1795Z" fill="#3C3C3B"/>
<path d="M60.4324 72.1039V72.0061C60.4324 71.6367 60.4851 71.2968 60.5907 70.9863C60.6962 70.6728 60.8499 70.4012 61.0517 70.1715C61.2535 69.9417 61.5018 69.7632 61.7967 69.636C62.0916 69.5056 62.43 69.4404 62.8118 69.4404C63.1937 69.4404 63.5336 69.5056 63.8316 69.636C64.1296 69.7632 64.3795 69.9417 64.5813 70.1715C64.7862 70.4012 64.9414 70.6728 65.0469 70.9863C65.1525 71.2968 65.2052 71.6367 65.2052 72.0061V72.1039C65.2052 72.4702 65.1525 72.8101 65.0469 73.1236C64.9414 73.4341 64.7862 73.7057 64.5813 73.9385C64.3795 74.1683 64.1312 74.3467 63.8362 74.474C63.5413 74.6013 63.203 74.6649 62.8211 74.6649C62.4393 74.6649 62.0994 74.6013 61.8014 74.474C61.5065 74.3467 61.2566 74.1683 61.0517 73.9385C60.8499 73.7057 60.6962 73.4341 60.5907 73.1236C60.4851 72.8101 60.4324 72.4702 60.4324 72.1039ZM61.7734 72.0061V72.1039C61.7734 72.315 61.7921 72.5121 61.8293 72.6953C61.8666 72.8784 61.9255 73.0398 62.0063 73.1795C62.0901 73.3161 62.1987 73.4232 62.3322 73.5008C62.4657 73.5784 62.6287 73.6172 62.8211 73.6172C63.0074 73.6172 63.1673 73.5784 63.3007 73.5008C63.4342 73.4232 63.5413 73.3161 63.622 73.1795C63.7028 73.0398 63.7617 72.8784 63.799 72.6953C63.8393 72.5121 63.8595 72.315 63.8595 72.1039V72.0061C63.8595 71.8012 63.8393 71.6087 63.799 71.4287C63.7617 71.2455 63.7012 71.0841 63.6174 70.9444C63.5367 70.8016 63.4296 70.6899 63.2961 70.6092C63.1626 70.5284 63.0012 70.4881 62.8118 70.4881C62.6225 70.4881 62.461 70.5284 62.3275 70.6092C62.1972 70.6899 62.0901 70.8016 62.0063 70.9444C61.9255 71.0841 61.8666 71.2455 61.8293 71.4287C61.7921 71.6087 61.7734 71.8012 61.7734 72.0061Z" fill="#3C3C3B"/>
<path d="M67.3704 70.6324V74.5718H66.0293V69.5335H67.2912L67.3704 70.6324ZM68.8884 69.5009L68.8651 70.7442C68.7999 70.7349 68.7208 70.7271 68.6276 70.7209C68.5376 70.7116 68.4554 70.7069 68.3809 70.7069C68.1915 70.7069 68.027 70.7318 67.8873 70.7814C67.7507 70.828 67.6358 70.8979 67.5427 70.991C67.4527 71.0841 67.3844 71.1974 67.3378 71.3309C67.2943 71.4644 67.2695 71.6165 67.2633 71.7872L66.9932 71.7034C66.9932 71.3775 67.0258 71.0779 67.091 70.8047C67.1562 70.5284 67.2509 70.2879 67.3751 70.083C67.5023 69.8781 67.6575 69.7198 67.8407 69.608C68.0239 69.4963 68.2334 69.4404 68.4693 69.4404C68.5438 69.4404 68.6199 69.4466 68.6975 69.459C68.7751 69.4683 68.8387 69.4823 68.8884 69.5009Z" fill="#3C3C3B"/>
<path fill-rule="evenodd" clip-rule="evenodd" d="M26.9121 15.3954L23.8853 13.3027C20.1034 19.1109 17.8823 26.1878 17.8823 33.8248C17.8823 41.4633 20.1034 48.5387 23.8853 54.3469L26.9121 52.2542C23.4887 47.05 21.4736 40.6928 21.4736 33.8248C21.4736 26.9568 23.4873 20.5983 26.9121 15.3954Z" fill="#3C3C3B"/>
<path fill-rule="evenodd" clip-rule="evenodd" d="M25.4136 12.3838C26.4056 12.3838 27.2086 13.2516 27.2086 14.3212C27.2086 15.3909 26.4056 16.2587 25.4136 16.2587C24.423 16.2587 23.6187 15.3909 23.6187 14.3212C23.6187 13.2516 24.4216 12.3838 25.4136 12.3838Z" fill="#3C3C3B"/>
<path fill-rule="evenodd" clip-rule="evenodd" d="M25.4136 51.3789C26.4056 51.3789 27.2086 52.2453 27.2086 53.3149C27.2086 54.386 26.4056 55.2524 25.4136 55.2524C24.423 55.2524 23.6187 54.386 23.6187 53.3149C23.6187 52.2453 24.4216 51.3789 25.4136 51.3789Z" fill="#3C3C3B"/>
<path fill-rule="evenodd" clip-rule="evenodd" d="M35.7952 20.0154L34.2018 18.9133L32.764 17.9199C29.7696 22.3918 28.0042 27.8867 28.0042 33.8248C28.0042 39.7628 29.7696 45.2578 32.764 49.7311L34.2018 48.7362L35.7952 47.6342C33.1577 43.7691 31.597 38.9938 31.597 33.8248C31.597 28.6558 33.1577 23.8819 35.7952 20.0154Z" fill="#3C3C3B"/>
<path fill-rule="evenodd" clip-rule="evenodd" d="M34.2698 46.7207C35.2618 46.7207 36.0648 47.5871 36.0648 48.6582C36.0648 49.7278 35.2604 50.5957 34.2698 50.5957C33.2792 50.5957 32.4749 49.7278 32.4749 48.6582C32.4749 47.5871 33.2792 46.7207 34.2698 46.7207Z" fill="#3C3C3B"/>
<path fill-rule="evenodd" clip-rule="evenodd" d="M34.2698 17.042C35.2618 17.042 36.0648 17.9098 36.0648 18.9795C36.0648 20.0491 35.2604 20.917 34.2698 20.917C33.2792 20.917 32.4749 20.0491 32.4749 18.9795C32.4749 17.9098 33.2792 17.042 34.2698 17.042Z" fill="#3C3C3B"/>
<path fill-rule="evenodd" clip-rule="evenodd" d="M43.5407 23.876L40.5745 21.8242C38.2433 25.1644 36.8618 29.3215 36.8618 33.8245C36.8618 38.3288 38.2433 42.4832 40.5745 45.8233L43.5407 43.7729C41.5566 41.0283 40.3727 37.5753 40.3727 33.8245C40.3727 30.0737 41.5566 26.6206 43.5407 23.876Z" fill="#3C3C3B"/>
<path fill-rule="evenodd" clip-rule="evenodd" d="M42.0477 20.9775C43.02 20.9775 43.8088 21.8284 43.8088 22.8783C43.8088 23.9282 43.02 24.7791 42.0477 24.7791C41.0755 24.7791 40.2852 23.9282 40.2852 22.8783C40.2852 21.8298 41.0741 20.9775 42.0477 20.9775Z" fill="#3C3C3B"/>
<path fill-rule="evenodd" clip-rule="evenodd" d="M42.0477 42.8984C43.02 42.8984 43.8088 43.7494 43.8088 44.7992C43.8088 45.8491 43.02 46.7 42.0477 46.7C41.0755 46.7 40.2852 45.8491 40.2852 44.7992C40.2852 43.7494 41.0741 42.8984 42.0477 42.8984Z" fill="#3C3C3B"/>
<path fill-rule="evenodd" clip-rule="evenodd" d="M50.9998 28.0057L48.155 26.0371C46.5505 28.1608 45.5881 30.8717 45.5881 33.8252C45.5881 36.7787 46.5519 39.4894 48.155 41.6132L50.9998 39.6447C49.7171 38.1009 48.9368 36.0604 48.9368 33.8252C48.9368 31.5899 49.7171 29.5494 50.9998 28.0057Z" fill="#3C3C3B"/>
<path fill-rule="evenodd" clip-rule="evenodd" d="M49.6042 25.1719C50.5356 25.1719 51.292 25.9875 51.292 26.9937C51.292 27.9998 50.5356 28.8154 49.6042 28.8154C48.6729 28.8154 47.9165 27.9998 47.9165 26.9937C47.9165 25.9875 48.6729 25.1719 49.6042 25.1719Z" fill="#3C3C3B"/>
<path fill-rule="evenodd" clip-rule="evenodd" d="M49.6042 38.8564C50.5356 38.8564 51.292 39.672 51.292 40.6782C51.292 41.6843 50.5356 42.4986 49.6042 42.4986C48.6729 42.4986 47.9165 41.6843 47.9165 40.6782C47.9165 39.672 48.6729 38.8564 49.6042 38.8564Z" fill="#3C3C3B"/>
<path fill-rule="evenodd" clip-rule="evenodd" d="M59.8253 29.6025C62.1565 29.6025 64.0459 31.492 64.0459 33.8246C64.0459 36.1558 62.1565 38.0468 59.8253 38.0468C57.4955 38.0468 55.6045 36.1558 55.6045 33.8246C55.6045 31.492 57.4955 29.6025 59.8253 29.6025ZM59.8253 30.9967C61.3874 30.9967 62.6532 32.2625 62.6532 33.8246C62.6532 35.3854 61.3888 36.6525 59.8253 36.6525C58.2646 36.6525 56.9973 35.3854 56.9973 33.8246C56.9973 32.2625 58.2646 30.9967 59.8253 30.9967Z" fill="#3C3C3B"/>
<path fill-rule="evenodd" clip-rule="evenodd" d="M59.8253 31.8252C60.9302 31.8252 61.8249 32.7198 61.8249 33.8247C61.8249 34.9283 60.9302 35.8243 59.8253 35.8243C58.7218 35.8243 57.8257 34.9283 57.8257 33.8247C57.8257 32.7198 58.7218 31.8252 59.8253 31.8252Z" fill="#0749CA"/>
</g>
<defs>
<clipPath id="clip0_52_443">
<rect width="80" height="80" fill="white" transform="translate(0.963867 0.495117)"/>
</clipPath>
</defs>
</svg>
