<svg width="60" height="47" viewBox="0 0 60 47" fill="none" xmlns="http://www.w3.org/2000/svg">
<g clip-path="url(#clip0_52_270)">
<path fill-rule="evenodd" clip-rule="evenodd" d="M30.3555 2.53418C41.8537 2.53418 51.1745 11.8307 51.1745 23.3004C51.1745 34.7701 41.8537 44.0652 30.3555 44.0652C18.8573 44.0652 9.53638 34.7687 9.53638 23.3004C9.53638 11.8321 18.8573 2.53418 30.3555 2.53418ZM30.3555 6.3372C39.7485 6.3372 47.363 13.9319 47.363 23.3004C47.363 32.6675 39.7485 40.2622 30.3555 40.2622C20.9625 40.2622 13.348 32.6675 13.348 23.3004C13.3494 13.9319 20.9639 6.3372 30.3555 6.3372Z" fill="#3C3C3B"/>
<path fill-rule="evenodd" clip-rule="evenodd" d="M49.4345 1.52421C62.663 13.0616 62.663 33.7135 49.4345 45.2496C49.0723 45.6165 48.57 45.8451 48.0112 45.8451C46.909 45.8451 46.0149 44.9518 46.0149 43.8525C46.0149 43.1456 46.3856 42.5247 46.9416 42.1719C58.205 32.2276 58.205 14.5461 46.9416 4.60189C46.3842 4.24911 46.0149 3.62823 46.0149 2.91984C46.0149 1.82057 46.909 0.928711 48.0112 0.928711C48.5686 0.928711 49.0723 1.1559 49.4345 1.52421ZM10.7038 44.7359C10.8934 44.9095 11.1976 45.2101 11.3957 45.3695C11.7381 45.6433 12.1738 45.8084 12.6463 45.8084C13.7499 45.8084 14.6441 44.918 14.6441 43.8173C14.6441 43.3417 14.4772 42.9057 14.1985 42.5628C13.9113 42.21 13.3114 41.7613 12.9506 41.4141C2.73839 31.5573 2.81762 15.1417 12.9506 5.35969C13.3114 5.01255 13.9127 4.56379 14.1985 4.21242C14.4772 3.86951 14.6441 3.43349 14.6441 2.95653C14.6441 1.85726 13.7499 0.965402 12.6463 0.965402C12.1738 0.965402 11.7381 1.13052 11.3957 1.40569C11.1976 1.56374 10.8934 1.86569 10.7038 2.03926C-1.75933 13.5019 -1.75933 33.2719 10.7038 44.7359Z" fill="#3C3C3B"/>
<path d="M24.3083 26.3257V27.3779H19.1277V26.3257H24.3083ZM19.3898 17.6201V27.3779H18.093V17.6201H19.3898ZM23.6229 21.8154V22.8676H19.1277V21.8154H23.6229ZM24.2411 17.6201V18.679H19.1277V17.6201H24.2411Z" fill="#424956"/>
<path d="M26.3242 17.6201H27.5807L30.7858 25.5751L33.9841 17.6201H35.2474L31.2696 27.3779H30.2885L26.3242 17.6201ZM25.9143 17.6201H27.023L27.2044 23.5713V27.3779H25.9143V17.6201ZM34.5418 17.6201H35.6505V27.3779H34.3604V23.5713L34.5418 17.6201Z" fill="#424956"/>
<path d="M41.4158 22.814H38.9364L38.9229 21.7752H41.1739C41.5457 21.7752 41.8704 21.7127 42.1482 21.5876C42.4259 21.4625 42.6409 21.2837 42.7932 21.0514C42.95 20.8146 43.0284 20.5331 43.0284 20.207C43.0284 19.8496 42.959 19.5591 42.8201 19.3358C42.6857 19.1079 42.4774 18.9426 42.1952 18.8398C41.9175 18.7326 41.5636 18.679 41.1336 18.679H39.2253V27.3779H37.9285V17.6201H41.1336C41.6353 17.6201 42.0832 17.6715 42.4774 17.7742C42.8716 17.8725 43.2053 18.0289 43.4786 18.2434C43.7563 18.4534 43.9669 18.7214 44.1102 19.0476C44.2535 19.3737 44.3252 19.7647 44.3252 20.2204C44.3252 20.6225 44.2222 20.9866 44.0161 21.3128C43.8101 21.6345 43.5234 21.8981 43.1561 22.1036C42.7932 22.3091 42.3677 22.4409 41.8794 22.499L41.4158 22.814ZM41.3553 27.3779H38.4257L39.1581 26.3257H41.3553C41.7674 26.3257 42.1168 26.2542 42.4035 26.1113C42.6947 25.9683 42.9164 25.7672 43.0687 25.5081C43.221 25.2445 43.2972 24.934 43.2972 24.5765C43.2972 24.2147 43.2322 23.9019 43.1023 23.6383C42.9724 23.3747 42.7686 23.1714 42.4909 23.0284C42.2131 22.8855 41.8548 22.814 41.4158 22.814H39.568L39.5814 21.7752H42.1079L42.3833 22.1505C42.8537 22.1907 43.2524 22.3247 43.5794 22.5526C43.9064 22.776 44.155 23.0619 44.3252 23.4104C44.4999 23.7589 44.5873 24.1432 44.5873 24.5631C44.5873 25.1708 44.4529 25.6846 44.1841 26.1046C43.9198 26.5201 43.5458 26.8373 43.062 27.0562C42.5782 27.2707 42.0093 27.3779 41.3553 27.3779Z" fill="#424956"/>
</g>
<defs>
<clipPath id="clip0_52_270">
<rect width="59" height="46" fill="white" transform="translate(0.463867 0.495117)"/>
</clipPath>
</defs>
</svg>
