<svg width="45" height="65" viewBox="0 0 45 65" fill="none" xmlns="http://www.w3.org/2000/svg">
<g clip-path="url(#clip0_52_304)">
<path fill-rule="evenodd" clip-rule="evenodd" d="M19.4733 1.2998C23.1239 1.2998 26.0817 4.25893 26.0817 7.90812C26.0817 10.1716 24.9429 12.1697 23.2087 13.3607C23.0873 12.5141 22.8685 11.7379 22.575 11.0676C23.3935 10.2647 23.9001 9.14569 23.9001 7.90812C23.9001 5.46404 21.9188 3.48141 19.4733 3.48141C17.0293 3.48141 15.0467 5.46404 15.0467 7.90812C15.0467 9.35312 15.7395 10.6387 16.812 11.4458C16.5608 12.1175 16.3788 12.8795 16.2885 13.6994C14.248 12.5747 12.865 10.403 12.865 7.90812C12.865 4.25893 15.8241 1.2998 19.4733 1.2998Z" fill="#424956"/>
<path fill-rule="evenodd" clip-rule="evenodd" d="M19.4733 4.77637C21.2019 4.77637 22.6032 6.17903 22.6032 7.90767C22.6032 8.65839 22.3379 9.34846 21.8976 9.88893C21.3049 9.10152 20.5683 8.63442 19.7696 8.63442C18.8566 8.63442 18.0241 9.24542 17.3947 10.2487C16.7484 9.67581 16.342 8.83901 16.342 7.90767C16.3434 6.17903 17.746 4.77637 19.4733 4.77637Z" fill="#424956"/>
<path fill-rule="evenodd" clip-rule="evenodd" d="M10.0401 45.068C9.73953 45.4462 9.12285 45.7044 8.41305 45.7044C7.70184 45.7044 7.08518 45.4434 6.78461 45.0652H6.78186L3.96519 42.2698C3.46706 41.7716 2.79956 41.2114 2.43408 40.6286C1.32351 38.8506 1.56487 36.8129 2.88005 35.3171C3.89324 34.1684 5.09126 33.9427 6.47558 33.9427C8.89709 33.9427 13.8728 37.3237 15.2501 37.6427V11.2305V11.2234V11.2163V11.2107V11.2036V11.1966V11.1909V11.1839V11.1783V11.1726V11.1656V11.1599V11.1542V11.1486V11.1416V11.1359V11.1303V11.1246V11.119V11.1133V11.1077V11.102V11.0964V11.0922V11.0865V11.0809V11.0766V11.071V11.0668V10.8043H15.2585C15.2656 10.6759 15.2825 10.5066 15.3489 10.2709C15.4166 10.0226 15.5379 9.70081 15.7059 9.39318C15.8738 9.08556 16.0855 8.79485 16.3155 8.53943C16.5455 8.28402 16.7938 8.06389 17.0507 7.86633C17.3089 7.67019 17.5756 7.49661 17.8465 7.35973C18.1174 7.22143 18.394 7.11983 18.6212 7.06198C18.8498 7.00271 19.0305 6.98721 19.2605 6.97451C19.4905 6.96181 19.7699 6.95473 20.0536 6.96461C20.3372 6.97449 20.6237 7.00133 20.8974 7.0606C21.1712 7.11987 21.4309 7.20877 21.6764 7.32166C21.9219 7.43455 22.1534 7.56718 22.382 7.7337C22.6091 7.90021 22.8335 8.10202 23.0339 8.31369C23.2342 8.52536 23.412 8.75111 23.5743 8.98536C23.738 9.21961 23.8876 9.46231 23.9976 9.69515C24.1077 9.92799 24.1783 10.1481 24.2235 10.3443C24.2602 10.5037 24.2785 10.6477 24.2898 10.8043H24.3053V11.2968V11.3053V11.3137V11.3236V11.332V11.3405V11.349V11.3575V11.3659V11.3744V11.3829V11.3899V11.3984V11.4069V11.4153V11.4224V11.4294V11.4365V11.4435V11.4506V11.4577V11.4647V11.4718V11.4788V11.4859V11.4929V11.5V11.507V11.5127V11.5197V11.5254V11.5311V11.5367V11.5423V11.548V11.5536V11.5593V18.8619C24.4168 18.7927 24.5297 18.7292 24.6426 18.6714C24.9135 18.5345 25.1887 18.4329 25.4173 18.3736C25.6445 18.3144 25.8265 18.2988 26.0566 18.2861C26.2866 18.2748 26.5645 18.2664 26.8495 18.2763C27.1332 18.2861 27.4197 18.3129 27.6934 18.3722C27.9672 18.4315 28.2268 18.5204 28.4724 18.6347C28.7193 18.7476 28.9508 18.8802 29.1779 19.0467C29.4065 19.2147 29.6309 19.4151 29.8313 19.6267C30.0331 19.8384 30.2095 20.0641 30.3732 20.2984C30.5354 20.5326 30.6864 20.7753 30.7965 21.0082C30.8275 21.0773 30.8586 21.1465 30.8854 21.2128C31.0675 21.0886 31.2537 20.9758 31.4428 20.8798C31.7137 20.7415 31.9889 20.6399 32.2175 20.582C32.4447 20.5228 32.6267 20.5073 32.8568 20.4946C33.0868 20.4819 33.3648 20.4748 33.6498 20.4847C33.9321 20.4946 34.22 20.5228 34.4937 20.582C34.7661 20.6413 35.027 20.7302 35.2726 20.8431C35.5181 20.956 35.751 21.0886 35.9796 21.2552C36.0586 21.313 36.1348 21.3737 36.2124 21.4386L36.2153 21.44L36.2223 21.4457L36.2336 21.4541L36.2449 21.4626C36.6513 21.8013 36.9985 22.1936 37.2398 22.6L37.2411 22.6028H37.2426C37.3781 22.806 37.5022 23.0134 37.5968 23.2124L37.6518 23.338C37.9566 23.2307 38.2092 23.0191 38.6537 22.8723C41.699 21.8732 44.644 24.0929 44.644 27.3837V44.9298L44.6468 45.0017C44.6468 45.6438 44.1261 46.1659 43.4826 46.1659C42.8603 46.1659 42.3509 45.6762 42.3198 45.061H42.3184V45.0017V27.0676C42.3184 24.9354 39.1998 24.0534 38.1203 26.1462C37.7026 26.9547 37.8706 30.8593 37.879 32.0376C37.8818 32.6374 37.9467 32.9196 37.7111 33.35C37.2172 34.2489 35.9486 34.1162 35.6198 33.1327C35.3686 32.3791 35.7651 25.2486 35.4673 24.2989C34.9523 22.6522 32.9979 22.2585 31.8605 23.2703L31.4301 23.7924C31.3045 23.997 31.2199 24.3272 31.162 24.7449V24.7505L31.1606 24.7689C31.1578 24.7999 31.1549 24.831 31.1479 24.8634C30.8558 27.2694 31.4089 32.2436 31.0152 33.2117C30.8671 33.5729 30.558 33.9427 30.0542 33.9427C28.4977 33.9427 28.7856 32.5809 28.7856 30.7718C28.7856 29.5272 28.8661 22.9767 28.7617 22.3375C28.6925 21.9099 28.5345 21.5557 28.3172 21.2749H28.3242L28.2692 21.2128C28.1097 21.0364 27.9051 20.8756 27.6694 20.7485C27.4323 20.6201 27.1657 20.527 26.9202 20.4819C26.6746 20.4367 26.4502 20.4395 26.2357 20.4663C26.0226 20.4917 25.8166 20.5383 25.6176 20.6343C25.4187 20.7274 25.2267 20.8699 25.056 21.0265C24.9586 21.1168 24.8669 21.2114 24.7879 21.3116C24.5847 21.5826 24.438 21.917 24.3745 22.3135C24.3745 22.3855 24.3731 22.4758 24.366 22.5647L24.359 22.6282L24.3491 30.8777C24.3491 32.1957 24.6016 33.9441 23.2921 33.9441C22.6923 33.9441 22.3001 33.7634 22.0913 33.1369C21.8528 32.42 21.991 13.5546 21.991 11.0654V11.0583V11.0526V11.047V11.0414V11.0357V11.0301V11.0244V11.0188V11.0132V11.0075V11.0033V10.9976V10.9934V10.9892V10.9849V10.9793V10.975V10.9708V10.9666V10.9623V10.9581V10.9539V10.9496V10.9454V10.9412C21.991 10.8706 21.9854 10.8297 21.9699 10.7662C21.9487 10.6843 21.9064 10.5672 21.8274 10.4134C21.7498 10.261 21.6354 10.0705 21.476 9.89695C21.3165 9.72197 21.1105 9.56113 20.8763 9.43272C20.6406 9.3043 20.3725 9.20972 20.1269 9.16597C19.8814 9.11941 19.657 9.12365 19.4426 9.14905C19.2281 9.17445 19.0235 9.22246 18.8245 9.317C18.6255 9.41155 18.4336 9.55265 18.2628 9.7107C18.0907 9.86733 17.9411 10.0409 17.8325 10.2257C17.7224 10.4106 17.6518 10.6081 17.6165 10.7168C17.5869 10.8085 17.5826 10.8396 17.5812 10.8904V10.8946V10.896V10.8988V10.9017V10.9045V10.9073V10.9101V10.9129V10.9172V10.92V10.9229V10.9271V10.9299V10.9327V10.9369V10.9398V10.944V10.9482V10.9511V10.9553V10.9581V10.9623V10.9666V10.9708V10.975V10.9793V10.9835V10.9878V10.992V10.9962V11.0005V11.0061V11.0103V11.0145V11.0188L17.5841 37.5354C17.5841 38.8802 17.8648 40.7062 16.5271 40.7062C15.7312 40.7062 12.37 38.8393 11.4527 38.3807C10.2744 37.7908 7.64404 36.2668 6.37826 36.2668C5.04615 36.2668 4.05269 36.8326 4.05269 38.2762C4.05269 39.2062 4.59595 39.6126 5.08279 40.0994L10.0472 45.0638H10.0429L10.0401 45.068ZM31.5416 45.0201L31.4865 45.0737L31.5416 45.1287L33.9602 47.5474C34.4302 48.0173 34.4302 48.7864 33.9602 49.2563C33.4903 49.7262 32.7213 49.7262 32.2514 49.2563L29.8327 46.8362L29.7777 46.7826L29.7241 46.8362L27.304 49.2563C26.834 49.7262 26.0664 49.7262 25.5965 49.2563C25.1251 48.7864 25.1251 48.0173 25.5965 47.5474L28.0152 45.1287L28.0702 45.0737L28.0152 45.0201L25.5965 42.6C25.1251 42.1301 25.1251 41.361 25.5965 40.8911C26.0664 40.4226 26.834 40.4226 27.304 40.8911L29.7241 43.3112L29.7777 43.3662L29.8327 43.3112L32.2514 40.8911C32.7213 40.4226 33.4903 40.4226 33.9602 40.8911C34.4302 41.361 34.4302 42.1301 33.9602 42.6L31.5416 45.0201Z" fill="#3C3C3B" stroke="#3C3C3B" stroke-width="0.216" stroke-miterlimit="22.9256"/>
<path d="M12.129 57.1982V63.9774H10.7322L8.00838 59.4331V63.9774H6.61157V57.1982H8.00838L10.7368 61.7472V57.1982H12.129Z" fill="#3C3C3B"/>
<path d="M13.0464 61.5099V61.4122C13.0464 61.0428 13.0991 60.7029 13.2047 60.3925C13.3102 60.079 13.4639 59.8074 13.6656 59.5777C13.8674 59.348 14.1157 59.1695 14.4106 59.0422C14.7055 58.9119 15.0438 58.8467 15.4256 58.8467C15.8074 58.8467 16.1473 58.9119 16.4453 59.0422C16.7433 59.1695 16.9931 59.348 17.1949 59.5777C17.3998 59.8074 17.555 60.079 17.6605 60.3925C17.7661 60.7029 17.8188 61.0428 17.8188 61.4122V61.5099C17.8188 61.8762 17.7661 62.2161 17.6605 62.5296C17.555 62.84 17.3998 63.1116 17.1949 63.3444C16.9931 63.5741 16.7448 63.7526 16.4499 63.8799C16.1551 64.0071 15.8167 64.0708 15.4349 64.0708C15.0531 64.0708 14.7132 64.0071 14.4152 63.8799C14.1204 63.7526 13.8705 63.5741 13.6656 63.3444C13.4639 63.1116 13.3102 62.84 13.2047 62.5296C13.0991 62.2161 13.0464 61.8762 13.0464 61.5099ZM14.3873 61.4122V61.5099C14.3873 61.721 14.4059 61.9181 14.4432 62.1013C14.4804 62.2844 14.5394 62.4458 14.6201 62.5855C14.7039 62.7221 14.8126 62.8291 14.946 62.9067C15.0795 62.9843 15.2425 63.0231 15.4349 63.0231C15.6212 63.0231 15.781 62.9843 15.9145 62.9067C16.048 62.8291 16.1551 62.7221 16.2358 62.5855C16.3165 62.4458 16.3754 62.2844 16.4127 62.1013C16.453 61.9181 16.4732 61.721 16.4732 61.5099V61.4122C16.4732 61.2073 16.453 61.0148 16.4127 60.8348C16.3754 60.6517 16.3149 60.4903 16.2311 60.3506C16.1504 60.2078 16.0433 60.096 15.9098 60.0153C15.7764 59.9346 15.615 59.8943 15.4256 59.8943C15.2363 59.8943 15.0749 59.9346 14.9414 60.0153C14.811 60.096 14.7039 60.2078 14.6201 60.3506C14.5394 60.4903 14.4804 60.6517 14.4432 60.8348C14.4059 61.0148 14.3873 61.2073 14.3873 61.4122Z" fill="#3C3C3B"/>
<path d="M21.218 57.1982V63.9774H19.8258V57.1982H21.218ZM23.3039 57.1982V58.2924H17.7725V57.1982H23.3039Z" fill="#3C3C3B"/>
<path d="M22.3315 61.5109V61.4131C22.3315 61.0438 22.3842 60.7039 22.4898 60.3935C22.5953 60.08 22.749 59.8084 22.9507 59.5787C23.1525 59.349 23.4008 59.1705 23.6957 59.0432C23.9906 58.9128 24.3289 58.8477 24.7107 58.8477C25.0925 58.8477 25.4324 58.9128 25.7304 59.0432C26.0284 59.1705 26.2783 59.349 26.48 59.5787C26.6849 59.8084 26.8401 60.08 26.9456 60.3935C27.0512 60.7039 27.1039 61.0438 27.1039 61.4131V61.5109C27.1039 61.8772 27.0512 62.2171 26.9456 62.5306C26.8401 62.841 26.6849 63.1126 26.48 63.3454C26.2783 63.5751 26.0299 63.7536 25.735 63.8809C25.4402 64.0081 25.1018 64.0718 24.72 64.0718C24.3382 64.0718 23.9983 64.0081 23.7004 63.8809C23.4055 63.7536 23.1556 63.5751 22.9507 63.3454C22.749 63.1126 22.5953 62.841 22.4898 62.5306C22.3842 62.2171 22.3315 61.8772 22.3315 61.5109ZM23.6724 61.4131V61.5109C23.6724 61.722 23.691 61.9191 23.7283 62.1022C23.7655 62.2854 23.8245 62.4468 23.9052 62.5865C23.989 62.723 24.0977 62.8301 24.2311 62.9077C24.3646 62.9853 24.5276 63.0241 24.72 63.0241C24.9063 63.0241 25.0661 62.9853 25.1996 62.9077C25.3331 62.8301 25.4402 62.723 25.5209 62.5865C25.6016 62.4468 25.6606 62.2854 25.6978 62.1022C25.7382 61.9191 25.7583 61.722 25.7583 61.5109V61.4131C25.7583 61.2083 25.7382 61.0158 25.6978 60.8358C25.6606 60.6527 25.6 60.4912 25.5162 60.3516C25.4355 60.2088 25.3284 60.097 25.1949 60.0163C25.0615 59.9356 24.9001 59.8953 24.7107 59.8953C24.5214 59.8953 24.36 59.9356 24.2265 60.0163C24.0961 60.097 23.989 60.2088 23.9052 60.3516C23.8245 60.4912 23.7655 60.6527 23.7283 60.8358C23.691 61.0158 23.6724 61.2083 23.6724 61.4131Z" fill="#3C3C3B"/>
<path d="M30.908 62.7733V58.9414H32.249V63.9792H30.9872L30.908 62.7733ZM31.057 61.7397L31.4528 61.7304C31.4528 62.0656 31.414 62.3775 31.3364 62.6662C31.2588 62.9518 31.1424 63.2001 30.9872 63.4112C30.832 63.6192 30.6364 63.7821 30.4005 63.9001C30.1646 64.0149 29.8868 64.0724 29.5671 64.0724C29.3219 64.0724 29.0953 64.0382 28.8873 63.9699C28.6824 63.8985 28.5055 63.7883 28.3565 63.6393C28.2106 63.4872 28.0958 63.2932 28.012 63.0573C27.9313 62.8183 27.8909 62.5312 27.8909 62.196V58.9414H29.2318V62.2053C29.2318 62.3543 29.2489 62.48 29.2831 62.5824C29.3203 62.6848 29.3715 62.7687 29.4367 62.8338C29.5019 62.899 29.5779 62.9456 29.6649 62.9735C29.7549 63.0015 29.8542 63.0154 29.9628 63.0154C30.2391 63.0154 30.4564 62.9596 30.6147 62.8478C30.7761 62.7361 30.8894 62.584 30.9546 62.3915C31.0229 62.196 31.057 61.9787 31.057 61.7397Z" fill="#3C3C3B"/>
<path d="M35.3545 63.0241C35.5191 63.0241 35.665 62.9931 35.7922 62.931C35.9195 62.8658 36.0188 62.7758 36.0902 62.661C36.1647 62.543 36.2035 62.4049 36.2066 62.2466H37.4684C37.4653 62.6004 37.3706 62.9155 37.1844 63.1918C36.9981 63.4649 36.7483 63.6806 36.4348 63.8389C36.1212 63.9941 35.7705 64.0718 35.3825 64.0718C34.9914 64.0718 34.6499 64.0066 34.3582 63.8762C34.0695 63.7458 33.8289 63.5658 33.6365 63.3361C33.444 63.1033 33.2997 62.8332 33.2035 62.5259C33.1072 62.2155 33.0591 61.8834 33.0591 61.5295V61.3945C33.0591 61.0376 33.1072 60.7054 33.2035 60.3981C33.2997 60.0877 33.444 59.8177 33.6365 59.588C33.8289 59.3552 34.0695 59.1736 34.3582 59.0432C34.6468 58.9128 34.9852 58.8477 35.3732 58.8477C35.786 58.8477 36.1476 58.9268 36.458 59.0851C36.7715 59.2434 37.0168 59.47 37.1937 59.7649C37.3737 60.0567 37.4653 60.4028 37.4684 60.8032H36.2066C36.2035 60.6356 36.1678 60.4835 36.0995 60.3469C36.0343 60.2103 35.9381 60.1017 35.8108 60.021C35.6867 59.9372 35.533 59.8953 35.3499 59.8953C35.1543 59.8953 34.9945 59.9372 34.8703 60.021C34.7462 60.1017 34.6499 60.2134 34.5816 60.3562C34.5134 60.4959 34.4652 60.6558 34.4373 60.8358C34.4125 61.0127 34.4001 61.199 34.4001 61.3945V61.5295C34.4001 61.7251 34.4125 61.9129 34.4373 62.0929C34.4621 62.273 34.5087 62.4328 34.577 62.5725C34.6484 62.7122 34.7462 62.8224 34.8703 62.9031C34.9945 62.9838 35.1559 63.0241 35.3545 63.0241Z" fill="#3C3C3B"/>
<path d="M39.5543 56.8271V63.9788H38.2134V56.8271H39.5543ZM39.3634 61.283H38.9956C38.9987 60.9322 39.0452 60.6094 39.1353 60.3145C39.2253 60.0165 39.3541 59.7589 39.5217 59.5416C39.6893 59.3212 39.8895 59.1505 40.1223 59.0294C40.3583 58.9084 40.619 58.8479 40.9046 58.8479C41.1529 58.8479 41.3779 58.8836 41.5797 58.9549C41.7846 59.0232 41.9599 59.135 42.1058 59.2902C42.2548 59.4423 42.3697 59.6425 42.4504 59.8908C42.5311 60.1391 42.5714 60.4402 42.5714 60.7941V63.9788H41.2212V60.7848C41.2212 60.5613 41.1886 60.3859 41.1234 60.2586C41.0613 60.1283 40.9697 60.0367 40.8487 59.9839C40.7307 59.9281 40.5848 59.9001 40.411 59.9001C40.2186 59.9001 40.0541 59.9358 39.9175 60.0072C39.784 60.0786 39.6769 60.1779 39.5962 60.3052C39.5155 60.4294 39.4565 60.5753 39.4193 60.7429C39.382 60.9105 39.3634 61.0905 39.3634 61.283Z" fill="#3C3C3B"/>
</g>
<defs>
<clipPath id="clip0_52_304">
<rect width="44" height="64" fill="white" transform="translate(0.963867 0.495117)"/>
</clipPath>
</defs>
</svg>
