<svg width="81" height="81" viewBox="0 0 81 81" fill="none" xmlns="http://www.w3.org/2000/svg">
<path fill-rule="evenodd" clip-rule="evenodd" d="M42.6621 17.4561C44.2384 17.5352 45.7695 17.7821 47.2399 18.1786C47.0649 18.7558 47.3824 19.3682 47.9581 19.5559C48.5324 19.7436 49.1519 19.4359 49.3481 18.8658C50.8114 19.4275 52.2 20.1429 53.4912 20.991C53.1483 21.4849 53.2612 22.1637 53.748 22.5193C54.2363 22.8749 54.9164 22.7761 55.2819 22.3005C56.4546 23.2545 57.527 24.3284 58.4781 25.5024C58.0026 25.8679 57.9024 26.5481 58.258 27.0349C58.6136 27.5232 59.2924 27.636 59.7863 27.2945C60.6442 28.6055 61.3667 30.0166 61.9297 31.504C61.3596 31.7001 61.0492 32.3168 61.2341 32.8925C61.4175 33.4697 62.0286 33.7886 62.6085 33.6179C62.9952 35.0826 63.2337 36.608 63.307 38.1772C62.7073 38.1899 62.2233 38.6781 62.2204 39.2821C62.2176 39.8861 62.6989 40.3786 63.2986 40.3955C63.2111 41.9915 62.9543 43.5409 62.5422 45.0283C61.9679 44.8505 61.3512 45.1637 61.1607 45.7366C60.9688 46.311 61.2721 46.9319 61.8394 47.1323C61.2792 48.5674 60.5694 49.9263 59.7312 51.1935C59.2387 50.8506 58.56 50.9607 58.203 51.4475C57.8445 51.9329 57.9419 52.6117 58.4147 52.98C57.4621 54.1428 56.3924 55.2068 55.224 56.1508C54.8585 55.6753 54.1812 55.5737 53.6915 55.9279C53.2019 56.2835 53.089 56.9622 53.4291 57.4561C52.1619 58.2844 50.8016 58.983 49.3679 59.5347C49.1689 58.966 48.5508 58.6584 47.9751 58.8461C47.4008 59.0352 47.0833 59.6476 47.2582 60.2247C45.7822 60.6241 44.244 60.8724 42.6621 60.9529C42.6466 60.3517 42.1569 59.8705 41.553 59.8705C40.949 59.8705 40.4579 60.3517 40.4438 60.9529C38.8676 60.8739 37.3366 60.6269 35.8662 60.229C36.0411 59.6532 35.7236 59.0394 35.1478 58.8517C34.5721 58.664 33.9555 58.9731 33.7565 59.5417C32.2932 58.9815 30.9059 58.2661 29.6148 57.4166C29.9577 56.9227 29.8463 56.2439 29.358 55.8869C28.8712 55.5313 28.1895 55.6301 27.8241 56.1056C26.65 55.1517 25.5803 54.0779 24.6278 52.9038C25.1034 52.5383 25.2036 51.8581 24.8494 51.3699C24.4938 50.8816 23.8151 50.7687 23.3212 51.1116C22.4632 49.7993 21.7421 48.3881 21.1791 46.9022C21.7492 46.7061 22.061 46.0894 21.8762 45.5137C21.6913 44.938 21.0803 44.6176 20.5017 44.7898C20.1151 43.325 19.8751 41.7982 19.8018 40.2304C20.4015 40.2177 20.8855 39.7295 20.8884 39.1255C20.8912 38.5229 20.4114 38.029 19.8117 38.0121C19.8978 36.4161 20.156 34.8667 20.5681 33.3794C21.1424 33.5572 21.7562 33.2439 21.9481 32.671C22.1386 32.0966 21.8352 31.4772 21.2693 31.2754C21.8295 29.8417 22.5394 28.4813 23.3762 27.2141C23.8687 27.557 24.5474 27.447 24.9045 26.9615C25.2615 26.4761 25.1655 25.7959 24.6914 25.429C25.6425 24.2648 26.7121 23.2022 27.8819 22.2568C28.246 22.7337 28.9262 22.834 29.4144 22.4798C29.9027 22.1256 30.017 21.4468 29.6755 20.9515C30.9441 20.1246 32.3045 19.426 33.7382 18.8743C33.9371 19.443 34.5552 19.7506 35.1295 19.5629C35.7052 19.3753 36.0213 18.7614 35.8463 18.1857C37.3224 17.7863 38.8606 17.538 40.4424 17.4575C40.4565 18.0572 40.9476 18.5399 41.5516 18.5399C42.1556 18.5399 42.6466 18.0559 42.6621 17.4561ZM41.553 23.8556C50.0282 23.8556 56.9004 30.7264 56.9004 39.2031C56.9004 47.6798 50.0282 54.5506 41.553 54.5506C33.0763 54.5506 26.2055 47.6798 26.2055 39.2031C26.2055 30.7264 33.0763 23.8556 41.553 23.8556Z" fill="#3C3C3B"/>
<path fill-rule="evenodd" clip-rule="evenodd" d="M41.5527 25.5732C49.0811 25.5732 55.1843 31.6763 55.1843 39.2062C55.1843 46.7346 49.0811 52.8377 41.5527 52.8377C34.0243 52.8377 27.9197 46.7346 27.9197 39.2062C27.9197 31.6778 34.0243 25.5732 41.5527 25.5732ZM41.5527 27.7308C47.8901 27.7308 53.0281 32.8688 53.0281 39.2062C53.0281 45.5436 47.8901 50.6815 41.5527 50.6815C35.2153 50.6815 30.0773 45.5436 30.0773 39.2062C30.0773 32.8688 35.2153 27.7308 41.5527 27.7308Z" fill="#3C3C3B"/>
<path fill-rule="evenodd" clip-rule="evenodd" d="M41.5527 7.95605C50.44 7.95605 58.3227 12.2487 63.2447 18.874H61.1167C56.4713 13.2309 49.4325 9.63388 41.5527 9.63388C33.673 9.63388 26.6342 13.2323 21.9888 18.874H19.8608C24.7828 12.2487 32.6654 7.95605 41.5527 7.95605Z" fill="#3C3C3B" stroke="#3C3C3B" stroke-width="0.216" stroke-miterlimit="22.9256"/>
<path d="M22.5631 16.7451C22.2018 17.2207 21.8405 17.6962 21.4778 18.1717" stroke="#3C3C3B" stroke-width="0.5669" stroke-miterlimit="22.9256"/>
<path fill-rule="evenodd" clip-rule="evenodd" d="M16.4866 24.7437L25.2201 20.4426L18.2858 15.1748L16.4866 24.7437Z" fill="#3C3C3B"/>
<path d="M60.417 16.7451C60.7783 17.2207 61.141 17.6962 61.5022 18.1717" stroke="#3C3C3B" stroke-width="0.5669" stroke-miterlimit="22.9256"/>
<path fill-rule="evenodd" clip-rule="evenodd" d="M66.4946 24.7423L64.6926 15.1748L57.7583 20.4426L66.4946 24.7423Z" fill="#3C3C3B"/>
<path d="M30.1779 71.1214C30.1779 71.0003 30.1593 70.8917 30.122 70.7954C30.0879 70.6961 30.0227 70.6061 29.9265 70.5253C29.8302 70.4415 29.6952 70.3593 29.5214 70.2786C29.3475 70.1978 29.1224 70.114 28.8462 70.0271C28.5388 69.9278 28.247 69.816 27.9707 69.6918C27.6976 69.5677 27.4554 69.4233 27.2443 69.2588C27.0364 69.0912 26.8718 68.8971 26.7508 68.6767C26.6328 68.4563 26.5738 68.2002 26.5738 67.9084C26.5738 67.6259 26.6359 67.3698 26.7601 67.1401C26.8842 66.9073 27.0581 66.7086 27.2816 66.5441C27.5051 66.3764 27.769 66.2476 28.0732 66.1576C28.3805 66.0676 28.7173 66.0225 29.0836 66.0225C29.5834 66.0225 30.0196 66.1126 30.3921 66.2926C30.7646 66.4727 31.0533 66.7195 31.2582 67.033C31.4662 67.3465 31.5702 67.7051 31.5702 68.1086H30.1826C30.1826 67.91 30.1407 67.7361 30.0568 67.5871C29.9761 67.435 29.852 67.3155 29.6843 67.2286C29.5198 67.1416 29.3118 67.0982 29.0604 67.0982C28.8182 67.0982 28.6164 67.1354 28.455 67.2099C28.2936 67.2813 28.1725 67.3791 28.0918 67.5033C28.0111 67.6244 27.9707 67.761 27.9707 67.9131C27.9707 68.0279 27.9987 68.1319 28.0546 68.2251C28.1135 68.3182 28.2005 68.4051 28.3153 68.4858C28.4302 68.5665 28.5714 68.6426 28.7391 68.714C28.9067 68.7854 29.1007 68.8552 29.3211 68.9235C29.6905 69.0353 30.0149 69.161 30.2943 69.3007C30.5768 69.4404 30.8127 69.5972 31.0021 69.771C31.1915 69.9448 31.3343 70.142 31.4305 70.3624C31.5267 70.5828 31.5749 70.8327 31.5749 71.1121C31.5749 71.407 31.5174 71.6708 31.4026 71.9037C31.2877 72.1365 31.1216 72.3336 30.9043 72.495C30.687 72.6565 30.4278 72.7791 30.1267 72.8629C29.8256 72.9467 29.4888 72.9886 29.1162 72.9886C28.781 72.9886 28.4504 72.9452 28.1244 72.8582C27.7985 72.7682 27.502 72.6332 27.235 72.4531C26.9712 72.2731 26.7601 72.0434 26.6017 71.764C26.4434 71.4846 26.3643 71.154 26.3643 70.7721H27.7659C27.7659 70.9832 27.7985 71.1617 27.8637 71.3076C27.9288 71.4535 28.0204 71.5715 28.1384 71.6615C28.2594 71.7515 28.4022 71.8167 28.5668 71.8571C28.7344 71.8975 28.9176 71.9176 29.1162 71.9176C29.3584 71.9176 29.5571 71.8835 29.7123 71.8152C29.8706 71.7469 29.987 71.6522 30.0615 71.5311C30.1391 71.4101 30.1779 71.2735 30.1779 71.1214Z" fill="#3C3C3B"/>
<path d="M35.0857 69.459V70.5114H32.4548V69.459H35.0857Z" fill="#3C3C3B"/>
<path d="M37.0649 72.897H35.5888L35.5981 71.8074H37.0649C37.4312 71.8074 37.7401 71.7251 37.9915 71.5606C38.243 71.393 38.4323 71.1493 38.5596 70.8295C38.69 70.5098 38.7552 70.1233 38.7552 69.6701V69.3395C38.7552 68.9918 38.7179 68.686 38.6434 68.4221C38.572 68.1583 38.4649 67.9363 38.3221 67.7563C38.1793 67.5762 38.0039 67.4412 37.7959 67.3512C37.5879 67.258 37.3489 67.2115 37.0788 67.2115H35.5608V66.1172H37.0788C37.5321 66.1172 37.9465 66.1948 38.3221 66.35C38.7008 66.5021 39.0283 66.721 39.3046 67.0066C39.5809 67.2922 39.7936 67.6336 39.9426 68.031C40.0947 68.4252 40.1707 68.8645 40.1707 69.3488V69.6701C40.1707 70.1512 40.0947 70.5905 39.9426 70.9879C39.7936 71.3852 39.5809 71.7267 39.3046 72.0123C39.0315 72.2948 38.7039 72.5136 38.3221 72.6688C37.9434 72.8209 37.5243 72.897 37.0649 72.897ZM36.3804 66.1172V72.897H34.9834V66.1172H36.3804Z" fill="#3C3C3B"/>
<path d="M42.4431 68.9576V72.897H41.1021V67.8587H42.364L42.4431 68.9576ZM43.9612 67.8261L43.9379 69.0694C43.8727 69.0601 43.7936 69.0523 43.7004 69.0461C43.6104 69.0368 43.5281 69.0321 43.4536 69.0321C43.2643 69.0321 43.0997 69.057 42.9601 69.1066C42.8235 69.1532 42.7086 69.2231 42.6155 69.3162C42.5255 69.4093 42.4572 69.5226 42.4106 69.6561C42.3671 69.7896 42.3423 69.9417 42.3361 70.1124L42.066 70.0286C42.066 69.7027 42.0985 69.4031 42.1637 69.1299C42.2289 68.8536 42.3237 68.6131 42.4478 68.4082C42.5751 68.2033 42.7303 68.045 42.9135 67.9332C43.0966 67.8215 43.3061 67.7656 43.542 67.7656C43.6165 67.7656 43.6927 67.7718 43.7703 67.7842C43.8479 67.7935 43.9115 67.8075 43.9612 67.8261Z" fill="#3C3C3B"/>
<path d="M46.0098 67.8584V72.8967H44.6641V67.8584H46.0098ZM44.5803 66.5453C44.5803 66.3497 44.6486 66.1883 44.7852 66.061C44.9218 65.9337 45.1049 65.8701 45.3347 65.8701C45.5613 65.8701 45.7429 65.9337 45.8795 66.061C46.0192 66.1883 46.089 66.3497 46.089 66.5453C46.089 66.7409 46.0192 66.9023 45.8795 67.0296C45.7429 67.1568 45.5613 67.2205 45.3347 67.2205C45.1049 67.2205 44.9218 67.1568 44.7852 67.0296C44.6486 66.9023 44.5803 66.7409 44.5803 66.5453Z" fill="#3C3C3B"/>
<path d="M48.8318 71.9188L49.9493 67.8584H51.3509L49.6513 72.8967H48.8038L48.8318 71.9188ZM48.0634 67.8584L49.1856 71.9235L49.2089 72.8967H48.3568L46.6572 67.8584H48.0634Z" fill="#3C3C3B"/>
<path d="M55.0327 72.9893C54.6416 72.9893 54.2908 72.9271 53.9804 72.8029C53.6699 72.6757 53.4061 72.5003 53.1888 72.2767C52.9746 72.0532 52.81 71.794 52.6952 71.4991C52.5803 71.2011 52.5229 70.8845 52.5229 70.5492V70.3629C52.5229 69.9811 52.5772 69.6319 52.6859 69.3152C52.7945 68.9986 52.9497 68.724 53.1515 68.4911C53.3564 68.2583 53.6047 68.0798 53.8965 67.9556C54.1883 67.8284 54.5174 67.7646 54.8837 67.7646C55.2407 67.7646 55.5573 67.8237 55.8336 67.9417C56.1099 68.0596 56.3412 68.2272 56.5274 68.4445C56.7168 68.6618 56.8596 68.9225 56.9558 69.2268C57.0521 69.5279 57.1002 69.8632 57.1002 70.2327V70.7914H53.0956V69.8973H55.7824V69.7949C55.7824 69.6086 55.7483 69.4425 55.68 69.2966C55.6148 69.1476 55.5154 69.0296 55.382 68.9427C55.2485 68.8558 55.0777 68.8123 54.8697 68.8123C54.6928 68.8123 54.5407 68.8511 54.4134 68.9287C54.2861 69.0064 54.1821 69.115 54.1014 69.2547C54.0238 69.3944 53.9648 69.5589 53.9245 69.7483C53.8872 69.9345 53.8686 70.1394 53.8686 70.3629V70.5492C53.8686 70.751 53.8965 70.9372 53.9524 71.108C54.0114 71.2787 54.0937 71.4262 54.1992 71.5503C54.3079 71.6745 54.4382 71.7708 54.5904 71.8391C54.7456 71.9074 54.921 71.9416 55.1165 71.9416C55.3587 71.9416 55.5837 71.8949 55.7917 71.8018C56.0028 71.7056 56.1844 71.5612 56.3365 71.3687L56.9884 72.0765C56.8829 72.2286 56.7385 72.3745 56.5554 72.5142C56.3753 72.6539 56.158 72.7688 55.9035 72.8588C55.6489 72.9457 55.3587 72.9893 55.0327 72.9893Z" fill="#3C3C3B"/>
</svg>
