<svg width="72" height="53" viewBox="0 0 72 53" fill="none" xmlns="http://www.w3.org/2000/svg">
<g clip-path="url(#clip0_52_230)">
<path d="M22.4083 45.9945L20.5643 51.6149H19.0789L21.598 44.835H22.5433L22.4083 45.9945ZM23.9402 51.6149L22.0916 45.9945L21.9426 44.835H22.8972L25.4303 51.6149H23.9402ZM23.8564 49.0911V50.1853H20.2756V49.0911H23.8564Z" fill="#3C3C3B"/>
<path d="M28.8995 50.4084V46.5762H30.2405V51.6145H28.9786L28.8995 50.4084ZM29.0485 49.3747L29.4443 49.3654C29.4443 49.7007 29.4055 50.0126 29.3279 50.3013C29.2503 50.5869 29.1339 50.8353 28.9786 51.0464C28.8234 51.2544 28.6278 51.4173 28.3919 51.5353C28.156 51.6502 27.8782 51.7076 27.5584 51.7076C27.3132 51.7076 27.0866 51.6734 26.8786 51.6051C26.6737 51.5337 26.4967 51.4235 26.3477 51.2745C26.2018 51.1224 26.087 50.9284 26.0032 50.6925C25.9224 50.4534 25.8821 50.1663 25.8821 49.831V46.5762H27.2231V49.8403C27.2231 49.9894 27.2402 50.1151 27.2744 50.2175C27.3116 50.32 27.3628 50.4038 27.428 50.469C27.4932 50.5342 27.5693 50.5807 27.6562 50.6087C27.7462 50.6366 27.8456 50.6506 27.9542 50.6506C28.2305 50.6506 28.4478 50.5947 28.6061 50.4829C28.7675 50.3712 28.8808 50.2191 28.946 50.0266C29.0143 49.831 29.0485 49.6137 29.0485 49.3747Z" fill="#3C3C3B"/>
<path d="M33.7105 46.5763V47.5262H30.7769V46.5763H33.7105ZM31.5033 45.333H32.8444V50.0966C32.8444 50.2425 32.863 50.3542 32.9002 50.4318C32.9406 50.5094 32.9996 50.5638 33.0772 50.5948C33.1548 50.6227 33.2526 50.6367 33.3705 50.6367C33.4544 50.6367 33.5289 50.6336 33.594 50.6274C33.6623 50.6181 33.7198 50.6088 33.7663 50.5995L33.771 51.5866C33.6561 51.6239 33.532 51.6534 33.3985 51.6751C33.265 51.6968 33.1175 51.7077 32.9561 51.7077C32.6612 51.7077 32.4035 51.6596 32.1831 51.5633C31.9658 51.464 31.7982 51.3057 31.6802 51.0884C31.5623 50.8711 31.5033 50.5855 31.5033 50.2316V45.333Z" fill="#3C3C3B"/>
<path d="M34.1389 49.1469V49.0491C34.1389 48.6797 34.1916 48.3398 34.2972 48.0294C34.4027 47.7158 34.5564 47.4442 34.7582 47.2145C34.9599 46.9848 35.2083 46.8063 35.5032 46.679C35.7981 46.5486 36.1365 46.4834 36.5183 46.4834C36.9001 46.4834 37.2401 46.5486 37.5381 46.679C37.8361 46.8063 38.086 46.9848 38.2878 47.2145C38.4927 47.4442 38.6479 47.7158 38.7534 48.0294C38.859 48.3398 38.9117 48.6797 38.9117 49.0491V49.1469C38.9117 49.5132 38.859 49.8532 38.7534 50.1667C38.6479 50.4771 38.4927 50.7488 38.2878 50.9816C38.086 51.2113 37.8376 51.3898 37.5427 51.5171C37.2478 51.6444 36.9095 51.708 36.5276 51.708C36.1458 51.708 35.8059 51.6444 35.5079 51.5171C35.2129 51.3898 34.963 51.2113 34.7582 50.9816C34.5564 50.7488 34.4027 50.4771 34.2972 50.1667C34.1916 49.8532 34.1389 49.5132 34.1389 49.1469ZM35.4799 49.0491V49.1469C35.4799 49.358 35.4985 49.5552 35.5358 49.7383C35.573 49.9215 35.632 50.0829 35.7127 50.2226C35.7966 50.3592 35.9052 50.4663 36.0387 50.5439C36.1722 50.6215 36.3352 50.6603 36.5276 50.6603C36.7139 50.6603 36.8738 50.6215 37.0072 50.5439C37.1407 50.4663 37.2478 50.3592 37.3285 50.2226C37.4092 50.0829 37.4682 49.9215 37.5055 49.7383C37.5458 49.5552 37.566 49.358 37.566 49.1469V49.0491C37.566 48.8443 37.5458 48.6518 37.5055 48.4717C37.4682 48.2886 37.4077 48.1272 37.3239 47.9875C37.2432 47.8447 37.1361 47.7329 37.0026 47.6522C36.8691 47.5715 36.7077 47.5311 36.5183 47.5311C36.3289 47.5311 36.1675 47.5715 36.034 47.6522C35.9037 47.7329 35.7966 47.8447 35.7127 47.9875C35.632 48.1272 35.573 48.2886 35.5358 48.4717C35.4985 48.6518 35.4799 48.8443 35.4799 49.0491Z" fill="#3C3C3B"/>
<path d="M42.5765 45.9945L40.7325 51.6149H39.2471L41.7662 44.835H42.7115L42.5765 45.9945ZM44.1084 51.6149L42.2598 45.9945L42.1108 44.835H43.0654L45.5985 51.6149H44.1084ZM44.0246 49.0911V50.1853H40.4438V49.0911H44.0246Z" fill="#3C3C3B"/>
<path d="M50.5856 50.5252V51.6149H47.1724V50.5252H50.5856ZM47.6241 44.835V51.6149H46.2271V44.835H47.6241Z" fill="#3C3C3B"/>
<path d="M54.8586 44.835H56.2508V49.3146C56.2508 49.8361 56.1391 50.2754 55.9156 50.6323C55.6952 50.9893 55.3894 51.2579 54.9983 51.4379C54.6102 51.618 54.1632 51.708 53.6572 51.708C53.1512 51.708 52.7011 51.618 52.3068 51.4379C51.9157 51.2579 51.6084 50.9893 51.3848 50.6323C51.1644 50.2754 51.0542 49.8361 51.0542 49.3146V44.835H52.4512V49.3146C52.4512 49.6188 52.4993 49.8671 52.5955 50.0596C52.6918 50.2521 52.8299 50.3933 53.0099 50.4833C53.1931 50.5734 53.4089 50.6184 53.6572 50.6184C53.9117 50.6184 54.1275 50.5734 54.3044 50.4833C54.4845 50.3933 54.6211 50.2521 54.7142 50.0596C54.8104 49.8671 54.8586 49.6188 54.8586 49.3146V44.835Z" fill="#3C3C3B"/>
<path d="M4.85417 8.18799C6.76625 8.18799 8.31852 6.63718 8.31852 4.72368C8.31852 2.81018 6.76766 1.26074 4.85417 1.26074C2.94067 1.26074 1.38989 2.81159 1.38989 4.72368C1.38989 6.63577 2.94067 8.18799 4.85417 8.18799Z" stroke="#3C3C3B" stroke-width="0.9598" stroke-miterlimit="22.9256" stroke-dasharray="0.96 0.96"/>
<path fill-rule="evenodd" clip-rule="evenodd" d="M10.1514 3.95871L13.9361 7.74338C14.1563 8.01291 14.4921 8.18505 14.8647 8.18505H27.7935L35.1454 15.5371C35.3373 15.729 35.5773 15.8404 35.827 15.8757L35.8496 15.8786H35.8567L35.8792 15.8799C35.9216 15.8842 35.9653 15.887 36.009 15.887H46.2229V21.1153C46.2229 21.4808 46.3894 21.811 46.6519 22.0311L52.4488 27.828V30.3864C52.4488 31.0468 52.9892 31.5873 53.6497 31.5873H54.8491C55.5081 31.5873 56.0486 31.044 56.0486 30.3864V26.8431V26.8346V26.8106V26.8049L56.0471 26.7795V26.7753C56.033 26.4874 55.9173 26.2038 55.6986 25.9851L49.8226 20.1077V15.8828H51.3579C51.4102 15.8828 51.4596 15.88 51.5104 15.8729H51.516L51.54 15.8701H51.5456C51.7926 15.8348 52.0325 15.7233 52.2216 15.5328L59.575 8.18083H65.458C65.5469 8.18083 65.6358 8.17096 65.7219 8.1512L65.729 8.14978C65.9449 8.1018 66.1523 7.99455 66.3202 7.82662L70.1923 3.95307C70.6594 3.48598 70.6594 2.72256 70.1923 2.25547L69.3457 1.4074C68.8786 0.940317 68.1138 0.941728 67.6481 1.4074L64.4759 4.57961H58.5801C58.2612 4.57961 57.9705 4.70522 57.756 4.90983L57.7532 4.91125L57.7321 4.93098V4.9324L57.7095 4.95216L50.3787 12.2844H36.9898L29.6589 4.95216C29.57 4.86326 29.4685 4.79131 29.3626 4.73486C29.1877 4.63608 28.9858 4.57961 28.7727 4.57961H15.8708L12.6985 1.4074C12.2329 0.941728 11.468 0.940317 11.0009 1.4074L10.1528 2.25547C9.68431 2.7282 9.68434 3.49163 10.1514 3.95871Z" fill="#3C3C3B"/>
<path fill-rule="evenodd" clip-rule="evenodd" d="M16.4708 10.2725H25.6784C26.3388 10.2725 26.8793 10.8143 26.8793 11.4733V12.6713C26.8793 13.3303 26.3374 13.8722 25.6784 13.8722H16.4708C15.8118 13.8722 15.27 13.3318 15.27 12.6713V11.4733C15.27 10.8129 15.8104 10.2725 16.4708 10.2725Z" fill="#424956"/>
<path fill-rule="evenodd" clip-rule="evenodd" d="M34.5666 17.4678H43.7757C44.4361 17.4678 44.9766 18.0096 44.9766 18.6672V19.8667C44.9766 20.5257 44.4347 21.0676 43.7757 21.0676H34.5666C33.9091 21.0676 33.3672 20.5271 33.3672 19.8667V18.6672C33.3672 18.0082 33.9076 17.4678 34.5666 17.4678Z" fill="#424956"/>
</g>
<defs>
<clipPath id="clip0_52_230">
<rect width="71" height="52" fill="white" transform="translate(0.463867 0.495117)"/>
</clipPath>
</defs>
</svg>
