<svg width="22" height="20" viewBox="0 0 22 20" fill="none" xmlns="http://www.w3.org/2000/svg">
<path d="M11.9126 1.40625C11.4829 1.09375 11.0011 0.9375 10.4673 0.9375C9.93343 0.9375 9.45166 1.09375 9.02197 1.40625L1.65869 6.66016C1.34619 6.88151 1.10205 7.16146 0.92627 7.5C0.750488 7.83854 0.662598 8.19661 0.662598 8.57422V17.1484C0.662598 17.7995 0.903483 18.3594 1.38525 18.8281C1.86702 19.2969 2.43994 19.5312 3.104 19.5312H17.811C18.4881 19.5312 19.0675 19.2969 19.5493 18.8281C20.0311 18.3594 20.272 17.7995 20.272 17.1484V8.57422C20.272 8.19661 20.1841 7.83854 20.0083 7.5C19.8325 7.16146 19.5884 6.88151 19.2759 6.66016L11.9126 1.40625ZM9.58838 2.16797C9.8488 1.98568 10.1418 1.89453 10.4673 1.89453C10.7928 1.89453 11.0858 1.98568 11.3462 2.16797L18.6899 7.42188C18.8853 7.5651 19.035 7.73763 19.1392 7.93945C19.2433 8.14128 19.2954 8.35286 19.2954 8.57422V17.1484C19.2954 17.5391 19.1522 17.8743 18.8657 18.1543C18.5793 18.4342 18.2277 18.5742 17.811 18.5742H3.104C2.70036 18.5742 2.35531 18.4342 2.06885 18.1543C1.78239 17.8743 1.63916 17.5391 1.63916 17.1484V8.57422C1.63916 8.35286 1.69124 8.14128 1.79541 7.93945C1.89958 7.73763 2.04932 7.5651 2.24463 7.42188L9.58838 2.16797ZM4.88135 10.5664C4.76416 10.4883 4.64046 10.459 4.51025 10.4785C4.38005 10.498 4.27588 10.5599 4.19775 10.6641C4.10661 10.7682 4.0708 10.8854 4.09033 11.0156C4.10986 11.1458 4.17822 11.25 4.29541 11.3281L9.00244 14.7656C9.43213 15.0781 9.92041 15.2344 10.4673 15.2344C11.0142 15.2344 11.5024 15.0781 11.9321 14.7656L16.6392 11.3281C16.7433 11.25 16.8052 11.1458 16.8247 11.0156C16.8442 10.8854 16.8149 10.7682 16.7368 10.6641C16.6587 10.5599 16.5513 10.498 16.4146 10.4785C16.2778 10.459 16.1574 10.4883 16.0532 10.5664L11.3462 14.0039C11.0858 14.1862 10.7928 14.2773 10.4673 14.2773C10.1418 14.2773 9.8488 14.1862 9.58838 14.0039L4.88135 10.5664Z" fill="#ACACAC"/>
</svg>
