<svg width="18" height="15" viewBox="0 0 18 15" fill="none" xmlns="http://www.w3.org/2000/svg">
<path d="M0.306152 7.20728L4.27588 8.67212L5.82861 13.6379C5.86768 13.804 5.96777 13.9041 6.12891 13.9382C6.29004 13.9724 6.43896 13.9358 6.57568 13.8284L8.80225 12.0266C8.8999 11.929 9.02441 11.8801 9.17578 11.8801C9.32715 11.8801 9.47119 11.929 9.60791 12.0266L13.5923 14.9124C13.729 15.01 13.8779 15.0295 14.0391 14.9709C14.2002 14.9124 14.2954 14.8 14.3247 14.634L17.2983 0.571533C17.3276 0.405518 17.2764 0.256592 17.1445 0.124756C17.0127 -0.00708008 16.8638 -0.0388184 16.6978 0.029541L0.306152 6.32837C0.101074 6.39673 -0.00146484 6.54321 -0.00146484 6.76782C-0.00146484 6.99243 0.101074 7.13892 0.306152 7.20728ZM5.62354 7.9397L13.4604 3.17896C13.519 3.14966 13.5728 3.16675 13.6216 3.23022C13.6704 3.2937 13.6606 3.34497 13.5923 3.38403L7.17627 9.34595C7.07861 9.4436 6.98828 9.56079 6.90527 9.69751C6.82227 9.83423 6.78076 9.9856 6.78076 10.1516L6.57568 11.7629C6.57568 11.8606 6.51709 11.9167 6.3999 11.9314C6.28271 11.946 6.20459 11.8899 6.16553 11.7629L5.35986 8.80396C5.26221 8.63794 5.24023 8.46948 5.29395 8.29858C5.34766 8.12769 5.45752 8.00806 5.62354 7.9397Z" fill="#ACACAC"/>
</svg>
