<svg width="16" height="25" viewBox="0 0 16 25" fill="none" xmlns="http://www.w3.org/2000/svg">
<path d="M1.75813 21.5V4.22H8.89813C9.06613 4.22 9.28213 4.228 9.54613 4.244C9.81013 4.252 10.0541 4.276 10.2781 4.316C11.2781 4.468 12.1021 4.8 12.7501 5.312C13.4061 5.824 13.8901 6.472 14.2021 7.256C14.5221 8.032 14.6821 8.896 14.6821 9.848C14.6821 11.256 14.3261 12.468 13.6141 13.484C12.9021 14.492 11.8101 15.116 10.3381 15.356L9.10213 15.464H4.65013V21.5H1.75813ZM11.6821 21.5L8.27413 14.468L11.2141 13.82L14.9581 21.5H11.6821ZM4.65013 12.764H8.77813C8.93813 12.764 9.11813 12.756 9.31813 12.74C9.51813 12.724 9.70213 12.692 9.87013 12.644C10.3501 12.524 10.7261 12.312 10.9981 12.008C11.2781 11.704 11.4741 11.36 11.5861 10.976C11.7061 10.592 11.7661 10.216 11.7661 9.848C11.7661 9.48 11.7061 9.104 11.5861 8.72C11.4741 8.328 11.2781 7.98 10.9981 7.676C10.7261 7.372 10.3501 7.16 9.87013 7.04C9.70213 6.992 9.51813 6.964 9.31813 6.956C9.11813 6.94 8.93813 6.932 8.77813 6.932H4.65013V12.764Z" fill="#ACACAC"/>
</svg>
