<svg width="16" height="13" viewBox="0 0 16 13" fill="none" xmlns="http://www.w3.org/2000/svg">
<path d="M15.6675 4.99028C15.6675 4.82502 15.6581 4.64287 15.6394 4.44381C15.6206 4.24475 15.6112 4.03631 15.6112 3.81847C15.5811 3.59312 15.5511 3.36965 15.521 3.14806C15.491 2.92647 15.4647 2.71802 15.4422 2.52272C15.3821 2.29737 15.3051 2.09831 15.2112 1.92555C15.1173 1.75278 14.9877 1.59879 14.8225 1.46358C14.6797 1.32086 14.5164 1.20819 14.3323 1.12556C14.1483 1.04293 13.9549 0.986596 13.7521 0.95655C13.4366 0.91148 13.076 0.873921 12.6704 0.843876C12.2723 0.821341 11.8329 0.800684 11.3521 0.781905C10.8714 0.763125 10.3531 0.74998 9.79721 0.742469C9.23384 0.734958 8.62916 0.731201 7.98316 0.731201C7.33716 0.731201 6.73248 0.734958 6.16911 0.742469C5.60574 0.74998 5.0818 0.763125 4.5973 0.781905C4.11281 0.800684 3.6715 0.821341 3.27338 0.843876C2.87527 0.873921 2.52222 0.91148 2.21425 0.95655C2.01895 0.986596 1.8274 1.04293 1.63961 1.12556C1.45182 1.20819 1.29032 1.32086 1.15511 1.46358C1.01239 1.59879 0.886574 1.75278 0.777656 1.92555C0.668737 2.09831 0.587988 2.29737 0.535407 2.52272C0.475314 2.71802 0.432122 2.91895 0.405831 3.12552C0.379541 3.33209 0.366396 3.56307 0.366396 3.81847C0.336349 4.03631 0.319448 4.24475 0.315692 4.44381C0.311936 4.64287 0.310059 4.82502 0.310059 4.99028C0.310059 5.15553 0.310059 5.34145 0.310059 5.54801C0.310059 5.75458 0.310059 5.99683 0.310059 6.27476C0.310059 6.5602 0.310059 6.81184 0.310059 7.02968C0.310059 7.24751 0.310059 7.42779 0.310059 7.57051C0.310059 7.73577 0.319448 7.91605 0.338227 8.11135C0.357006 8.30665 0.366396 8.51697 0.366396 8.74232C0.396442 8.96767 0.42461 9.18926 0.450901 9.4071C0.477192 9.62494 0.50536 9.8315 0.535407 10.0268C0.587988 10.2522 0.661226 10.4512 0.755121 10.624C0.849016 10.7967 0.982347 10.9545 1.15511 11.0972C1.29032 11.2399 1.45182 11.3526 1.63961 11.4352C1.8274 11.5179 2.01895 11.5742 2.21425 11.6042C2.53725 11.6418 2.8978 11.6756 3.29592 11.7056C3.69403 11.7357 4.13346 11.7601 4.61421 11.7789C5.09495 11.7977 5.617 11.8108 6.18037 11.8183C6.73623 11.8258 7.33716 11.8296 7.98316 11.8296C8.62916 11.8296 9.23384 11.8258 9.79721 11.8183C10.3681 11.8108 10.8939 11.7977 11.3746 11.7789C11.8554 11.7601 12.2948 11.7357 12.6929 11.7056C13.091 11.6756 13.4441 11.6418 13.7521 11.6042C13.9549 11.5742 14.1483 11.5179 14.3323 11.4352C14.5164 11.3526 14.6797 11.2399 14.8225 11.0972C14.9652 10.9545 15.0891 10.7967 15.1943 10.624C15.2995 10.4512 15.3821 10.2522 15.4422 10.0268C15.4948 9.8315 15.5361 9.63245 15.5661 9.42963C15.5962 9.22682 15.6112 8.99772 15.6112 8.74232C15.6337 8.51697 15.6487 8.30665 15.6563 8.11135C15.6638 7.91605 15.6675 7.73577 15.6675 7.57051C15.6675 7.39775 15.6675 7.20996 15.6675 7.00714C15.6675 6.80433 15.6675 6.5602 15.6675 6.27476C15.6675 5.99683 15.6675 5.74895 15.6675 5.53111C15.6675 5.31328 15.6675 5.133 15.6675 4.99028ZM10.9578 6.72546L6.52966 9.4747C6.49962 9.49724 6.46018 9.52165 6.41136 9.54794C6.36253 9.57423 6.30807 9.58738 6.24798 9.58738C6.1954 9.58738 6.15033 9.58362 6.11277 9.57611C6.07521 9.5686 6.02639 9.55358 5.96629 9.53104C5.88367 9.47095 5.81606 9.39959 5.76348 9.31696C5.7109 9.23433 5.68461 9.13668 5.68461 9.02401V3.48045C5.68461 3.36777 5.7109 3.26824 5.76348 3.18186C5.81606 3.09548 5.88367 3.026 5.96629 2.97341C6.04892 2.91332 6.14282 2.88328 6.24798 2.88328C6.35314 2.88328 6.44704 2.91332 6.52966 2.97341L10.9578 5.72266C11.0404 5.77524 11.108 5.84097 11.1606 5.91984C11.2131 5.99871 11.2394 6.07946 11.2394 6.16209C11.2394 6.25223 11.2131 6.35551 11.1606 6.47194C11.108 6.58837 11.0404 6.67288 10.9578 6.72546Z" fill="#ACACAC"/>
</svg>
