<svg width="20" height="13" viewBox="0 0 20 13" fill="none" xmlns="http://www.w3.org/2000/svg">
<path d="M19.2996 10.6795C19.2996 10.642 19.2883 10.6176 19.2658 10.6063C19.2433 10.5951 19.232 10.5706 19.232 10.5331C19.0743 10.2327 18.8321 9.89472 18.5054 9.51921C18.1787 9.1437 17.7863 8.74566 17.3281 8.32508C17.1028 8.13732 16.9263 7.97022 16.7987 7.82377C16.671 7.67732 16.5696 7.56655 16.4945 7.49144C16.3818 7.34124 16.318 7.2023 16.303 7.07462C16.288 6.94695 16.2992 6.80801 16.3368 6.6578C16.3743 6.54515 16.4701 6.38744 16.6241 6.18466C16.778 5.98188 16.9864 5.70776 17.2493 5.36229C17.3995 5.17453 17.5234 5.01682 17.621 4.88914C17.7187 4.76147 17.8238 4.6413 17.9365 4.52865C18.5072 3.77011 18.9222 3.14489 19.1813 2.65296C19.4404 2.16104 19.5324 1.79867 19.4573 1.56585L19.3784 1.487C19.3409 1.44945 19.2996 1.41565 19.2545 1.38561C19.2095 1.35557 19.1494 1.34055 19.0743 1.34055C18.9992 1.303 18.9072 1.28422 18.7983 1.28422C18.6894 1.28422 18.5786 1.303 18.4659 1.34055H15.582C15.5445 1.34055 15.5163 1.34055 15.4975 1.34055C15.4787 1.34055 15.4318 1.34055 15.3567 1.34055C15.3191 1.34055 15.2835 1.34055 15.2497 1.34055C15.2159 1.34055 15.199 1.34055 15.199 1.34055H15.0525L14.9737 1.4194C14.9361 1.45696 14.9136 1.48136 14.9061 1.49263C14.8986 1.50389 14.8948 1.5283 14.8948 1.56585C14.7446 1.98643 14.5775 2.37696 14.3935 2.73745C14.2095 3.09795 14.0236 3.4697 13.8359 3.85273C13.7232 4.04048 13.6087 4.22636 13.4923 4.41036C13.3759 4.59436 13.2613 4.76147 13.1487 4.91167C13.036 5.06188 12.9384 5.19331 12.8558 5.30596C12.7732 5.41861 12.6943 5.51625 12.6192 5.59886C12.5441 5.67396 12.4709 5.73592 12.3995 5.78474C12.3282 5.83355 12.2737 5.89551 12.2362 5.97062C12.1986 6.00817 12.1517 6.04009 12.0954 6.06637C12.039 6.09266 12.0109 6.08703 12.0109 6.04947C11.9733 6.04947 11.9377 6.04572 11.9039 6.03821C11.8701 6.0307 11.8532 6.00817 11.8532 5.97062C11.8156 5.93307 11.7781 5.89551 11.7405 5.85796C11.703 5.82041 11.6654 5.78286 11.6279 5.74531C11.5903 5.70776 11.5659 5.65331 11.5546 5.58196C11.5434 5.51061 11.519 5.43739 11.4814 5.36229C11.4814 5.28718 11.4814 5.21584 11.4814 5.14824C11.4814 5.08065 11.4814 5.02808 11.4814 4.99053C11.4814 4.95298 11.4814 4.88539 11.4814 4.78775C11.4814 4.69012 11.4814 4.60375 11.4814 4.52865C11.4814 4.41599 11.4814 4.32212 11.4814 4.24701C11.4814 4.17191 11.4814 4.11558 11.4814 4.07803C11.4814 3.96538 11.4814 3.83583 11.4814 3.68938C11.4814 3.54293 11.4814 3.3946 11.4814 3.2444C11.4814 3.08668 11.4814 2.9515 11.4814 2.83884C11.4814 2.72619 11.4814 2.63231 11.4814 2.55721C11.4814 2.48211 11.4814 2.39386 11.4814 2.29247C11.4814 2.19108 11.4814 2.10284 11.4814 2.02773C11.4814 1.90757 11.4814 1.80994 11.4814 1.73483C11.4814 1.65973 11.4814 1.60341 11.4814 1.56585C11.4814 1.5283 11.4683 1.47761 11.442 1.41377C11.4157 1.34993 11.4025 1.29924 11.4025 1.26169C11.365 1.22414 11.3274 1.18659 11.2899 1.14904C11.2523 1.11148 11.2148 1.07393 11.1772 1.03638C11.1397 0.998831 11.089 0.974422 11.0252 0.963157C10.9613 0.951891 10.9106 0.923728 10.8731 0.878666C10.6778 0.841115 10.4675 0.807319 10.2422 0.777278C10.0169 0.747237 9.76907 0.732217 9.4987 0.732217C8.89037 0.732217 8.38343 0.750992 7.97787 0.788544C7.57232 0.826095 7.29444 0.882421 7.14424 0.957524C7.06913 0.995075 6.99779 1.03638 6.93019 1.08144C6.8626 1.1265 6.80627 1.18659 6.76121 1.26169C6.68611 1.33679 6.64668 1.39312 6.64293 1.43067C6.63917 1.46822 6.65607 1.487 6.69362 1.487C6.88138 1.52455 7.04848 1.58275 7.19493 1.66161C7.34138 1.74047 7.45216 1.83622 7.52726 1.94888L7.60612 2.09533C7.64367 2.13288 7.66808 2.19108 7.67934 2.26994C7.69061 2.3488 7.71502 2.44455 7.75257 2.55721C7.79012 2.66986 7.81265 2.78627 7.82016 2.90643C7.82767 3.0266 7.83142 3.16178 7.83142 3.31199C7.83142 3.54481 7.83142 3.76824 7.83142 3.98228C7.83142 4.19632 7.83142 4.37844 7.83142 4.52865C7.83142 4.7164 7.81828 4.87412 7.792 5.00179C7.76571 5.12947 7.75257 5.24963 7.75257 5.36229C7.75257 5.48245 7.73755 5.58008 7.70751 5.65519C7.67746 5.73029 7.64367 5.78662 7.60612 5.82417C7.56857 5.89927 7.54228 5.9556 7.52726 5.99315C7.51224 6.0307 7.48595 6.04947 7.4484 6.04947C7.4484 6.04947 7.44652 6.06262 7.44277 6.0889C7.43901 6.11519 7.41461 6.12833 7.36954 6.12833C7.33199 6.12833 7.29256 6.14148 7.25126 6.16776C7.20995 6.19405 7.14799 6.20719 7.06538 6.20719C7.02783 6.20719 6.97901 6.19029 6.91893 6.1565C6.85885 6.1227 6.80627 6.08703 6.76121 6.04947C6.68611 6.01192 6.61476 5.95747 6.54717 5.88613C6.47958 5.81478 6.42701 5.74155 6.38946 5.66645C6.31435 5.59135 6.23737 5.49747 6.15852 5.38482C6.07966 5.27216 6.00268 5.14073 5.92758 4.99053C5.85247 4.83281 5.76423 4.67322 5.66284 4.51175C5.56145 4.35028 5.47321 4.15314 5.3981 3.92032L5.25165 3.61615C5.2141 3.54105 5.15965 3.43027 5.0883 3.28382C5.01696 3.13737 4.94373 2.97027 4.86863 2.78252C4.79353 2.59476 4.71842 2.41827 4.64332 2.25304C4.56822 2.08782 4.48936 1.91133 4.40675 1.72357C4.3692 1.64847 4.33165 1.58839 4.2941 1.54332C4.25654 1.49826 4.21899 1.45696 4.18144 1.4194H4.10258C4.10258 1.4194 4.08756 1.40626 4.05752 1.37998C4.02748 1.35369 3.99369 1.34055 3.95613 1.34055C3.91858 1.34055 3.88103 1.3274 3.84348 1.30112C3.80593 1.27483 3.76838 1.26169 3.73083 1.26169H0.99334C0.843135 1.26169 0.726726 1.27859 0.644113 1.31238C0.561501 1.34618 0.501419 1.38185 0.463867 1.4194L0.38501 1.487C0.38501 1.487 0.38501 1.50389 0.38501 1.53769C0.38501 1.57149 0.38501 1.60716 0.38501 1.64471C0.38501 1.68226 0.388765 1.72357 0.396275 1.76863C0.403785 1.81369 0.426316 1.87377 0.463867 1.94888C0.651624 2.407 0.856278 2.86325 1.07783 3.31762C1.29938 3.77199 1.52281 4.22824 1.74812 4.68636C1.98094 5.09943 2.20437 5.48996 2.41841 5.85796C2.63245 6.22597 2.81458 6.54515 2.96478 6.81552C3.16005 7.07838 3.33842 7.33936 3.49989 7.59846C3.66136 7.85757 3.83973 8.09977 4.03499 8.32508C4.22275 8.5579 4.37295 8.74941 4.48561 8.89962C4.59826 9.04982 4.67336 9.16247 4.71091 9.23758C4.79353 9.31268 4.85549 9.37276 4.89679 9.41782C4.9381 9.46288 4.97753 9.50419 5.01508 9.54174L5.25165 9.77831C5.32676 9.85342 5.42063 9.94354 5.53329 10.0487C5.64594 10.1538 5.77737 10.2627 5.92758 10.3754C6.08529 10.4955 6.25427 10.612 6.43452 10.7246C6.61476 10.8373 6.80252 10.9499 6.99779 11.0626C7.18554 11.1752 7.3902 11.2729 7.61175 11.3555C7.8333 11.4381 8.05673 11.5169 8.28204 11.592C8.55241 11.6747 8.804 11.731 9.03682 11.761C9.26964 11.7911 9.50246 11.7873 9.73527 11.7498H10.8731C10.9857 11.7498 11.0834 11.731 11.166 11.6934C11.2486 11.6559 11.3274 11.5996 11.4025 11.5244L11.4814 11.4456C11.4814 11.408 11.4927 11.3818 11.5152 11.3667C11.5377 11.3517 11.549 11.3254 11.549 11.2879C11.549 11.2503 11.549 11.2109 11.549 11.1696C11.549 11.1283 11.549 11.0663 11.549 10.9837C11.549 10.8335 11.5528 10.6983 11.5603 10.5782C11.5678 10.458 11.5903 10.3416 11.6279 10.2289C11.6654 10.1163 11.6917 10.0186 11.7067 9.93603C11.7217 9.85342 11.748 9.77456 11.7856 9.69946C11.8231 9.62435 11.8607 9.56427 11.8982 9.51921C11.9358 9.47415 11.9733 9.43284 12.0109 9.39529C12.0484 9.35774 12.0822 9.32207 12.1123 9.28827C12.1423 9.25447 12.1573 9.23758 12.1573 9.23758H12.2362C12.3113 9.20003 12.3995 9.19815 12.5009 9.23194C12.6023 9.26574 12.6906 9.32019 12.7657 9.39529C12.8783 9.47039 12.9891 9.56239 13.098 9.67129C13.2069 9.78019 13.2989 9.89097 13.374 10.0036C13.4491 10.1163 13.5448 10.2327 13.6613 10.3528C13.7777 10.473 13.911 10.6082 14.0612 10.7584C14.2114 10.9086 14.3428 11.0382 14.4555 11.1471C14.5681 11.256 14.6658 11.3292 14.7484 11.3667L14.9737 11.5244C15.0488 11.562 15.1276 11.5996 15.2102 11.6371C15.2929 11.6747 15.3905 11.7122 15.5031 11.7498C15.6158 11.7873 15.7134 11.8098 15.796 11.8173C15.8787 11.8249 15.9575 11.8286 16.0326 11.8286L18.6237 11.7498C18.7363 11.7498 18.8452 11.7329 18.9504 11.6991C19.0555 11.6653 19.1494 11.6296 19.232 11.592C19.3071 11.5545 19.3634 11.5151 19.401 11.4738C19.4385 11.4324 19.4573 11.3705 19.4573 11.2879C19.4573 11.2503 19.4573 11.1996 19.4573 11.1358C19.4573 11.072 19.4573 11.0213 19.4573 10.9837C19.3822 10.9086 19.3371 10.8504 19.3221 10.8091C19.3071 10.7678 19.2996 10.7246 19.2996 10.6795Z" fill="#ACACAC"/>
</svg>
