<svg width="20" height="20" viewBox="0 0 20 20" fill="none" xmlns="http://www.w3.org/2000/svg">
<path d="M9.99992 1.60156C9.24471 1.60156 8.51554 1.74479 7.81242 2.03125C7.10929 2.31771 6.48429 2.72135 5.93742 3.24219C5.40356 3.77604 4.99341 4.38477 4.70695 5.06836C4.42049 5.75195 4.27726 6.46484 4.27726 7.20703H15.7226C15.7226 6.46484 15.5793 5.75195 15.2929 5.06836C15.0064 4.38477 14.5963 3.77604 14.0624 3.24219C13.5155 2.72135 12.8905 2.31771 12.1874 2.03125C11.4843 1.74479 10.7551 1.60156 9.99992 1.60156ZM2.32414 8.59375C2.32414 8.59375 2.32739 8.59375 2.3339 8.59375C2.34041 8.59375 2.33716 8.59375 2.32414 8.59375C2.27205 8.59375 2.22323 8.60026 2.17765 8.61328C2.13208 8.6263 2.08325 8.64583 2.03117 8.67188C1.97909 8.6849 1.93351 8.70768 1.89445 8.74023C1.85539 8.77279 1.81632 8.80859 1.77726 8.84766C1.75122 8.88672 1.72518 8.92578 1.69914 8.96484C1.6731 9.00391 1.65356 9.04948 1.64054 9.10156C1.62752 9.14062 1.61776 9.1862 1.61125 9.23828C1.60474 9.29036 1.60799 9.33594 1.62101 9.375L2.6757 17.7734C2.68872 17.8516 2.71476 17.9297 2.75382 18.0078C2.79289 18.0859 2.85148 18.151 2.92961 18.2031C2.99471 18.2682 3.06958 18.3171 3.15422 18.3496C3.23885 18.3822 3.32674 18.3984 3.41789 18.3984H16.621C16.7122 18.3984 16.8 18.3822 16.8847 18.3496C16.9693 18.3171 17.0442 18.2682 17.1093 18.2031C17.1744 18.151 17.2265 18.0859 17.2655 18.0078C17.3046 17.9297 17.3306 17.8516 17.3437 17.7734L18.3788 9.375C18.3918 9.33594 18.3951 9.29036 18.3886 9.23828C18.3821 9.1862 18.3723 9.14062 18.3593 9.10156C18.3463 9.04948 18.3267 9.00391 18.3007 8.96484C18.2747 8.92578 18.2486 8.88672 18.2226 8.84766C18.1835 8.80859 18.1444 8.77279 18.1054 8.74023C18.0663 8.70768 18.0208 8.6849 17.9687 8.67188C17.9166 8.64583 17.8678 8.6263 17.8222 8.61328C17.7766 8.60026 17.7278 8.59375 17.6757 8.59375H2.32414ZM2.87101 7.20703C2.87101 6.26953 3.0533 5.37435 3.41789 4.52148C3.78247 3.66862 4.29679 2.91016 4.96086 2.24609C5.63794 1.59505 6.41268 1.09375 7.28508 0.742188C8.15747 0.390625 9.06242 0.214844 9.99992 0.214844C10.9374 0.214844 11.8424 0.390625 12.7148 0.742188C13.5872 1.09375 14.3619 1.59505 15.039 2.24609C15.703 2.91016 16.2174 3.66862 16.5819 4.52148C16.9465 5.37435 17.1288 6.26953 17.1288 7.20703H17.6757C17.8189 7.20703 17.9654 7.22331 18.1152 7.25586C18.2649 7.28841 18.4049 7.33073 18.5351 7.38281C18.6783 7.44792 18.8085 7.52279 18.9257 7.60742C19.0429 7.69206 19.1536 7.79297 19.2577 7.91016C19.3619 8.02734 19.4498 8.14779 19.5214 8.27148C19.593 8.39518 19.6484 8.52865 19.6874 8.67188C19.7395 8.8151 19.7721 8.96159 19.7851 9.11133C19.7981 9.26107 19.7916 9.40755 19.7655 9.55078L18.7304 17.9492C18.7043 18.2096 18.6295 18.4538 18.5058 18.6816C18.3821 18.9095 18.2226 19.1081 18.0273 19.2773C17.8319 19.4466 17.6106 19.5736 17.3632 19.6582C17.1158 19.7428 16.8619 19.7852 16.6015 19.7852H3.41789C3.15747 19.7852 2.90682 19.7428 2.66593 19.6582C2.42505 19.5736 2.20695 19.4466 2.01164 19.2773C1.81632 19.1081 1.65682 18.9095 1.53312 18.6816C1.40942 18.4538 1.32804 18.2096 1.28898 17.9492L0.234294 9.55078C0.208252 9.40755 0.201742 9.26107 0.214762 9.11133C0.227783 8.96159 0.260335 8.8151 0.312419 8.67188C0.351481 8.52865 0.40682 8.39518 0.478434 8.27148C0.550049 8.14779 0.637939 8.02734 0.742106 7.91016C0.846273 7.79297 0.95695 7.69206 1.07414 7.60742C1.19132 7.52279 1.32153 7.44792 1.46476 7.38281C1.59497 7.33073 1.73494 7.28841 1.88468 7.25586C2.03442 7.22331 2.18091 7.20703 2.32414 7.20703H2.87101ZM7.14836 11.4062C7.34367 11.4062 7.50968 11.4746 7.6464 11.6113C7.78312 11.748 7.85148 11.9076 7.85148 12.0898V14.9023C7.85148 15.0846 7.78312 15.2441 7.6464 15.3809C7.50968 15.5176 7.34367 15.5859 7.14836 15.5859C6.95304 15.5859 6.78703 15.5176 6.65031 15.3809C6.51359 15.2441 6.44523 15.0846 6.44523 14.9023V12.0898C6.44523 11.9076 6.51359 11.748 6.65031 11.6113C6.78703 11.4746 6.95304 11.4062 7.14836 11.4062ZM12.8515 11.4062C13.0468 11.4062 13.2128 11.4746 13.3495 11.6113C13.4862 11.748 13.5546 11.9076 13.5546 12.0898V14.9023C13.5546 15.0846 13.4862 15.2441 13.3495 15.3809C13.2128 15.5176 13.0468 15.5859 12.8515 15.5859C12.6562 15.5859 12.4902 15.5176 12.3534 15.3809C12.2167 15.2441 12.1484 15.0846 12.1484 14.9023V12.0898C12.1484 11.9076 12.2167 11.748 12.3534 11.6113C12.4902 11.4746 12.6562 11.4062 12.8515 11.4062Z" fill="#0749CA"/>
</svg>
