<svg width="16" height="20" viewBox="0 0 16 20" fill="none" xmlns="http://www.w3.org/2000/svg">
<path d="M8.00977 0C8.20508 0 8.37435 0.0683594 8.51758 0.205078C8.66081 0.341797 8.73242 0.514322 8.73242 0.722656V19.2773C8.73242 19.4857 8.66081 19.6582 8.51758 19.7949C8.37435 19.9316 8.20508 20 8.00977 20C7.81445 20 7.64844 19.9316 7.51172 19.7949C7.375 19.6582 7.30664 19.4857 7.30664 19.2773V0.722656C7.30664 0.514322 7.375 0.341797 7.51172 0.205078C7.64844 0.0683594 7.81445 0 8.00977 0ZM15.2559 3.82812C15.4512 3.82812 15.6204 3.89648 15.7637 4.0332C15.9069 4.16992 15.9785 4.33594 15.9785 4.53125V19.2773C15.9785 19.4857 15.9069 19.6582 15.7637 19.7949C15.6204 19.9316 15.4512 20 15.2559 20C15.0605 20 14.8913 19.9316 14.748 19.7949C14.6048 19.6582 14.5332 19.4857 14.5332 19.2773V4.53125C14.5332 4.33594 14.6048 4.16992 14.748 4.0332C14.8913 3.89648 15.0605 3.82812 15.2559 3.82812ZM0.744141 7.73438C0.939453 7.73438 1.10872 7.80599 1.25195 7.94922C1.39518 8.09245 1.4668 8.26172 1.4668 8.45703V19.2773C1.4668 19.4857 1.39518 19.6582 1.25195 19.7949C1.10872 19.9316 0.939453 20 0.744141 20C0.548828 20 0.382812 19.9316 0.246094 19.7949C0.109375 19.6582 0.0410156 19.4857 0.0410156 19.2773V8.45703C0.0410156 8.26172 0.109375 8.09245 0.246094 7.94922C0.382812 7.80599 0.548828 7.73438 0.744141 7.73438Z" fill="#0749CA"/>
</svg>
