<svg width="20" height="20" viewBox="0 0 20 20" fill="none" xmlns="http://www.w3.org/2000/svg">
<path d="M10.1562 1.54297C9.15365 1.54297 8.29753 1.89779 7.58789 2.60742C6.87826 3.31706 6.52344 4.16667 6.52344 5.15625C6.52344 6.15885 6.87826 7.01497 7.58789 7.72461C8.29753 8.43425 9.15365 8.78906 10.1562 8.78906C11.1589 8.78906 12.015 8.43425 12.7246 7.72461C13.4342 7.01497 13.7891 6.15885 13.7891 5.15625C13.7891 4.16667 13.4342 3.31706 12.7246 2.60742C12.015 1.89779 11.1589 1.54297 10.1562 1.54297ZM5 5.15625C5 4.45312 5.13021 3.78906 5.39062 3.16406C5.66406 2.52604 6.03516 1.97591 6.50391 1.51367C6.97266 1.05143 7.51953 0.683594 8.14453 0.410156C8.76953 0.136719 9.4401 0 10.1562 0C10.8724 0 11.543 0.136719 12.168 0.410156C12.793 0.683594 13.3398 1.05143 13.8086 1.51367C14.2773 1.97591 14.6484 2.52604 14.9219 3.16406C15.1823 3.78906 15.3125 4.45312 15.3125 5.15625C15.3125 5.8724 15.1823 6.54297 14.9219 7.16797C14.6484 7.80599 14.2773 8.35612 13.8086 8.81836C13.3398 9.2806 12.793 9.64844 12.168 9.92188C11.543 10.1953 10.8724 10.332 10.1562 10.332C9.4401 10.332 8.76953 10.1953 8.14453 9.92188C7.51953 9.64844 6.97266 9.2806 6.50391 8.81836C6.03516 8.35612 5.66406 7.80599 5.39062 7.16797C5.13021 6.54297 5 5.8724 5 5.15625ZM10.1562 12.9492C9.23177 12.9492 8.33333 13.1055 7.46094 13.418C6.58854 13.7305 5.79427 14.1797 5.07812 14.7656C4.36198 15.3516 3.76628 16.0417 3.29102 16.8359C2.81576 17.6302 2.48047 18.4766 2.28516 19.375C2.24609 19.5833 2.13867 19.7461 1.96289 19.8633C1.78711 19.9805 1.59505 20.0195 1.38672 19.9805C1.17839 19.9414 1.01562 19.834 0.898438 19.6582C0.78125 19.4824 0.742188 19.2904 0.78125 19.082C0.898438 18.5352 1.05469 18.0078 1.25 17.5C1.44531 16.9922 1.68294 16.5039 1.96289 16.0352C2.24284 15.5664 2.5651 15.1302 2.92969 14.7266C3.28125 14.3099 3.67188 13.9258 4.10156 13.5742C4.53125 13.2227 4.98698 12.9167 5.46875 12.6562C5.9375 12.3828 6.42904 12.1549 6.94336 11.9727C7.45768 11.7904 7.98177 11.6536 8.51562 11.5625C9.0625 11.4714 9.60938 11.4258 10.1562 11.4258C10.7031 11.4258 11.25 11.4714 11.7969 11.5625C12.3307 11.6536 12.8548 11.7904 13.3691 11.9727C13.8835 12.1549 14.375 12.3828 14.8438 12.6562C15.3255 12.9167 15.7812 13.2227 16.2109 13.5742C16.6276 13.9258 17.0182 14.3099 17.3828 14.7266C17.7344 15.1302 18.0534 15.5664 18.3398 16.0352C18.6263 16.5039 18.8672 16.9922 19.0625 17.5C19.2578 18.0078 19.4141 18.5352 19.5312 19.082C19.5703 19.2904 19.5312 19.4824 19.4141 19.6582C19.2969 19.834 19.1341 19.9414 18.9258 19.9805C18.7174 20.0195 18.5254 19.9805 18.3496 19.8633C18.1738 19.7461 18.0599 19.5833 18.0078 19.375C17.8255 18.4766 17.4967 17.6302 17.0215 16.8359C16.5462 16.0417 15.9505 15.3516 15.2344 14.7656C14.5182 14.1797 13.724 13.7305 12.8516 13.418C11.9792 13.1055 11.0807 12.9492 10.1562 12.9492Z" fill="#0749CA"/>
</svg>
