<svg width="22" height="22" viewBox="0 0 22 22" fill="none" xmlns="http://www.w3.org/2000/svg">
<path d="M13.289 1.84766C13.3033 1.80469 13.3177 1.7653 13.332 1.72949C13.3463 1.69369 13.3678 1.66146 13.3964 1.63281C13.4251 1.58984 13.4537 1.55762 13.4824 1.53613C13.511 1.51465 13.5468 1.48958 13.5898 1.46094C13.6328 1.44662 13.6722 1.43229 13.708 1.41797C13.7438 1.40365 13.7832 1.38932 13.8261 1.375C13.8691 1.375 13.9121 1.375 13.955 1.375C13.998 1.375 14.041 1.38216 14.0839 1.39648C14.8574 1.59701 15.5914 1.89779 16.2861 2.29883C16.9808 2.69987 17.6074 3.17969 18.166 3.73828C18.7389 4.3112 19.2223 4.94499 19.6162 5.63965C20.0101 6.33431 20.3073 7.06836 20.5078 7.8418C20.5221 7.88477 20.5328 7.92773 20.54 7.9707C20.5472 8.01367 20.5436 8.05664 20.5293 8.09961C20.5293 8.12825 20.5221 8.16406 20.5078 8.20703C20.4935 8.25 20.472 8.29297 20.4433 8.33594C20.429 8.36458 20.4075 8.39681 20.3789 8.43262C20.3502 8.46842 20.3216 8.49349 20.2929 8.50781C20.25 8.53646 20.2106 8.56152 20.1748 8.58301C20.139 8.60449 20.0996 8.6224 20.0566 8.63672C20.028 8.63672 20.0029 8.6403 19.9814 8.64746C19.9599 8.65462 19.9349 8.6582 19.9062 8.6582C19.8346 8.6582 19.763 8.64388 19.6914 8.61523C19.6198 8.58659 19.5553 8.55078 19.498 8.50781C19.4407 8.46484 19.3942 8.41471 19.3584 8.35742C19.3226 8.30013 19.2975 8.23568 19.2832 8.16406C19.1113 7.50521 18.8535 6.87858 18.5097 6.28418C18.166 5.68978 17.7506 5.14909 17.2636 4.66211C16.7767 4.17513 16.236 3.75977 15.6416 3.41602C15.0472 3.07227 14.4134 2.81445 13.7402 2.64258C13.6972 2.62826 13.6578 2.61393 13.622 2.59961C13.5862 2.58529 13.554 2.5638 13.5254 2.53516C13.4824 2.50651 13.4502 2.47787 13.4287 2.44922C13.4072 2.42057 13.3821 2.38477 13.3535 2.3418C13.3392 2.29883 13.3248 2.25944 13.3105 2.22363C13.2962 2.18783 13.2819 2.14844 13.2675 2.10547C13.2675 2.0625 13.2675 2.01953 13.2675 1.97656C13.2675 1.93359 13.2747 1.89062 13.289 1.84766ZM12.8808 6.05859C13.6686 6.27344 14.3095 6.62793 14.8037 7.12207C15.2978 7.61621 15.6523 8.25 15.8672 9.02344C15.8815 9.09505 15.9065 9.1595 15.9423 9.2168C15.9782 9.27409 16.0247 9.32422 16.082 9.36719C16.1393 9.41016 16.2002 9.44238 16.2646 9.46387C16.3291 9.48535 16.3971 9.49609 16.4687 9.49609C16.4974 9.49609 16.526 9.49609 16.5547 9.49609C16.5833 9.49609 16.6119 9.48893 16.6406 9.47461C16.6836 9.47461 16.7229 9.46387 16.7588 9.44238C16.7946 9.4209 16.8339 9.39583 16.8769 9.36719C16.9056 9.33854 16.9342 9.3099 16.9629 9.28125C16.9915 9.2526 17.013 9.2168 17.0273 9.17383C17.056 9.14518 17.0774 9.10938 17.0918 9.06641C17.1061 9.02344 17.1132 8.98047 17.1132 8.9375C17.1132 8.89453 17.1132 8.85514 17.1132 8.81934C17.1132 8.78353 17.1061 8.74414 17.0918 8.70117C16.8339 7.69857 16.3756 6.86784 15.7168 6.20898C15.0579 5.55013 14.2272 5.08463 13.2246 4.8125C13.1816 4.8125 13.1386 4.80892 13.0957 4.80176C13.0527 4.7946 13.0097 4.79818 12.9668 4.8125C12.9238 4.8125 12.8844 4.81966 12.8486 4.83398C12.8128 4.84831 12.7734 4.86263 12.7304 4.87695C12.6588 4.91992 12.5979 4.97721 12.5478 5.04883C12.4977 5.12044 12.4583 5.19922 12.4297 5.28516C12.4153 5.35677 12.4117 5.43555 12.4189 5.52148C12.4261 5.60742 12.4511 5.6862 12.4941 5.75781C12.5371 5.82943 12.5944 5.89388 12.666 5.95117C12.7376 6.00846 12.8092 6.04427 12.8808 6.05859ZM21.3886 16.4355C21.2884 17.1374 21.0735 17.7962 20.7441 18.4121C20.4147 19.028 19.985 19.5723 19.455 20.0449C18.9251 20.5033 18.3307 20.8577 17.6718 21.1084C17.013 21.359 16.3326 21.4844 15.6308 21.4844C13.5254 21.4844 11.556 21.0833 9.72262 20.2812C7.87496 19.4792 6.26364 18.3906 4.88864 17.0156C3.51364 15.6406 2.43226 14.0365 1.6445 12.2031C0.842412 10.3555 0.44137 8.38607 0.44137 6.29492C0.44137 5.5931 0.563115 4.91276 0.806604 4.25391C1.05009 3.59505 1.40817 3.00065 1.88082 2.4707C2.33916 1.94076 2.87985 1.50749 3.50289 1.1709C4.12594 0.834311 4.78838 0.623047 5.4902 0.537109C5.64775 0.522787 5.8053 0.529947 5.96285 0.558594C6.12041 0.58724 6.2708 0.644531 6.41403 0.730469C6.55726 0.802084 6.68258 0.898764 6.79 1.02051C6.89742 1.14225 6.97978 1.2819 7.03707 1.43945L9.29293 6.4668C9.35022 6.58138 9.38603 6.69954 9.40035 6.82129C9.41468 6.94303 9.42184 7.06836 9.42184 7.19727C9.40752 7.31185 9.37887 7.43001 9.3359 7.55176C9.29293 7.6735 9.2428 7.7845 9.18551 7.88477C9.17119 7.89909 9.16045 7.90983 9.15328 7.91699C9.14612 7.92415 9.13538 7.9349 9.12106 7.94922L6.88668 10.6348C6.87236 10.6491 6.8652 10.6634 6.8652 10.6777C6.8652 10.6921 6.8652 10.7064 6.8652 10.7207C6.8652 10.735 6.8652 10.7493 6.8652 10.7637C6.8652 10.778 6.87236 10.7923 6.88668 10.8066C7.28772 11.6374 7.88571 12.4502 8.68063 13.2451C9.47555 14.04 10.3027 14.638 11.1621 15.0391C11.1764 15.0534 11.1907 15.0605 11.205 15.0605C11.2194 15.0605 11.2337 15.0605 11.248 15.0605C11.2623 15.0605 11.2767 15.057 11.291 15.0498C11.3053 15.0426 11.3196 15.0391 11.3339 15.0391L13.9765 12.7832C13.9908 12.7832 14.0016 12.7796 14.0088 12.7725C14.0159 12.7653 14.0267 12.7546 14.041 12.7402C14.1412 12.6829 14.2487 12.6328 14.3632 12.5898C14.4778 12.5469 14.5996 12.5182 14.7285 12.5039C14.8574 12.4896 14.9827 12.4932 15.1045 12.5146C15.2262 12.5361 15.3444 12.5684 15.4589 12.6113L20.5078 14.8887C20.651 14.946 20.7835 15.0283 20.9052 15.1357C21.027 15.2432 21.1237 15.3685 21.1953 15.5117C21.2812 15.6549 21.3385 15.8053 21.3672 15.9629C21.3958 16.1204 21.403 16.278 21.3886 16.4355ZM20.1211 16.2637C20.1211 16.2493 20.1175 16.2314 20.1103 16.21C20.1032 16.1885 20.0924 16.1634 20.0781 16.1348C20.0638 16.1204 20.0494 16.1061 20.0351 16.0918C20.0208 16.0775 20.0065 16.0632 19.9922 16.0488L14.9218 13.793C14.9075 13.793 14.8932 13.7894 14.8789 13.7822C14.8645 13.7751 14.8502 13.7715 14.8359 13.7715C14.8216 13.7858 14.8073 13.793 14.7929 13.793C14.7786 13.793 14.7643 13.8001 14.75 13.8145L12.1289 16.0488C12.1145 16.0632 12.1038 16.0739 12.0966 16.0811C12.0895 16.0882 12.0787 16.0918 12.0644 16.0918C11.9498 16.1634 11.8317 16.2207 11.7099 16.2637C11.5882 16.3066 11.4629 16.3353 11.3339 16.3496C11.205 16.3496 11.0797 16.3389 10.958 16.3174C10.8362 16.2959 10.7109 16.2565 10.582 16.1992C10.095 15.9701 9.6152 15.6764 9.14254 15.3184C8.65556 14.9746 8.20081 14.5915 7.77828 14.1689C7.35576 13.7464 6.96546 13.2917 6.60739 12.8047C6.24931 12.332 5.95569 11.8522 5.72653 11.3652C5.66923 11.2507 5.62985 11.1325 5.60836 11.0107C5.58688 10.889 5.57614 10.7637 5.57614 10.6348C5.59046 10.5059 5.61552 10.3805 5.65133 10.2588C5.68714 10.137 5.74085 10.0189 5.81246 9.9043C5.82679 9.88997 5.83753 9.87923 5.84469 9.87207C5.85185 9.86491 5.85543 9.85417 5.85543 9.83984L8.11129 7.1543C8.12561 7.13997 8.13278 7.12565 8.13278 7.11133C8.13278 7.097 8.13278 7.08268 8.13278 7.06836C8.13278 7.05404 8.13278 7.03971 8.13278 7.02539C8.13278 7.01107 8.12561 6.99675 8.11129 6.98242L5.85543 1.95508C5.85543 1.92643 5.84827 1.90495 5.83395 1.89062C5.81963 1.8763 5.8053 1.86198 5.79098 1.84766C5.77666 1.83333 5.75875 1.82259 5.73727 1.81543C5.71578 1.80827 5.69072 1.80469 5.66207 1.80469H5.64059C5.09632 1.8763 4.58427 2.04102 4.10446 2.29883C3.62464 2.55664 3.20569 2.89323 2.84762 3.30859C2.47522 3.72396 2.19593 4.18945 2.00973 4.70508C1.82353 5.2207 1.73043 5.75065 1.73043 6.29492C1.73043 8.21419 2.09567 10.0189 2.82614 11.709C3.5566 13.3848 4.54847 14.8529 5.80172 16.1133C7.05498 17.3737 8.52666 18.3691 10.2168 19.0996C11.9069 19.8301 13.7116 20.1953 15.6308 20.1953C16.1751 20.1953 16.705 20.0986 17.2207 19.9053C17.7363 19.7119 18.1946 19.4362 18.5957 19.0781C19.011 18.7201 19.3512 18.2975 19.6162 17.8105C19.8811 17.3236 20.0494 16.8079 20.1211 16.2637Z" fill="#0749CA"/>
</svg>
