<svg width="21" height="20" viewBox="0 0 21 20" fill="none" xmlns="http://www.w3.org/2000/svg">
<path d="M19.8457 19.4727C19.9889 19.3294 20.0605 19.1569 20.0605 18.9551C20.0605 18.7533 19.9889 18.5807 19.8457 18.4375L15.2754 13.8672C15.1322 13.724 15.054 13.5514 15.041 13.3496C15.028 13.1478 15.0801 12.9688 15.1973 12.8125C15.7311 12.0573 16.1217 11.2305 16.3691 10.332C16.6165 9.43359 16.7077 8.52214 16.6426 7.59766C16.6035 7.07682 16.5189 6.5625 16.3887 6.05469C16.2585 5.5599 16.0794 5.07812 15.8516 4.60938C15.6237 4.14062 15.3535 3.69792 15.041 3.28125C14.7415 2.86458 14.3965 2.48047 14.0059 2.12891C13.6152 1.77734 13.1986 1.46484 12.7559 1.19141C12.3132 0.917969 11.8509 0.693359 11.3691 0.517578C10.8874 0.341797 10.3926 0.208334 9.88477 0.117188C9.36393 0.026041 8.8431 -0.0130215 8.32227 0C7.80143 0.0130215 7.28711 0.078125 6.7793 0.195312C6.27148 0.299479 5.77995 0.452475 5.30469 0.654297C4.82943 0.856119 4.37695 1.10026 3.94727 1.38672C3.51758 1.6862 3.12044 2.01823 2.75586 2.38281C2.37826 2.76042 2.04622 3.16406 1.75977 3.59375C1.46029 4.02344 1.20964 4.47591 1.00781 4.95117C0.80599 5.42643 0.652995 5.91797 0.548828 6.42578C0.431641 6.93359 0.366536 7.44792 0.353516 7.96875C0.340495 8.48958 0.379557 9.00391 0.470703 9.51172C0.561849 10.0326 0.698568 10.5339 0.880859 11.0156C1.06315 11.4974 1.28451 11.9596 1.54492 12.4023C1.81836 12.8451 2.13086 13.2617 2.48242 13.6523C2.84701 14.0299 3.23763 14.375 3.6543 14.6875C4.07096 15 4.51042 15.2669 4.97266 15.4883C5.4349 15.7096 5.91341 15.8919 6.4082 16.0352C6.91602 16.1654 7.43034 16.25 7.95117 16.2891C8.88867 16.3542 9.80339 16.2598 10.6953 16.0059C11.5872 15.752 12.4108 15.3646 13.166 14.8438C13.3353 14.7266 13.5176 14.6745 13.7129 14.6875C13.9082 14.7005 14.0775 14.7721 14.2207 14.9023L18.791 19.4727C18.9342 19.6159 19.1068 19.6875 19.3086 19.6875C19.5104 19.6875 19.6895 19.6159 19.8457 19.4727ZM1.85742 8.16406C1.85742 7.5 1.95508 6.85547 2.15039 6.23047C2.3457 5.60547 2.62565 5.01953 2.99023 4.47266C3.35482 3.92578 3.79102 3.44076 4.29883 3.01758C4.80664 2.5944 5.36654 2.25912 5.97852 2.01172C6.59049 1.76432 7.22201 1.60807 7.87305 1.54297C8.52409 1.47787 9.17513 1.51042 9.82617 1.64062C10.4642 1.77083 11.0762 1.98893 11.6621 2.29492C12.248 2.60091 12.7689 2.98828 13.2246 3.45703C13.6934 3.92578 14.084 4.44987 14.3965 5.0293C14.709 5.60872 14.9303 6.21745 15.0605 6.85547C15.1777 7.50651 15.207 8.16081 15.1484 8.81836C15.0898 9.47591 14.9303 10.1042 14.6699 10.7031C14.4225 11.3151 14.0905 11.875 13.6738 12.3828C13.2572 12.8906 12.7754 13.3268 12.2285 13.6914C11.6816 14.069 11.0924 14.3522 10.4609 14.541C9.82943 14.7298 9.18164 14.8242 8.51758 14.8242C7.63216 14.8242 6.78255 14.6549 5.96875 14.3164C5.15495 13.9779 4.43555 13.4961 3.81055 12.8711C3.18555 12.2461 2.70378 11.5267 2.36523 10.7129C2.02669 9.89909 1.85742 9.04948 1.85742 8.16406Z" fill="#0749CA"/>
</svg>
