<svg width="218" height="50" viewBox="0 0 218 50" fill="none" xmlns="http://www.w3.org/2000/svg">
<g clip-path="url(#clip0_1_79)">
<g clip-path="url(#clip1_1_79)">
<g clip-path="url(#clip2_1_79)">
<path fill-rule="evenodd" clip-rule="evenodd" d="M175.129 13.645C175.129 9.97404 178.106 7 181.781 7C185.455 7 188.432 9.97404 188.432 13.645C188.432 17.316 185.455 20.2901 181.781 20.2901C178.106 20.2901 175.129 17.316 175.129 13.645Z" fill="#EC1B2E"/>
<path fill-rule="evenodd" clip-rule="evenodd" d="M146.18 43.5578H153.847C154.012 43.5578 154.192 43.5095 154.309 43.3991L172.6 22.0425C172.752 21.87 172.903 21.732 172.903 21.6216C172.903 21.4491 172.758 21.3594 172.461 21.3594H166.818C166.652 21.3594 166.473 21.4008 166.355 21.525L153.964 35.7604L147.823 21.525C147.734 21.4146 147.623 21.3663 147.492 21.3663H136.813C136.371 21.3663 136.15 21.5319 136.15 21.8493C136.15 21.8907 138.823 28.7497 145.841 43.3991C145.896 43.5026 146.014 43.5578 146.18 43.5578Z" fill="#0749CA"/>
<path fill-rule="evenodd" clip-rule="evenodd" d="M102.907 43.5581C110.512 43.5581 114.532 41.8882 114.532 36.0919C114.532 34.0494 113.44 31.8275 111.251 29.4261L102.444 19.6621H123.124C123.552 19.6621 123.829 19.4896 123.974 19.1584L125.459 15.0803C125.479 15.0251 125.493 14.9975 125.493 14.9147C125.493 14.6663 125.341 14.5352 125.03 14.5352H101.27C94.632 14.5352 88.6021 14.5352 88.5813 22.9053C88.5744 24.7753 89.4378 27.2663 91.1508 29.0535L100.061 38.6174H80.5621C80.1338 38.6174 79.8507 38.7968 79.7056 39.1625L78.2965 43.0337C78.2689 43.1096 78.2482 43.1648 78.2344 43.1993C78.2344 43.4477 78.4001 43.565 78.7317 43.565L102.907 43.5581Z" fill="#0749CA"/>
<path fill-rule="evenodd" clip-rule="evenodd" d="M125.694 43.5578C126.005 43.5578 126.219 43.4198 126.323 43.1369C127.518 39.8454 133.7 22.8706 134.121 21.7251C134.183 21.5388 134.031 21.3594 133.81 21.3594H123.871C123.567 21.3594 123.332 21.5181 123.242 21.7803C122.607 23.5261 115.506 42.9851 115.41 43.2749C115.382 43.4819 115.534 43.5578 115.769 43.5578H125.694Z" fill="#0749CA"/>
<path fill-rule="evenodd" clip-rule="evenodd" d="M176.44 43.5578C176.751 43.5578 176.965 43.4198 177.069 43.1369C178.264 39.8454 184.446 22.8706 184.867 21.7251C184.936 21.5388 184.777 21.3594 184.556 21.3594H174.617C174.313 21.3594 174.078 21.5181 173.988 21.7803C173.353 23.5261 166.252 42.9851 166.155 43.2749C166.128 43.4819 166.28 43.5578 166.515 43.5578H176.44Z" fill="#0749CA"/>
<path fill-rule="evenodd" clip-rule="evenodd" d="M190.586 43.5574H180.584C180.349 43.5574 180.218 43.4056 180.246 43.2538C180.494 42.5775 188.845 19.6614 192.548 9.48341C192.651 9.2005 192.872 9.0625 193.183 9.0625H203.191C203.413 9.0625 203.523 9.15909 203.523 9.3523C203.095 10.5116 197.569 25.6717 196.346 29.039L210.582 21.4486C210.693 21.3865 210.803 21.352 210.914 21.352H217.558C217.855 21.352 218 21.4417 218 21.6143C218 21.7868 217.862 21.9455 217.586 22.0973L203.924 29.6049C209.125 38.6305 211.715 43.0054 211.715 43.0675C211.715 43.3918 211.494 43.5505 211.059 43.5505H200.567C200.401 43.5505 200.29 43.4953 200.235 43.3918L194.73 33.4829C193.749 36.174 192.223 40.3556 191.221 43.1365C191.097 43.447 190.931 43.5574 190.586 43.5574Z" fill="#0749CA"/>
<path fill-rule="evenodd" clip-rule="evenodd" d="M58.4899 10.6265L31.7039 10.6335C25.1352 10.6335 19.1743 10.6335 19.1467 18.9139C19.1398 20.7632 19.9963 23.2266 21.6885 24.9931L30.5021 34.4535H7.36305C5.40141 31.6174 4.29626 28.4019 4.29626 24.9931C4.29626 13.5523 16.7499 4.28512 32.1114 4.28512C37.1675 4.28512 41.9058 5.29257 45.988 7.04526H54.5183C48.5298 2.57383 40.4277 0 32.1114 0C15.6447 0 0 10.1021 0 25C0 30.541 2.16194 35.4196 5.73295 39.3597H33.3271C40.849 39.3597 44.8206 37.7105 44.8206 31.9763C44.8206 29.9614 43.7362 27.7601 41.5743 25.3795L32.8643 15.719H56.9842C58.8698 18.5137 59.9266 21.6671 59.9266 25.0069C59.9266 36.4408 47.473 45.7149 32.1114 45.7149C27.0554 45.7149 22.3171 44.7074 18.228 42.9547H9.69768C15.6862 47.4262 23.7952 50 32.1114 50C48.5781 50 64.2229 39.9048 64.2229 25C64.2229 19.4521 62.061 14.5736 58.4899 10.6265Z" fill="#0749CA"/>
</g>
</g>
</g>
<defs>
<clipPath id="clip0_1_79">
<rect width="218" height="50" fill="white"/>
</clipPath>
<clipPath id="clip1_1_79">
<rect width="218" height="50" fill="white"/>
</clipPath>
<clipPath id="clip2_1_79">
<rect width="218" height="50" fill="white"/>
</clipPath>
</defs>
</svg>
